<svg
  width="24"
  height="24"
  viewBox="0 0 24 24"
  fill="none"
  xmlns="http://www.w3.org/2000/svg"
>
  <path
    d="M12 2.5C17.2469 2.5 21.5 6.75314 21.5 12C21.5 17.2469 17.2469 21.5 12 21.5C6.75314 21.5 2.5 17.2469 2.5 12C2.5 6.75314 6.75314 2.5 12 2.5ZM12 3.5C9.74566 3.5 7.58332 4.3952 5.98926 5.98926C4.3952 7.58332 3.5 9.74566 3.5 12C3.5 14.2543 4.3952 16.4167 5.98926 18.0107C7.58332 19.6048 9.74566 20.5 12 20.5C14.2543 20.5 16.4167 19.6048 18.0107 18.0107C19.6048 16.4167 20.5 14.2543 20.5 12C20.5 9.74566 19.6048 7.58332 18.0107 5.98926C16.4167 4.3952 14.2543 3.5 12 3.5ZM12 6C12.1313 6 12.2615 6.02592 12.3828 6.07617C12.5041 6.12643 12.6142 6.20014 12.707 6.29297C12.7999 6.38579 12.8736 6.49591 12.9238 6.61719C12.9741 6.73851 13 6.86868 13 7C13 7.13132 12.9741 7.26149 12.9238 7.38281C12.8736 7.50409 12.7999 7.61421 12.707 7.70703C12.6142 7.79986 12.5041 7.87357 12.3828 7.92383C12.2615 7.97408 12.1313 8 12 8C11.7348 8 11.4805 7.89457 11.293 7.70703C11.1054 7.5195 11 7.26522 11 7C11 6.73478 11.1054 6.4805 11.293 6.29297C11.4805 6.10543 11.7348 6 12 6ZM10.5 10.9043L10.0791 10.8369C9.13122 10.685 8.18264 10.4588 7.2832 10.1406L7.6543 9.20898C9.03177 9.69798 10.5372 10 12 10C13.4671 10 14.9684 9.69351 16.3457 9.20801C16.4044 9.35244 16.4724 9.51829 16.5391 9.68457C16.6018 9.84108 16.6628 9.99722 16.7168 10.1348C15.8086 10.4516 14.8738 10.6869 13.9229 10.8359L13.5 10.9023V11.3301C13.5 12.1259 13.4004 13.1831 13.8711 14.1221L15.2246 16.8291L14.3301 17.2773L13.001 14.6191H13C12.9072 14.4337 12.7652 14.2771 12.5889 14.168C12.4122 14.0588 12.2087 14.001 12.001 14.001C11.7933 14.001 11.5897 14.0588 11.4131 14.168C11.2366 14.2772 11.0937 14.4335 11.001 14.6191L9.67188 17.2773L8.77637 16.8291L10.1309 14.1221C10.6004 13.1841 10.5 12.126 10.5 11.3311V10.9043Z"
    fill="#F1F3F5"
    stroke="#F1F3F5"
  />
</svg>
