<svg
  width="24"
  height="24"
  viewBox="0 0 24 24"
  fill="none"
  xmlns="http://www.w3.org/2000/svg"
>
  <path
    d="M17.6841 20.8278C18.0364 20.8274 18.3816 20.7294 18.6816 20.5448C18.9815 20.3601 19.2246 20.0961 19.3837 19.7819C19.5428 19.4676 19.6119 19.1155 19.5832 18.7644C19.5545 18.4133 19.4292 18.0771 19.2211 17.7928C18.4922 16.8253 17.5539 16.0352 16.4764 15.4817C15.3989 14.9283 13.2101 14.6257 11.9991 14.5968C10.788 14.6259 8.59921 14.9285 7.5217 15.4822C6.44418 16.0358 5.5059 16.8261 4.77712 17.7938C4.56978 18.0781 4.44502 18.4141 4.41663 18.7648C4.38823 19.1155 4.45731 19.4672 4.61623 19.7811C4.77514 20.095 5.01772 20.3589 5.31717 20.5436C5.61661 20.7283 5.96128 20.8267 6.31312 20.8278H17.6841ZM11.9991 11.4858C13.1009 11.4832 14.1566 11.0436 14.9346 10.2635C15.7126 9.48343 16.1494 8.42657 16.1491 7.32483C16.1491 6.22391 15.7118 5.16809 14.9333 4.38963C14.1549 3.61116 13.099 3.17383 11.9981 3.17383C10.8972 3.17383 9.84138 3.61116 9.06292 4.38963C8.28446 5.16809 7.84712 6.22391 7.84712 7.32483C7.84712 8.42657 8.28417 9.48332 9.06237 10.2632C9.84058 11.0431 10.8964 11.4824 11.9981 11.4848"
    fill="#F1F3F5"
  />
  <path
    d="M11.9991 11.4858C13.1009 11.4832 14.1566 11.0436 14.9346 10.2635C15.7126 9.48343 16.1494 8.42657 16.1491 7.32483C16.1491 6.22391 15.7118 5.16809 14.9333 4.38963C14.1549 3.61116 13.099 3.17383 11.9981 3.17383C10.8972 3.17383 9.84138 3.61116 9.06292 4.38963C8.28446 5.16809 7.84712 6.22391 7.84712 7.32483C7.84712 8.42657 8.28417 9.48332 9.06237 10.2632C9.84058 11.0431 10.8964 11.4824 11.9981 11.4848M17.6841 20.8278C18.0364 20.8273 18.3816 20.7294 18.6816 20.5448C18.9815 20.3601 19.2246 20.0961 19.3837 19.7819C19.5428 19.4676 19.6119 19.1155 19.5832 18.7644C19.5545 18.4133 19.4292 18.0771 19.2211 17.7928C18.4922 16.8253 17.5539 16.0352 16.4764 15.4817C15.3989 14.9283 13.2101 14.6257 11.9991 14.5968C10.788 14.6259 8.59921 14.9285 7.5217 15.4822C6.44418 16.0358 5.5059 16.8261 4.77712 17.7938C4.56978 18.0781 4.44502 18.4141 4.41663 18.7648C4.38823 19.1155 4.45731 19.4672 4.61623 19.7811C4.77514 20.095 5.01772 20.3589 5.31717 20.5436C5.61661 20.7283 5.96128 20.8267 6.31312 20.8278H17.6841Z"
    stroke="#F1F3F5"
    stroke-width="2"
    stroke-linecap="round"
    stroke-linejoin="round"
  />
</svg>
