<svg width="16" height="16" viewBox="0 0 16 16" fill="none" xmlns="http://www.w3.org/2000/svg">
<path d="M10.6681 9C10.6681 9.26522 10.7734 9.51957 10.961 9.70711C11.1485 9.89464 11.4029 10 11.6681 10C11.9333 10 12.1877 9.89464 12.3752 9.70711C12.5627 9.51957 12.6681 9.26522 12.6681 9C12.6681 8.73478 12.5627 8.48043 12.3752 8.29289C12.1877 8.10536 11.9333 8 11.6681 8C11.4029 8 11.1485 8.10536 10.961 8.29289C10.7734 8.48043 10.6681 8.73478 10.6681 9Z" fill="white"/>
<path d="M13.3268 3.47266C14.6014 3.47266 15.6343 4.50569 15.6344 5.78027V12.1719C15.6343 13.4465 14.6014 14.4795 13.3268 14.4795H7.93127C7.53917 14.4795 7.22131 14.1616 7.22131 13.7695C7.22131 13.3774 7.53917 13.0596 7.93127 13.0596H13.3268C13.817 13.0596 14.2144 12.6621 14.2145 12.1719V5.78027C14.2144 5.2901 13.817 4.89258 13.3268 4.89258H2.67444C2.18432 4.89267 1.78683 5.29016 1.78674 5.78027V7.49805C1.78674 7.89015 1.46888 8.20801 1.07678 8.20801C0.684682 8.20801 0.366821 7.89015 0.366821 7.49805V5.78027C0.366913 4.50575 1.39992 3.47275 2.67444 3.47266H13.3268Z" fill="#F1F3F6"/>
<path d="M13.1723 4.18204V3.1834C13.1722 2.93847 13.1181 2.69657 13.0138 2.47497C12.9095 2.25337 12.7575 2.05753 12.5688 1.90142C12.38 1.7453 12.1592 1.63277 11.9219 1.57185C11.6847 1.51092 11.4369 1.5031 11.1963 1.54895L2.42961 3.04525C2.0489 3.1178 1.70544 3.32094 1.45848 3.61962C1.21151 3.9183 1.07652 4.2938 1.07678 4.68136V6.31247" stroke="#F1F3F6" stroke-width="1.42029" stroke-linejoin="round"/>
<path d="M11.5231 7.94141C11.7276 7.90073 11.9398 7.92217 12.1324 8.00195C12.3249 8.08172 12.4893 8.21647 12.6051 8.38965C12.7209 8.563 12.7828 8.7671 12.7828 8.97559C12.7828 9.25508 12.6719 9.52307 12.4742 9.7207C12.2766 9.91834 12.0086 10.0292 11.7291 10.0293C11.5206 10.0293 11.3165 9.96739 11.1432 9.85156C10.97 9.7358 10.8353 9.57133 10.7555 9.37891C10.6757 9.18629 10.6543 8.97401 10.6949 8.76953C10.7356 8.56512 10.8366 8.37785 10.984 8.23047C11.1314 8.08309 11.3187 7.9821 11.5231 7.94141Z" fill="#F1F3F6" stroke="#F1F3F6" stroke-width="0.022192"/>
<path d="M6.38525 11.4189H3.96631M3.96631 11.4189H1.54736M3.96631 11.4189V13.8379M3.96631 11.4189V9" stroke="#F1F3F6" stroke-width="1.36066" stroke-linecap="round" stroke-linejoin="round"/>
</svg>
