<svg width="24" height="24" viewBox="0 0 24 24" fill="none" xmlns="http://www.w3.org/2000/svg">
<g clip-path="url(#clip0_425_15743)">
<g clip-path="url(#clip1_425_15743)">
<path d="M9.20496 3.5H17.9315C18.6669 3.5 19.3725 3.79251 19.8925 4.3125C20.4123 4.83241 20.7049 5.53727 20.705 6.27246V8.4541C20.705 9.18945 20.4124 9.89506 19.8925 10.415C19.3725 10.935 18.6669 11.2275 17.9315 11.2275H9.20496C8.46958 11.2275 7.76401 10.935 7.24402 10.415C6.72406 9.89506 6.43152 9.18945 6.43152 8.4541V7.9541H4.8407C4.41886 7.95417 4.01399 8.12261 3.7157 8.4209C3.41757 8.71922 3.24988 9.12413 3.24988 9.5459V12.8184C3.24992 13.2402 3.41741 13.6451 3.7157 13.9434C4.01399 14.2416 4.41886 14.4091 4.8407 14.4092H11.3866C12.1219 14.4092 12.8266 14.7017 13.3466 15.2217C13.8665 15.7416 14.159 16.4463 14.1591 17.1816V18.7725H14.6591C15.1051 18.7725 15.5331 18.9502 15.8485 19.2656C16.1637 19.5809 16.3406 20.0083 16.3407 20.4541V24.8184C16.3407 25.2643 16.1639 25.6925 15.8485 26.0078C15.5331 26.3231 15.105 26.5 14.6591 26.5H12.4774C12.0314 26.5 11.6034 26.3231 11.288 26.0078C10.9726 25.6925 10.7958 25.2643 10.7958 24.8184V20.4541C10.7959 20.0083 10.9728 19.5809 11.288 19.2656C11.6034 18.9502 12.0314 18.7725 12.4774 18.7725H12.9774V17.1816C12.9774 16.7598 12.8099 16.355 12.5116 16.0566C12.2133 15.7583 11.8085 15.5909 11.3866 15.5908H4.8407C4.10542 15.5907 3.40066 15.2982 2.88074 14.7783C2.36082 14.2584 2.06828 13.5536 2.06824 12.8184V9.5459C2.06824 8.81053 2.36075 8.10495 2.88074 7.58496C3.40065 7.06512 4.10548 6.77253 4.8407 6.77246H6.43152V6.27246C6.43159 5.53727 6.72421 4.83241 7.24402 4.3125C7.76401 3.79251 8.46958 3.5 9.20496 3.5ZM11.9774 25.3184H15.1591V19.9541H11.9774V25.3184ZM9.20496 4.68164C8.78317 4.68164 8.37828 4.8493 8.07996 5.14746C7.78167 5.44575 7.61421 5.85062 7.61414 6.27246V8.4541C7.61414 8.87602 7.78163 9.28075 8.07996 9.5791C8.37831 9.87745 8.78302 10.0459 9.20496 10.0459H17.9315C18.3535 10.0459 18.7582 9.87745 19.0565 9.5791C19.3548 9.28075 19.5223 8.87601 19.5223 8.4541V6.27246C19.5223 5.85062 19.3548 5.44575 19.0565 5.14746C18.7582 4.8493 18.3533 4.68164 17.9315 4.68164H9.20496Z" fill="#F1F3F5" stroke="#F1F3F5"/>
</g>
</g>
<defs>
<clipPath id="clip0_425_15743">
<rect width="24" height="24" fill="white"/>
</clipPath>
<clipPath id="clip1_425_15743">
<rect width="24" height="24" fill="white"/>
</clipPath>
</defs>
</svg>
