<svg width="20" height="20" viewBox="0 0 20 20" fill="none" xmlns="http://www.w3.org/2000/svg">
<path d="M10 2.125C14.3494 2.125 17.875 5.65063 17.875 10V11.2559C17.8751 11.7759 17.7084 12.2828 17.3994 12.7012C17.0904 13.1195 16.6554 13.4282 16.1582 13.5811C15.661 13.7339 15.1274 13.7223 14.6367 13.5498C14.1463 13.3772 13.7236 13.0523 13.4316 12.6221L13.0859 12.1113L12.6582 12.5566C12.166 13.0684 11.5359 13.4272 10.8447 13.5898C10.1537 13.7524 9.43036 13.712 8.76172 13.4736C8.09288 13.2351 7.50649 12.8085 7.07422 12.2451C6.64203 11.6818 6.38154 11.0055 6.32422 10.2979C6.26696 9.59006 6.41587 8.88042 6.75195 8.25488C7.08795 7.62953 7.59719 7.11443 8.21875 6.77148C8.8405 6.42856 9.54852 6.27186 10.2568 6.32129C10.9652 6.37075 11.6448 6.62376 12.2129 7.0498L12.3457 7.15039H13.6875V11.2559C13.6875 11.7216 13.8728 12.1687 14.2021 12.498C14.5314 12.8273 14.9778 13.0126 15.4434 13.0127C15.9091 13.0127 16.3562 12.8274 16.6855 12.498C17.0149 12.1687 17.2002 11.7216 17.2002 11.2559V10C17.2 8.39519 16.6631 6.83646 15.6758 5.57129C14.6886 4.30629 13.3074 3.40682 11.751 3.0166C10.1943 2.62641 8.55131 2.76808 7.08398 3.41797C5.61689 4.06786 4.40843 5.18874 3.65137 6.60352C2.89425 8.01849 2.63183 9.64621 2.90527 11.2275C3.17872 12.8089 3.97282 14.2535 5.16113 15.332C6.34935 16.4105 7.86367 17.0612 9.46387 17.1807C10.8975 17.2876 12.3254 16.9608 13.5674 16.252L13.9434 16.8164C12.7481 17.5097 11.3886 17.8773 10.001 17.875H10C5.65063 17.875 2.125 14.3494 2.125 10C2.125 5.65063 5.65063 2.125 10 2.125ZM10 6.9873C9.20104 6.9873 8.43507 7.30516 7.87012 7.87012C7.30516 8.43507 6.9873 9.20104 6.9873 10C6.98731 10.799 7.30516 11.5649 7.87012 12.1299C8.43507 12.6948 9.20104 13.0127 10 13.0127C10.799 13.0127 11.5649 12.6948 12.1299 12.1299C12.6948 11.5649 13.0127 10.799 13.0127 10C13.0127 9.20104 12.6948 8.43507 12.1299 7.87012C11.5649 7.30516 10.799 6.98731 10 6.9873Z" fill="#F1F3F5" stroke="#F1F3F5"/>
</svg>
