<svg width="28" height="28" viewBox="0 0 28 28" fill="none" xmlns="http://www.w3.org/2000/svg">
<path d="M14.0004 2.91504C20.1216 2.91522 25.0834 7.8778 25.0834 13.999C25.0832 20.1201 20.1214 25.0819 14.0004 25.082H13.9994C12.4186 25.084 10.8556 24.7467 9.41638 24.0928L9.24841 24.0166L9.06775 24.0498L3.60779 25.0723C3.51377 25.0898 3.41679 25.0834 3.32556 25.0547C3.23439 25.026 3.15133 24.9754 3.08435 24.9072C3.01747 24.8391 2.96785 24.7556 2.9408 24.6641C2.91376 24.5725 2.90996 24.4754 2.92908 24.3818V24.3809L4.01404 19.0879L4.0531 18.8975L3.97009 18.7227C3.29433 17.2892 2.91643 15.6878 2.91638 13.999C2.91638 7.87769 7.87903 2.91504 14.0004 2.91504ZM17.5785 4.75293C15.5677 3.97492 13.3582 3.8735 11.2845 4.46387C9.21091 5.05427 7.38572 6.30393 6.0863 8.02441C4.86815 9.63732 4.17475 11.5816 4.09216 13.5947L4.08337 13.998C4.08098 15.5797 4.45891 17.1387 5.18494 18.5439V18.5449C5.2459 18.6634 5.26464 18.7992 5.23767 18.9297V18.9307L4.42029 22.915L4.24646 23.7656L5.09998 23.6055L9.22595 22.833C9.35037 22.8099 9.47887 22.8284 9.59216 22.8848H9.59314C11.5247 23.8429 13.7165 24.146 15.8353 23.7471C17.954 23.3481 19.8846 22.2687 21.3353 20.6738C22.7861 19.079 23.6782 17.0552 23.8754 14.9082C24.0725 12.7611 23.5643 10.6078 22.4281 8.77539C21.2919 6.94305 19.5892 5.53098 17.5785 4.75293ZM8.75037 13.124C8.98224 13.1241 9.20453 13.216 9.36853 13.3799C9.53262 13.544 9.62537 13.767 9.62537 13.999C9.62528 14.231 9.53255 14.4532 9.36853 14.6172C9.20451 14.7812 8.98231 14.8739 8.75037 14.874C8.5183 14.874 8.29532 14.7813 8.13123 14.6172C7.96731 14.4532 7.87545 14.2309 7.87537 13.999C7.87537 13.767 7.96713 13.544 8.13123 13.3799C8.29532 13.2158 8.5183 13.124 8.75037 13.124ZM14.0004 13.124C14.2322 13.1241 14.4545 13.216 14.6185 13.3799C14.7826 13.544 14.8754 13.767 14.8754 13.999C14.8753 14.231 14.7825 14.4532 14.6185 14.6172C14.4545 14.7812 14.2323 14.8739 14.0004 14.874C13.7683 14.874 13.5453 14.7813 13.3812 14.6172C13.2173 14.4532 13.1255 14.2309 13.1254 13.999C13.1254 13.767 13.2171 13.544 13.3812 13.3799C13.5453 13.2158 13.7683 13.124 14.0004 13.124ZM19.2504 13.124C19.4822 13.1241 19.7045 13.216 19.8685 13.3799C20.0326 13.544 20.1254 13.767 20.1254 13.999C20.1253 14.231 20.0325 14.4532 19.8685 14.6172C19.7045 14.7812 19.4823 14.8739 19.2504 14.874C19.0183 14.874 18.7953 14.7813 18.6312 14.6172C18.4673 14.4532 18.3755 14.2309 18.3754 13.999C18.3754 13.767 18.4671 13.544 18.6312 13.3799C18.7953 13.2158 19.0183 13.124 19.2504 13.124Z" fill="#F1F3F5" stroke="#F1F3F5" stroke-width="1.16667"/>
</svg>
