<svg width="28" height="28" viewBox="0 0 28 28" fill="none" xmlns="http://www.w3.org/2000/svg">
<path d="M13.9998 2.91504C20.1211 2.91504 25.0837 7.87769 25.0837 13.999C25.0836 20.1202 20.121 25.082 13.9998 25.082H13.9988C12.418 25.0839 10.855 24.7468 9.41577 24.0928L9.2478 24.0166L9.06714 24.0498L3.60718 25.0723C3.51322 25.0899 3.41617 25.0842 3.32495 25.0557C3.2338 25.027 3.15077 24.9763 3.08374 24.9082C3.01665 24.84 2.96729 24.7558 2.94019 24.6641C2.9131 24.5723 2.90926 24.4755 2.92847 24.3818L4.0144 19.0879L4.05347 18.8984L3.97046 18.7227C3.27432 17.2457 2.91453 15.6319 2.91675 13.999L2.9314 13.4287C3.22805 7.57236 8.06968 2.91514 13.9998 2.91504ZM8.74976 11.957C8.20845 11.9571 7.68922 12.172 7.3064 12.5547C6.92351 12.9376 6.70874 13.4575 6.70874 13.999C6.70883 14.5404 6.92359 15.0596 7.3064 15.4424C7.68923 15.8252 8.20837 16.04 8.74976 16.04C9.29124 16.04 9.8112 15.8253 10.1941 15.4424C10.5768 15.0596 10.7917 14.5403 10.7917 13.999C10.7917 13.4576 10.5769 12.9376 10.1941 12.5547C9.81121 12.1718 9.29124 11.957 8.74976 11.957ZM13.9998 11.957C13.4584 11.9571 12.9392 12.172 12.5564 12.5547C12.1735 12.9376 11.9587 13.4575 11.9587 13.999C11.9588 14.5404 12.1736 15.0596 12.5564 15.4424C12.9392 15.8252 13.4584 16.04 13.9998 16.04C14.5412 16.04 15.0612 15.8253 15.4441 15.4424C15.8268 15.0596 16.0417 14.5403 16.0417 13.999C16.0417 13.4576 15.8269 12.9376 15.4441 12.5547C15.0612 12.1718 14.5412 11.957 13.9998 11.957ZM19.2498 11.957C18.7084 11.9571 18.1892 12.172 17.8064 12.5547C17.4235 12.9376 17.2087 13.4575 17.2087 13.999C17.2088 14.5404 17.4236 15.0596 17.8064 15.4424C18.1892 15.8252 18.7084 16.04 19.2498 16.04C19.7912 16.04 20.3112 15.8253 20.6941 15.4424C21.0768 15.0596 21.2917 14.5403 21.2917 13.999C21.2917 13.4576 21.0769 12.9376 20.6941 12.5547C20.3112 12.1718 19.7912 11.957 19.2498 11.957Z" fill="#F1F3F5" stroke="#F1F3F5" stroke-width="1.16667"/>
</svg>
