<svg width="25" height="24" viewBox="0 0 25 24" fill="none" xmlns="http://www.w3.org/2000/svg">
<path d="M18.045 8.51172C18.1761 8.51183 18.3022 8.56339 18.3956 8.65527C18.489 8.74734 18.543 8.8728 18.545 9.00391C18.547 9.1334 18.4977 9.25806 18.4093 9.35254C17.1987 10.5709 15.9822 11.7837 14.7589 12.9893L14.757 12.9922L14.7189 13.0293L10.7804 16.9121L10.4161 17.2715L10.4142 17.2734C10.14 17.5471 9.69534 17.5816 9.35071 17.3008L9.28333 17.2402L5.69153 13.3428C5.60336 13.2452 5.55779 13.1167 5.5636 12.9854C5.56954 12.8537 5.62689 12.729 5.72375 12.6396C5.82055 12.5505 5.94866 12.5032 6.0802 12.5078C6.17911 12.5113 6.27429 12.5438 6.35364 12.6006L6.42688 12.665L9.52161 16.0244L9.87122 16.4043L10.2394 16.042C11.4996 14.8027 12.7588 13.5619 14.0157 12.3193L14.0577 12.2773L14.0568 12.2764C15.275 11.0751 16.4881 9.86856 17.6945 8.65527C17.788 8.56339 17.914 8.51171 18.045 8.51172Z" fill="#F1F3F5" stroke="#F1F3F5"/>
</svg>
