<svg width="25" height="24" viewBox="0 0 25 24" fill="none" xmlns="http://www.w3.org/2000/svg">
<path d="M13.0527 8.5C13.1868 8.50001 13.3157 8.55327 13.4111 8.64746C13.4571 8.69283 13.4936 8.74705 13.5186 8.80664C13.5435 8.86623 13.5566 8.93053 13.5566 8.99512C13.5566 9.05952 13.5434 9.12318 13.5186 9.18262C13.4936 9.24219 13.4571 9.29643 13.4111 9.3418L13.4102 9.34277L11.083 11.6504L10.7246 12.0049L11.083 12.3604L13.4014 14.6572L13.4023 14.6582C13.4483 14.7036 13.4848 14.7578 13.5098 14.8174C13.5347 14.877 13.5479 14.9412 13.5479 15.0059C13.5478 15.0705 13.5347 15.1347 13.5098 15.1943C13.4848 15.2539 13.4483 15.3082 13.4023 15.3535H13.4014C13.3059 15.4478 13.1771 15.501 13.043 15.501C12.9088 15.5009 12.78 15.4478 12.6846 15.3535L9.73047 12.4238C9.6752 12.369 9.63054 12.3043 9.60059 12.2324C9.57062 12.1605 9.55566 12.0828 9.55566 12.0049C9.5557 11.9272 9.57072 11.8501 9.60059 11.7783C9.63055 11.7064 9.67515 11.6408 9.73047 11.5859L12.6943 8.64746C12.7898 8.55325 12.9186 8.5 13.0527 8.5Z" fill="#F1F3F5" stroke="#F1F3F5"/>
</svg>
