<svg width="25" height="24" viewBox="0 0 25 24" fill="none" xmlns="http://www.w3.org/2000/svg">
<path d="M12.0571 8.91602C12.1227 8.91606 12.188 8.92901 12.2485 8.9541C12.3092 8.97931 12.3652 9.01598 12.4116 9.0625L16.9595 13.6211C17.0627 13.7249 17.1206 13.8654 17.1206 14.0117C17.1205 14.1584 17.0612 14.2995 16.9575 14.4033C16.9064 14.4544 16.8456 14.4948 16.7788 14.5225C16.712 14.5501 16.6401 14.5645 16.5679 14.5645C16.4958 14.5643 16.4245 14.5501 16.3579 14.5225C16.2911 14.4947 16.2302 14.4535 16.1792 14.4023L12.4106 10.627L12.0571 10.2725L11.7036 10.627L7.93311 14.4023V14.4033C7.88187 14.4545 7.82033 14.4948 7.75342 14.5225C7.6866 14.55 7.61476 14.5645 7.54248 14.5645C7.39634 14.5643 7.25611 14.5058 7.15283 14.4023C7.10177 14.3512 7.06133 14.2904 7.03369 14.2236C7.00606 14.1568 6.99169 14.085 6.9917 14.0127C6.99175 13.9404 7.00602 13.8686 7.03369 13.8018C7.06144 13.7349 7.1026 13.6742 7.15381 13.623V13.6221L11.7017 9.0625L11.7026 9.06348L11.7036 9.0625C11.75 9.01612 11.8051 8.97922 11.8657 8.9541C11.9263 8.92903 11.9916 8.91602 12.0571 8.91602Z" fill="#F1F3F5" stroke="#F1F3F5"/>
</svg>
