<svg width="25" height="24" viewBox="0 0 25 24" fill="none" xmlns="http://www.w3.org/2000/svg">
<path d="M12.0458 9.5C12.1657 9.50023 12.2823 9.53605 12.3807 9.60156L12.4725 9.67676L15.4091 12.6377V12.6387C15.5031 12.734 15.5564 12.8622 15.5565 12.9961C15.5565 13.1302 15.5032 13.2591 15.4091 13.3545C15.3636 13.4004 15.3095 13.437 15.2499 13.4619C15.1902 13.4868 15.1261 13.5 15.0614 13.5C14.9968 13.5 14.9326 13.4868 14.8729 13.4619C14.8133 13.437 14.7592 13.4005 14.7137 13.3545L14.7128 13.3535L12.4061 11.0273L12.0516 10.6689L11.6962 11.0273L9.39832 13.3438L9.39734 13.3447C9.35212 13.3906 9.29761 13.4273 9.23816 13.4521C9.17874 13.477 9.11508 13.4902 9.05066 13.4902C8.98626 13.4902 8.92257 13.477 8.86316 13.4521C8.80371 13.4273 8.7492 13.3906 8.70398 13.3447L8.6405 13.2676C8.58582 13.1849 8.55652 13.0869 8.55652 12.9863C8.55656 12.8524 8.60881 12.7232 8.703 12.6279L11.6327 9.67383C11.7481 9.55741 11.896 9.50033 12.0458 9.5Z" fill="#F1F3F5" stroke="#F1F3F5"/>
</svg>
