<svg width="25" height="24" viewBox="0 0 25 24" fill="none" xmlns="http://www.w3.org/2000/svg">
<path d="M16.5695 8.9375C16.7158 8.93758 16.8566 8.99613 16.9601 9.09961C17.0633 9.20302 17.1211 9.34316 17.1212 9.48926C17.1212 9.63554 17.0634 9.77636 16.9601 9.87988L16.9591 9.88086L12.4093 14.4385C12.363 14.4849 12.3078 14.5217 12.2472 14.5469C12.1864 14.5721 12.1206 14.5859 12.0548 14.5859C11.9892 14.5859 11.924 14.572 11.8634 14.5469C11.8028 14.5217 11.7477 14.485 11.7013 14.4385L7.15442 9.88184L7.15344 9.88086C7.10206 9.82952 7.06114 9.76827 7.03333 9.70117C7.00557 9.63412 6.99133 9.56183 6.99133 9.48926C6.99139 9.41687 7.00566 9.34521 7.03333 9.27832C7.04723 9.24477 7.065 9.21266 7.08508 9.18262L7.15344 9.09863C7.20461 9.04742 7.26625 9.00721 7.33313 8.97949C7.39991 8.95187 7.4718 8.9375 7.54407 8.9375C7.61633 8.93755 7.68825 8.95182 7.755 8.97949C7.82173 9.00719 7.88264 9.04754 7.93372 9.09863L11.7013 12.875L12.0548 13.2295L12.4093 12.875L16.1779 9.09863L16.1788 9.09961C16.2824 8.99606 16.423 8.9375 16.5695 8.9375Z" fill="#F1F3F5" stroke="#F1F3F5"/>
</svg>
