<svg width="25" height="24" viewBox="0 0 25 24" fill="none" xmlns="http://www.w3.org/2000/svg">
<path d="M9.76257 6.61914C9.88975 6.6185 10.0126 6.66704 10.1044 6.75488V6.75586L14.6971 11.3477V11.3486C14.7909 11.4424 14.8436 11.5696 14.8436 11.7021C14.8436 11.8016 14.8141 11.8979 14.7596 11.9795L14.6971 12.0557L10.1083 16.6445C10.0161 16.7349 9.89167 16.7858 9.76257 16.7852C9.63359 16.7844 9.51005 16.7328 9.41882 16.6416C9.32763 16.5504 9.27602 16.4268 9.27527 16.2979C9.27463 16.1705 9.3239 16.0479 9.41199 15.9561L13.3114 12.0557L13.6649 11.7021L13.3114 11.3486L9.41199 7.44824C9.32385 7.35643 9.27463 7.23385 9.27527 7.10645C9.27598 6.97743 9.32759 6.85393 9.41882 6.7627C9.51006 6.67146 9.63356 6.61985 9.76257 6.61914Z" fill="#F1F3F5" stroke="#F1F3F5"/>
</svg>
