<svg
  width="25"
  height="24"
  viewBox="0 0 25 24"
  fill="none"
  xmlns="http://www.w3.org/2000/svg"
>
  <path
    d="M14.8284 17.0898C14.7638 17.0901 14.6997 17.0773 14.6399 17.0527C14.5801 17.0281 14.5255 16.992 14.4797 16.9463C14.434 16.9005 14.3979 16.846 14.3733 16.7861C14.3487 16.7263 14.3359 16.6623 14.3362 16.5977C14.3365 16.533 14.3501 16.4688 14.3752 16.4092C14.4005 16.3495 14.4374 16.2953 14.4836 16.25L14.4866 16.2461L18.387 12.3467L18.7405 11.9932L14.4905 7.74316L14.4299 7.66797C14.3778 7.5882 14.3504 7.49413 14.3508 7.39746C14.3515 7.26836 14.4031 7.145 14.4944 7.05371C14.5857 6.96244 14.709 6.91081 14.8381 6.91016C14.935 6.90969 15.0288 6.93795 15.1086 6.99023L15.1838 7.04981L19.7727 11.6387C19.8663 11.7324 19.9192 11.8597 19.9192 11.9922C19.9191 12.1246 19.8663 12.252 19.7727 12.3457L19.6262 12.4922L19.6262 12.4932L15.1799 16.9395L15.176 16.9424C15.1307 16.9886 15.0765 17.0255 15.0168 17.0508C14.9573 17.076 14.893 17.0895 14.8284 17.0898Z"
    fill="#F1F3F5"
    stroke="#F1F3F5"
  />
  <path
    d="M6.12329 17.0898C6.05868 17.0901 5.99458 17.0773 5.93481 17.0527C5.87498 17.0281 5.82041 16.992 5.77466 16.9463C5.7289 16.9005 5.69283 16.846 5.66821 16.7861C5.64362 16.7263 5.63081 16.6623 5.6311 16.5977C5.63143 16.533 5.64498 16.4688 5.67017 16.4092C5.6954 16.3495 5.73231 16.2953 5.77856 16.25L5.78149 16.2461L9.68188 12.3467L10.0354 11.9932L5.7854 7.74316L5.72485 7.66797C5.67275 7.5882 5.64528 7.49413 5.64575 7.39746C5.6464 7.26836 5.69802 7.145 5.78931 7.05371C5.88059 6.96244 6.00397 6.91081 6.13306 6.91016C6.22989 6.90969 6.3237 6.93795 6.40356 6.99023L6.47876 7.04981L11.0676 11.6387C11.1613 11.7324 11.2141 11.8597 11.2141 11.9922C11.214 12.1246 11.1613 12.252 11.0676 12.3457L10.9211 12.4922L10.9211 12.4932L6.47485 16.9395L6.47095 16.9424C6.42562 16.9886 6.37141 17.0255 6.31177 17.0508C6.25219 17.076 6.18797 17.0895 6.12329 17.0898Z"
    fill="#F1F3F5"
    stroke="#F1F3F5"
  />
</svg>
