<svg width="25" height="24" viewBox="0 0 25 24" fill="none" xmlns="http://www.w3.org/2000/svg">
<path d="M14.3591 6.60547C14.4237 6.6052 14.4878 6.618 14.5476 6.64258C14.6074 6.66721 14.662 6.70327 14.7078 6.74902C14.7535 6.7948 14.7896 6.84932 14.8142 6.90918C14.8388 6.96898 14.8516 7.033 14.8513 7.09766C14.851 7.16236 14.8374 7.22654 14.8123 7.28613C14.787 7.34578 14.7501 7.39998 14.7039 7.44531L14.7009 7.44922L10.8005 11.3486L10.447 11.7021L14.697 15.9521L14.7576 16.0273C14.8097 16.1071 14.8371 16.2012 14.8367 16.2979C14.836 16.427 14.7844 16.5503 14.6931 16.6416C14.6018 16.7329 14.4785 16.7845 14.3494 16.7852C14.2525 16.7856 14.1587 16.7574 14.0789 16.7051L14.0037 16.6455L9.41479 12.0566C9.32116 11.9629 9.26831 11.8356 9.26831 11.7031C9.26842 11.5707 9.32116 11.4433 9.41479 11.3496L9.56128 11.2031V11.2021L14.0076 6.75586L14.0115 6.75293C14.0568 6.70668 14.111 6.66977 14.1707 6.64453C14.2302 6.61936 14.2945 6.6058 14.3591 6.60547Z" fill="#F1F3F5" stroke="#F1F3F5"/>
</svg>
