<svg
  width="25"
  height="24"
  viewBox="0 0 25 24"
  fill="none"
  xmlns="http://www.w3.org/2000/svg"
>
  <path
    d="M10.0034 6.91016C10.068 6.90989 10.1321 6.92269 10.1919 6.94727C10.2517 6.9719 10.3063 7.00796 10.3521 7.05371C10.3978 7.09949 10.4339 7.154 10.4585 7.21387C10.4831 7.27367 10.4959 7.33768 10.4956 7.40234C10.4953 7.46705 10.4817 7.53122 10.4565 7.59082C10.4313 7.65047 10.3944 7.70467 10.3481 7.75L10.3452 7.75391L6.44482 11.6533L6.09131 12.0068L10.3413 16.2568L10.4019 16.332C10.454 16.4118 10.4814 16.5059 10.481 16.6025C10.4803 16.7316 10.4287 16.855 10.3374 16.9463C10.2461 17.0376 10.1227 17.0892 9.99365 17.0898C9.89681 17.0903 9.803 17.062 9.72314 17.0098L9.64795 16.9502L5.05908 12.3613C4.96544 12.2676 4.9126 12.1403 4.9126 12.0078C4.91271 11.8754 4.96544 11.748 5.05908 11.6543L5.20557 11.5078V11.5068L9.65186 7.06055L9.65576 7.05762C9.70109 7.01136 9.7553 6.97446 9.81494 6.94922C9.87452 6.92405 9.93874 6.91048 10.0034 6.91016Z"
    fill="#F1F3F5"
    stroke="#F1F3F5"
  />
  <path
    d="M18.7085 6.91016C18.7731 6.90989 18.8372 6.92269 18.897 6.94727C18.9568 6.9719 19.0114 7.00796 19.0571 7.05371C19.1029 7.09949 19.139 7.154 19.1636 7.21387C19.1882 7.27367 19.201 7.33768 19.2007 7.40234C19.2004 7.46705 19.1868 7.53122 19.1616 7.59082C19.1364 7.65047 19.0995 7.70467 19.0532 7.75L19.0503 7.75391L15.1499 11.6533L14.7964 12.0068L19.0464 16.2568L19.1069 16.332C19.159 16.4118 19.1865 16.5059 19.186 16.6025C19.1854 16.7316 19.1338 16.855 19.0425 16.9463C18.9512 17.0376 18.8278 17.0892 18.6987 17.0898C18.6019 17.0903 18.5081 17.062 18.4282 17.0098L18.353 16.9502L13.7642 12.3613C13.6705 12.2676 13.6177 12.1403 13.6177 12.0078C13.6178 11.8754 13.6705 11.748 13.7642 11.6543L13.9106 11.5078V11.5068L18.3569 7.06055L18.3608 7.05762C18.4062 7.01136 18.4604 6.97446 18.52 6.94922C18.5796 6.92405 18.6438 6.91048 18.7085 6.91016Z"
    fill="#F1F3F5"
    stroke="#F1F3F5"
  />
</svg>
