<svg width="25" height="24" viewBox="0 0 25 24" fill="none" xmlns="http://www.w3.org/2000/svg">
<path d="M11.0598 8.5C11.1602 8.50002 11.2575 8.52961 11.3401 8.58398L11.4182 8.64746L14.3821 11.5859C14.4374 11.6408 14.481 11.7064 14.511 11.7783C14.5409 11.8501 14.5568 11.9271 14.5569 12.0049C14.5569 12.0828 14.5409 12.1605 14.511 12.2324C14.481 12.3041 14.4372 12.3691 14.3821 12.4238L11.428 15.3535C11.3326 15.4478 11.2037 15.5009 11.0696 15.501C10.9354 15.501 10.8057 15.4479 10.7102 15.3535L10.6487 15.2793C10.6306 15.2526 10.6153 15.2242 10.6028 15.1943C10.5779 15.1347 10.5647 15.0705 10.5647 15.0059C10.5647 14.9412 10.5778 14.877 10.6028 14.8174C10.6277 14.7577 10.6642 14.7036 10.7102 14.6582L10.7112 14.6572L13.0295 12.3604L13.3879 12.0049L13.0295 11.6504L10.7024 9.34277L10.7014 9.3418L10.6399 9.26758C10.6219 9.24095 10.6065 9.21241 10.594 9.18262C10.5692 9.12317 10.556 9.05955 10.5559 8.99512C10.5559 8.93051 10.5691 8.86625 10.594 8.80664C10.6065 8.77683 10.6219 8.74833 10.6399 8.72168L10.7014 8.64746C10.7969 8.55325 10.9257 8.5 11.0598 8.5Z" fill="#F1F3F5" stroke="#F1F3F5"/>
</svg>
