<svg
  width="17"
  height="16"
  viewBox="0 0 17 16"
  fill="none"
  xmlns="http://www.w3.org/2000/svg"
>
  <path
    d="M12.113 10.9971L12.1101 10.998L12.1082 10.9961L12.1072 10.9971L11.0544 12.0488L8.0603 9.05469L9.11499 7.99902L12.113 10.9971ZM12.113 10.9971L12.114 10.999M12.113 10.9971L12.1111 10.998L12.1121 10.999H12.114M12.113 11.0029L12.1121 11.002L12.1101 11.001L12.1082 11.0029L12.1101 11.0049L12.113 11.0029ZM12.113 11.0029L12.114 11.001M12.113 11.0029L12.1111 11.001H12.114M12.114 11.001V10.999M12.114 11.001L12.1121 11L12.114 10.999M8.05054 9.05469V9.05566L5.05542 12.0488L4.00562 10.999L6.99976 8.00488L8.05054 9.05469ZM12.1042 5L10.1716 6.93457L8.05542 9.0498L7.00562 8L8.06128 6.94531L11.0544 3.9502L12.1042 5ZM8.04956 6.94434L6.99976 7.99414L4.00659 5.00098L5.0564 3.95117L8.04956 6.94434Z"
    fill="#93A4B7"
    stroke="#93A4B7"
    stroke-width="0.015625"
  />
</svg>
