<svg width="17" height="16" viewBox="0 0 17 16" fill="none" xmlns="http://www.w3.org/2000/svg">
<path d="M5.3894 2.66536V10.6654C5.3894 11.019 5.52988 11.3581 5.77993 11.6082C6.02998 11.8582 6.36912 11.9987 6.72274 11.9987H12.0561C12.4097 11.9987 12.7488 11.8582 12.9989 11.6082C13.2489 11.3581 13.3894 11.019 13.3894 10.6654V4.8267C13.3894 4.64907 13.3539 4.47324 13.285 4.30953C13.216 4.14582 13.1151 3.99753 12.9881 3.87336L10.7781 1.71203C10.529 1.46847 10.1945 1.33207 9.84607 1.33203H6.72274C6.36912 1.33203 6.02998 1.47251 5.77993 1.72256C5.52988 1.9726 5.3894 2.31174 5.3894 2.66536Z" stroke="#F1F3F5" stroke-width="1.5" stroke-linecap="round" stroke-linejoin="round"/>
<path d="M10.7228 11.9974V13.3307C10.7228 13.6844 10.5823 14.0235 10.3323 14.2735C10.0822 14.5236 9.74307 14.6641 9.38945 14.6641H4.05611C3.70249 14.6641 3.36335 14.5236 3.1133 14.2735C2.86325 14.0235 2.72278 13.6844 2.72278 13.3307V5.9974C2.72278 5.64377 2.86325 5.30464 3.1133 5.05459C3.36335 4.80454 3.70249 4.66406 4.05611 4.66406H5.38945" stroke="#F1F3F5" stroke-width="1.5" stroke-linecap="round" stroke-linejoin="round"/>
</svg>
