<svg width="24" height="24" viewBox="0 0 24 24" fill="none" xmlns="http://www.w3.org/2000/svg">
<path d="M10 11C10 10.7348 10.1054 10.4804 10.2929 10.2929C10.4804 10.1054 10.7348 10 11 10H13C13.2652 10 13.5196 10.1054 13.7071 10.2929C13.8946 10.4804 14 10.7348 14 11C14 11.2652 13.8946 11.5196 13.7071 11.7071C13.5196 11.8946 13.2652 12 13 12H11C10.7348 12 10.4804 11.8946 10.2929 11.7071C10.1054 11.5196 10 11.2652 10 11ZM11 14C10.7348 14 10.4804 14.1054 10.2929 14.2929C10.1054 14.4804 10 14.7348 10 15C10 15.2652 10.1054 15.5196 10.2929 15.7071C10.4804 15.8946 10.7348 16 11 16H13C13.2652 16 13.5196 15.8946 13.7071 15.7071C13.8946 15.5196 14 15.2652 14 15C14 14.7348 13.8946 14.4804 13.7071 14.2929C13.5196 14.1054 13.2652 14 13 14H11Z" fill="#F1F3F5"/>
<path fill-rule="evenodd" clip-rule="evenodd" d="M9.094 4.75C8.39115 4.00692 7.99966 3.02282 8 2H10C10 2.53043 10.2107 3.03914 10.5858 3.41421C10.9609 3.78929 11.4696 4 12 4C12.5304 4 13.0391 3.78929 13.4142 3.41421C13.7893 3.03914 14 2.53043 14 2H16C16.0003 3.02282 15.6089 4.00692 14.906 4.75C16.1891 5.46165 17.168 6.61738 17.659 8H19C19.2652 8 19.5196 8.10536 19.7071 8.29289C19.8946 8.48043 20 8.73478 20 9C20 9.26522 19.8946 9.51957 19.7071 9.70711C19.5196 9.89464 19.2652 10 19 10H18V12H19C19.2652 12 19.5196 12.1054 19.7071 12.2929C19.8946 12.4804 20 12.7348 20 13C20 13.2652 19.8946 13.5196 19.7071 13.7071C19.5196 13.8946 19.2652 14 19 14H18V16H19C19.2652 16 19.5196 16.1054 19.7071 16.2929C19.8946 16.4804 20 16.7348 20 17C20 17.2652 19.8946 17.5196 19.7071 17.7071C19.5196 17.8946 19.2652 18 19 18H17.659C17.2451 19.1703 16.4787 20.1835 15.4651 20.9001C14.4516 21.6167 13.2408 22.0015 11.9995 22.0015C10.7582 22.0015 9.54743 21.6167 8.53389 20.9001C7.52034 20.1835 6.75387 19.1703 6.34 18H5C4.73478 18 4.48043 17.8946 4.29289 17.7071C4.10536 17.5196 4 17.2652 4 17C4 16.7348 4.10536 16.4804 4.29289 16.2929C4.48043 16.1054 4.73478 16 5 16H6V14H5C4.73478 14 4.48043 13.8946 4.29289 13.7071C4.10536 13.5196 4 13.2652 4 13C4 12.7348 4.10536 12.4804 4.29289 12.2929C4.48043 12.1054 4.73478 12 5 12H6V10H5C4.73478 10 4.48043 9.89464 4.29289 9.70711C4.10536 9.51957 4 9.26522 4 9C4 8.73478 4.10536 8.48043 4.29289 8.29289C4.48043 8.10536 4.73478 8 5 8H6.341C6.83196 6.61738 7.81095 5.46165 9.094 4.75ZM8 16V10C8 8.93913 8.42143 7.92172 9.17157 7.17157C9.92172 6.42143 10.9391 6 12 6C13.0609 6 14.0783 6.42143 14.8284 7.17157C15.5786 7.92172 16 8.93913 16 10V16C16 17.0609 15.5786 18.0783 14.8284 18.8284C14.0783 19.5786 13.0609 20 12 20C10.9391 20 9.92172 19.5786 9.17157 18.8284C8.42143 18.0783 8 17.0609 8 16Z" fill="#F1F3F5"/>
</svg>
