<svg width="17" height="16" viewBox="0 0 17 16" fill="none" xmlns="http://www.w3.org/2000/svg">
<g clip-path="url(#clip0_122_3730)">
<path d="M13.3895 10.168L11.3895 10.168C11.3453 10.168 11.3026 10.1504 11.2714 10.1191C11.2402 10.0879 11.2225 10.0451 11.2225 10.001C11.2226 9.95704 11.2404 9.91494 11.2714 9.88379C11.3026 9.85253 11.3453 9.83496 11.3895 9.83496L13.3895 9.83496C13.6989 9.83496 13.9959 9.71196 14.2147 9.49316C14.4335 9.27437 14.5565 8.97739 14.5565 8.66797L14.5565 3.33496C14.5565 3.02562 14.4334 2.72854 14.2147 2.50977C13.9959 2.29097 13.6989 2.16797 13.3895 2.16797L2.72253 2.16797C2.41331 2.16806 2.11702 2.29115 1.89831 2.50977C1.67952 2.72856 1.55652 3.02555 1.55652 3.33496L1.55652 8.66797C1.55652 8.97739 1.67952 9.27437 1.89831 9.49317C2.117 9.71168 2.41339 9.83488 2.72253 9.83496L4.72253 9.83496C4.76674 9.83496 4.80944 9.85253 4.8407 9.88379C4.87178 9.91495 4.88944 9.95697 4.88953 10.001C4.88953 10.0452 4.87195 10.0879 4.8407 10.1191C4.80944 10.1504 4.76674 10.168 4.72253 10.168L2.72253 10.168C2.32483 10.1679 1.94322 10.0097 1.66199 9.72852C1.38078 9.44723 1.22253 9.06572 1.22253 8.66797L1.22253 3.33496C1.22253 2.93729 1.38089 2.55569 1.66199 2.27442C1.94321 1.99319 2.32483 1.83505 2.72253 1.83496L13.3895 1.83496C13.7874 1.83496 14.1688 1.99311 14.4501 2.27441C14.7313 2.5557 14.8895 2.93721 14.8895 3.33496L14.8895 8.66797C14.8895 9.06579 14.7314 9.44721 14.4501 9.72852C14.1688 10.0098 13.7874 10.168 13.3895 10.168ZM8.05652 7.50098C7.65869 7.50098 7.27728 7.34283 6.99597 7.06152C6.71467 6.78022 6.55652 6.3988 6.55652 6.00098C6.55658 5.70442 6.64469 5.41455 6.80945 5.16797C6.97426 4.92139 7.20828 4.72874 7.4823 4.61524C7.75625 4.50181 8.0577 4.47248 8.34851 4.53027C8.63948 4.58815 8.90729 4.73065 9.11706 4.94043C9.32684 5.15021 9.46934 5.41801 9.52722 5.70898C9.58501 5.9998 9.55569 6.30125 9.44226 6.5752C9.32876 6.84921 9.1361 7.08323 8.88953 7.24805C8.64294 7.41281 8.35308 7.50091 8.05652 7.50098ZM8.28406 7.14551C8.51019 7.10047 8.71766 6.98918 8.88074 6.82617C9.0439 6.66301 9.15506 6.45483 9.20007 6.22852C9.24501 6.0023 9.22193 5.76777 9.13367 5.55469C9.04535 5.34162 8.89576 5.15939 8.70398 5.03125C8.51227 4.90323 8.28704 4.83503 8.05652 4.83496C7.7471 4.83496 7.45011 4.95797 7.23132 5.17676C7.01271 5.39546 6.88961 5.69175 6.88953 6.00098C6.88953 6.23165 6.9577 6.4576 7.08581 6.64941C7.21392 6.84114 7.39626 6.99078 7.60925 7.0791C7.82243 7.1674 8.05775 7.19052 8.28406 7.14551ZM3.99206 6.15527C3.96174 6.14264 3.9361 6.12106 3.91785 6.09375C3.89953 6.06634 3.88953 6.03394 3.88953 6.00098C3.88961 5.95697 3.90728 5.91495 3.93835 5.88379C3.96961 5.85253 4.01232 5.83496 4.05652 5.83496C4.08916 5.83503 4.12111 5.84428 4.14831 5.86231C4.17568 5.88059 4.19722 5.90711 4.20984 5.9375C4.22245 5.96796 4.22603 6.00185 4.2196 6.03418C4.21313 6.06637 4.19693 6.09592 4.17371 6.11914C4.15042 6.14236 4.121 6.15862 4.08874 6.16504C4.05642 6.17147 4.02251 6.16789 3.99206 6.15527ZM12.0565 6.16797C12.0236 6.16797 11.9912 6.15796 11.9637 6.13965C11.9364 6.1214 11.9149 6.09575 11.9022 6.06543C11.8896 6.03498 11.886 6.00107 11.8925 5.96875C11.8989 5.9365 11.9151 5.90707 11.9384 5.88379C11.9616 5.86057 11.9911 5.84437 12.0233 5.83789C12.0556 5.83146 12.0895 5.83504 12.12 5.84766C12.1504 5.86028 12.1769 5.88181 12.1952 5.90918C12.2132 5.93638 12.2225 5.96834 12.2225 6.00098C12.2225 6.04518 12.205 6.08789 12.1737 6.11914C12.1425 6.15022 12.1005 6.16788 12.0565 6.16797ZM8.05652 14.168C8.01232 14.168 7.96961 14.1504 7.93835 14.1191C7.9071 14.0879 7.88953 14.0452 7.88953 14.001L7.88953 10.3213L7.02039 11.2705L6.67664 11.6484L6.67566 11.6475C6.64036 11.6828 6.59277 11.7031 6.54285 11.7031C6.49292 11.7031 6.44534 11.6828 6.41003 11.6475C6.37473 11.6122 6.35437 11.5646 6.35437 11.5146C6.35437 11.465 6.37504 11.4181 6.41003 11.3828L7.93152 9.8877C7.94676 9.87364 7.96395 9.86205 7.98328 9.85449L7.99402 9.84961L8.00476 9.8457C8.02089 9.83857 8.03888 9.83496 8.05652 9.83496C8.07404 9.83501 8.09127 9.83862 8.1073 9.8457L8.11804 9.84961L8.12878 9.85449L8.18347 9.88867L9.70398 11.3828C9.73846 11.418 9.75769 11.4653 9.75769 11.5146C9.75769 11.5644 9.7381 11.6122 9.703 11.6475C9.6677 11.6828 9.61914 11.7031 9.56921 11.7031C9.54449 11.7031 9.52036 11.6977 9.49792 11.6885L9.4364 11.6475L9.09167 11.2705L8.22253 10.3213L8.22253 14.001C8.22253 14.0452 8.20496 14.0879 8.17371 14.1191C8.14254 14.1502 8.10053 14.1679 8.05652 14.168Z" fill="#F1F3F5" stroke="#F1F3F5"/>
</g>
<defs>
<clipPath id="clip0_122_3730">
<rect width="16" height="16" fill="white" transform="translate(16.0562 16) rotate(180)"/>
</clipPath>
</defs>
</svg>
