<svg width="16" height="16" viewBox="0 0 16 16" fill="none" xmlns="http://www.w3.org/2000/svg">
<path fill-rule="evenodd" clip-rule="evenodd" d="M7.99992 1.33398C11.6819 1.33398 14.6666 4.31865 14.6666 8.00065C14.6666 11.6827 11.6819 14.6673 7.99992 14.6673C4.31792 14.6673 1.33325 11.6827 1.33325 8.00065C1.33325 4.31865 4.31792 1.33398 7.99992 1.33398ZM2.71392 8.71465C2.87059 9.87207 3.40269 10.9461 4.22857 11.772C5.05445 12.5979 6.1285 13.13 7.28592 13.2867C7.12935 12.129 6.59721 11.0547 5.77119 10.2287C4.94516 9.40269 3.87089 8.87056 2.71325 8.71398M13.2853 8.71398C12.1278 8.87066 11.0538 9.40275 10.2279 10.2286C9.40202 11.0545 8.86992 12.1286 8.71325 13.286C9.87067 13.1293 10.9447 12.5972 11.7706 11.7713C12.5965 10.9454 13.1286 9.8714 13.2853 8.71398ZM7.99992 4.90998C7.34458 6.25703 6.2563 7.34531 4.90925 8.00065C6.2563 8.65599 7.34458 9.74427 7.99992 11.0913C8.65526 9.74427 9.74354 8.65599 11.0906 8.00065C9.74354 7.34531 8.65526 6.25703 7.99992 4.90998ZM7.28592 2.71465C6.12832 2.87133 5.05411 3.4035 4.22811 4.2295C3.4021 5.05551 2.86993 6.12972 2.71325 7.28732C3.87111 7.13085 4.9456 6.59868 5.77177 5.77251C6.59794 4.94634 7.13012 3.87184 7.28659 2.71398M8.71458 2.71398C8.87126 3.8714 9.40336 4.94545 10.2292 5.77133C11.0551 6.59721 12.1292 7.12931 13.2866 7.28598C13.1298 6.12837 12.5976 5.05418 11.7714 4.22827C10.9453 3.40237 9.87091 2.87039 8.71325 2.71398" fill="#F1F3F5"/>
</svg>
