<svg width="17" height="17" viewBox="0 0 17 17" fill="none" xmlns="http://www.w3.org/2000/svg">
<path fill-rule="evenodd" clip-rule="evenodd" d="M11.5848 2.02722C11.7098 1.90224 11.8794 1.83203 12.0562 1.83203C12.2329 1.83203 12.4025 1.90224 12.5275 2.02722L14.5275 4.02722C14.6525 4.15224 14.7227 4.32178 14.7227 4.49856C14.7227 4.67533 14.6525 4.84487 14.5275 4.96989L8.52749 10.9699C8.40249 11.0949 8.23295 11.1652 8.05615 11.1652H6.05615C5.87934 11.1652 5.70977 11.095 5.58475 10.97C5.45972 10.8449 5.38949 10.6754 5.38949 10.4986V8.49856C5.38952 8.32176 5.45979 8.15222 5.58482 8.02722L11.5848 2.02722ZM6.72282 8.77456V9.83189H7.78015L13.1135 4.49856L12.0562 3.44122L6.72282 8.77456ZM2.05615 3.16522C2.05615 2.98841 2.12639 2.81884 2.25141 2.69382C2.37644 2.56879 2.54601 2.49856 2.72282 2.49856H7.38949C7.5663 2.49856 7.73587 2.56879 7.86089 2.69382C7.98591 2.81884 8.05615 2.98841 8.05615 3.16522C8.05615 3.34203 7.98591 3.5116 7.86089 3.63663C7.73587 3.76165 7.5663 3.83189 7.38949 3.83189H3.38949V13.1652H12.7228V9.16522C12.7228 8.98841 12.7931 8.81884 12.9181 8.69382C13.0431 8.56879 13.2127 8.49856 13.3895 8.49856C13.5663 8.49856 13.7359 8.56879 13.8609 8.69382C13.9859 8.81884 14.0562 8.98841 14.0562 9.16522V13.8319C14.0562 14.0087 13.9859 14.1783 13.8609 14.3033C13.7359 14.4283 13.5663 14.4986 13.3895 14.4986H2.72282C2.54601 14.4986 2.37644 14.4283 2.25141 14.3033C2.12639 14.1783 2.05615 14.0087 2.05615 13.8319V3.16522Z" fill="#F1F3F5"/>
</svg>
