<svg width="20" height="20" viewBox="0 0 20 20" fill="none" xmlns="http://www.w3.org/2000/svg">
<path d="M11.8767 15.9593L15.9357 15.9593M4.50619 12.7923C4.22323 13.0759 4.06428 13.4601 4.06421 13.8607V15.9863H6.20309C6.60393 15.9863 6.98817 15.8271 7.27154 15.543L15.493 7.21724C15.7759 6.93361 15.9347 6.54937 15.9347 6.1488C15.9347 5.74822 15.7759 5.36399 15.493 5.08035L14.8705 4.45654C14.7302 4.31608 14.5635 4.20467 14.38 4.12868C14.1965 4.05269 13.9999 4.01361 13.8013 4.01367C13.6027 4.01373 13.4061 4.05294 13.2227 4.12904C13.0392 4.20515 12.8726 4.31666 12.7323 4.4572L4.50619 12.7923Z" stroke="#F1F3F5" stroke-width="2" stroke-linecap="round" stroke-linejoin="round"/>
</svg>
