<svg
  width="16"
  height="16"
  viewBox="0 0 16 16"
  fill="none"
  xmlns="http://www.w3.org/2000/svg"
>
  <path
    d="M9.50132 12.7674L12.7485 12.7674M3.60493 10.2338C3.37856 10.4607 3.2514 10.7681 3.25134 11.0886V12.7891H4.96245C5.28312 12.7891 5.59051 12.6616 5.81721 12.4344L12.3944 5.7738C12.6207 5.54689 12.7478 5.2395 12.7478 4.91904C12.7478 4.59858 12.6207 4.29119 12.3944 4.06428L11.8964 3.56523C11.7841 3.45286 11.6507 3.36374 11.504 3.30295C11.3572 3.24215 11.1999 3.21089 11.041 3.21094C10.8821 3.21099 10.7248 3.24235 10.5781 3.30323C10.4314 3.36412 10.2981 3.45333 10.1858 3.56576L3.60493 10.2338Z"
    stroke="#F1F3F5"
    stroke-linecap="round"
    stroke-linejoin="round"
  />
</svg>
