<svg width="24" height="24" viewBox="0 0 24 24" fill="none" xmlns="http://www.w3.org/2000/svg">
<path d="M7.58984 5.13086H16.4102C16.6361 5.13089 16.8574 5.19622 17.0469 5.31934C17.2364 5.4425 17.3857 5.61864 17.4775 5.8252L19.5615 10.5127L19.5693 10.5312H20.4004C20.551 10.5314 20.6952 10.5909 20.8018 10.6973C20.9084 10.8039 20.9688 10.9488 20.9688 11.0996C20.9688 11.2505 20.9084 11.3953 20.8018 11.502C20.6952 11.6083 20.551 11.6679 20.4004 11.668H19.7686V17.6992C19.7686 18.0092 19.6459 18.3072 19.4268 18.5264C19.2076 18.7456 18.9096 18.8682 18.5996 18.8682H16.7998C16.49 18.8681 16.1928 18.7454 15.9736 18.5264C15.7545 18.3072 15.6309 18.0092 15.6309 17.6992V17.0684H8.36914V17.6992C8.36914 18.0092 8.24555 18.3072 8.02637 18.5264C7.80725 18.7454 7.51 18.8681 7.2002 18.8682H5.40039C5.09042 18.8682 4.79243 18.7456 4.57324 18.5264C4.35406 18.3072 4.23145 18.0092 4.23145 17.6992V11.668H3.59961C3.44905 11.6679 3.30478 11.6083 3.19824 11.502C3.09158 11.3953 3.03125 11.2505 3.03125 11.0996C3.03125 10.9488 3.09158 10.8039 3.19824 10.6973C3.30478 10.5909 3.44905 10.5314 3.59961 10.5312H4.43066L4.43848 10.5127L6.52246 5.8252C6.61429 5.61864 6.76358 5.4425 6.95312 5.31934C7.09531 5.22696 7.25538 5.16677 7.42188 5.14258L7.58984 5.13086ZM6.59961 12.8682C6.43233 12.8683 6.27161 12.9354 6.15332 13.0537C6.03518 13.1721 5.96875 13.3328 5.96875 13.5C5.96885 13.6673 6.03503 13.828 6.15332 13.9463C6.27161 14.0646 6.43233 14.1308 6.59961 14.1309H8.40039C8.56767 14.1308 8.72839 14.0646 8.84668 13.9463C8.96497 13.828 9.03115 13.6673 9.03125 13.5C9.03125 13.3328 8.96482 13.1721 8.84668 13.0537C8.72839 12.9354 8.56767 12.8683 8.40039 12.8682H6.59961ZM15.5996 12.8682C15.4323 12.8683 15.2716 12.9354 15.1533 13.0537C15.0352 13.1721 14.9688 13.3328 14.9688 13.5C14.9689 13.6673 15.035 13.828 15.1533 13.9463C15.2716 14.0646 15.4323 14.1308 15.5996 14.1309H17.4004C17.5677 14.1308 17.7284 14.0646 17.8467 13.9463C17.965 13.828 18.0311 13.6673 18.0312 13.5C18.0312 13.3328 17.9648 13.1721 17.8467 13.0537C17.7284 12.9354 17.5677 12.8683 17.4004 12.8682H15.5996ZM7.56152 6.28711L5.69434 10.4873L5.6748 10.5312H18.3252L18.3057 10.4873L16.4385 6.28711L16.4307 6.26855H7.56934L7.56152 6.28711Z" fill="#F1F3F5" stroke="#F1F3F5" stroke-width="0.0625"/>
</svg>
