<svg width="28" height="28" viewBox="0 0 28 28" fill="none" xmlns="http://www.w3.org/2000/svg">
<path d="M19.9053 4.08789C19.9812 4.09739 20.0546 4.12141 20.1211 4.15918C20.1876 4.19701 20.2459 4.24819 20.293 4.30859C20.3399 4.36898 20.3752 4.43797 20.3955 4.51172C20.4057 4.5487 20.4123 4.58693 20.415 4.625L20.4121 4.73926L19.9922 8.09473L19.9102 8.75H23.333C23.4877 8.75 23.6367 8.8115 23.7461 8.9209C23.8555 9.03029 23.917 9.17929 23.917 9.33398C23.9169 9.48849 23.8553 9.6368 23.7461 9.74609C23.6367 9.85549 23.4877 9.91699 23.333 9.91699H19.7656L19.7012 10.4277L18.7441 18.084H23.333C23.4877 18.084 23.6367 18.1455 23.7461 18.2549C23.8553 18.3642 23.917 18.5125 23.917 18.667C23.917 18.8215 23.8553 18.9698 23.7461 19.0791C23.6367 19.1885 23.4877 19.25 23.333 19.25H18.5986L18.5342 19.7617L18.0801 23.4062C18.0706 23.4822 18.0456 23.5555 18.0078 23.6221C17.97 23.6885 17.9197 23.747 17.8594 23.7939C17.7989 23.841 17.7292 23.8762 17.6553 23.8965C17.5816 23.9167 17.5045 23.9225 17.4287 23.9131C17.3527 23.9036 17.2785 23.8787 17.2119 23.8408C17.1455 23.803 17.087 23.7527 17.04 23.6924C16.993 23.6319 16.9578 23.5622 16.9375 23.4883C16.9173 23.4146 16.9125 23.3376 16.9219 23.2617L17.3418 19.9062L17.4238 19.25H9.26367L9.2002 19.7617L8.74512 23.4062C8.72587 23.5596 8.64642 23.699 8.52441 23.7939C8.40226 23.889 8.24731 23.9323 8.09375 23.9131C7.94022 23.8939 7.80011 23.8145 7.70508 23.6924C7.61015 23.5703 7.56788 23.4151 7.58691 23.2617L8.00781 19.9062L8.09082 19.25H4.66699C4.51228 19.25 4.3633 19.1885 4.25391 19.0791C4.14471 18.9697 4.08303 18.8215 4.08301 18.667C4.08301 18.5125 4.14474 18.3642 4.25391 18.2549C4.3633 18.1455 4.51228 18.084 4.66699 18.084H8.23438L8.29883 17.5723L9.17383 10.5723L9.25586 9.91699H4.66699C4.51228 9.91699 4.3633 9.85549 4.25391 9.74609C4.14468 9.6368 4.08311 9.48849 4.08301 9.33398C4.08301 9.17929 4.14453 9.03029 4.25391 8.9209C4.3633 8.8115 4.51228 8.75 4.66699 8.75H9.40137L9.46582 8.23926L9.91992 4.59473C9.92943 4.51876 9.95435 4.44546 9.99219 4.37891C10.0301 4.3123 10.0811 4.25308 10.1416 4.20605C10.202 4.15923 10.271 4.12472 10.3447 4.10449C10.4186 4.08422 10.4962 4.07833 10.5723 4.08789V4.08887C10.7255 4.10811 10.8651 4.18677 10.96 4.30859C11.0313 4.40026 11.0728 4.51086 11.0811 4.625L11.0781 4.73926L10.6582 8.09473L10.5762 8.75H18.7354L18.7988 8.23926L19.2539 4.59473C19.2731 4.44114 19.3524 4.30109 19.4746 4.20605C19.535 4.15915 19.604 4.1248 19.6777 4.10449C19.7516 4.08417 19.8292 4.07839 19.9053 4.08789ZM10.3682 10.4277L9.41113 18.084H17.5684L17.6318 17.5723L18.5068 10.5723L18.5889 9.91699H10.4316L10.3682 10.4277Z" fill="#F1F3F5" stroke="#F1F3F5" stroke-width="1.16667"/>
</svg>
