<svg width="28" height="28" viewBox="0 0 28 28" fill="none" xmlns="http://www.w3.org/2000/svg">
<path d="M19.983 3.46777C20.1374 3.48706 20.2868 3.53658 20.4215 3.61426C20.5561 3.69192 20.6742 3.79612 20.7682 3.91992C20.8621 4.04373 20.9299 4.18541 20.9684 4.33594C21.0069 4.48648 21.0157 4.64319 20.9928 4.79688H20.9918L20.9908 4.81152L20.6549 7.51074L20.5729 8.16602H23.3336C23.6428 8.1661 23.9391 8.28922 24.1578 8.50781C24.3766 8.72661 24.4996 9.02359 24.4996 9.33301C24.4996 9.64234 24.3766 9.93947 24.1578 10.1582C23.9392 10.3766 23.6427 10.4989 23.3336 10.499H20.2799L20.2155 11.0107L19.4879 16.8438L19.4059 17.499H23.3336C23.6427 17.4991 23.9392 17.6223 24.1578 17.8408C24.3766 18.0596 24.4996 18.3566 24.4996 18.666C24.4996 18.9754 24.3766 19.2724 24.1578 19.4912C23.9391 19.7097 23.6428 19.8329 23.3336 19.833H19.1129L19.0494 20.3438L18.6569 23.4775C18.6185 23.7845 18.4597 24.0639 18.2155 24.2539C18.0947 24.3478 17.9567 24.4174 17.8092 24.458C17.6616 24.4986 17.507 24.5092 17.3551 24.4902C17.2031 24.4712 17.0557 24.4224 16.9225 24.3467C16.7894 24.271 16.6727 24.1697 16.5787 24.0488C16.4848 23.928 16.4153 23.7901 16.3746 23.6426C16.334 23.495 16.3225 23.3404 16.3414 23.1885L16.6803 20.4883L16.7623 19.833H9.77991L9.71545 20.3438L9.32385 23.4775L9.3219 23.4912C9.30626 23.6459 9.26059 23.7961 9.18616 23.9326C9.11169 24.0692 9.00994 24.1892 8.88831 24.2861C8.76671 24.383 8.62684 24.455 8.47717 24.4971C8.32767 24.5391 8.17131 24.5505 8.01721 24.5312C7.86289 24.512 7.71347 24.4624 7.57874 24.3848C7.44399 24.3071 7.32608 24.203 7.23206 24.0791C7.13807 23.9552 7.06944 23.8137 7.03088 23.6631C6.99238 23.5126 6.98458 23.3558 7.00745 23.2021L7.0094 23.1875L7.34534 20.4883L7.42737 19.833H4.66663C4.35721 19.833 4.06022 19.71 3.84143 19.4912C3.62266 19.2724 3.49963 18.9754 3.49963 18.666C3.49965 18.3566 3.62266 18.0596 3.84143 17.8408C4.06022 17.6221 4.35722 17.499 4.66663 17.499H7.72034L7.78381 16.9883L8.51233 11.1553L8.59436 10.499H4.66663C4.35726 10.499 4.06021 10.3769 3.84143 10.1582C3.6227 9.93947 3.4997 9.64234 3.49963 9.33301C3.49963 9.02365 3.62272 8.72659 3.84143 8.50781C4.06022 8.28902 4.35721 8.16602 4.66663 8.16602H8.88733L8.95081 7.65527L9.34241 4.52148C9.38086 4.21476 9.53989 3.93597 9.78381 3.74609C10.028 3.5562 10.3382 3.47051 10.6451 3.50879C10.7971 3.52776 10.9437 3.57672 11.0768 3.65234C11.21 3.72803 11.3274 3.82929 11.4215 3.9502C11.5154 4.07094 11.5849 4.20897 11.6256 4.35645C11.6663 4.50405 11.6767 4.65862 11.6578 4.81055L11.3199 7.50977L11.2379 8.16602H18.2203L18.2838 7.65527L18.6764 4.52148L18.6774 4.50781C18.693 4.35309 18.7396 4.20293 18.8141 4.06641C18.8885 3.92999 18.9895 3.80978 19.111 3.71289C19.2325 3.61603 19.3725 3.54409 19.5221 3.50195C19.6718 3.45983 19.8287 3.44849 19.983 3.46777ZM10.8834 11.0107L10.1549 16.8438L10.0729 17.499H17.0543L17.1188 16.9883L17.8483 11.1553L17.9293 10.499H10.9479L10.8834 11.0107Z" fill="#F1F3F5" stroke="#F1F3F5" stroke-width="1.16667"/>
</svg>
