<svg
  width="24"
  height="25"
  viewBox="0 0 24 25"
  fill="none"
  xmlns="http://www.w3.org/2000/svg"
>
  <path
    d="M12 18.5V15.5M12 15.5V12.5M12 15.5H9M12 15.5H15M13 3.5H8.2C7.08 3.5 6.52 3.5 6.092 3.718C5.71569 3.90974 5.40974 4.21569 5.218 4.592C5 5.02 5 5.58 5 6.7V18.3C5 19.42 5 19.98 5.218 20.408C5.40974 20.7843 5.71569 21.0903 6.092 21.282C6.519 21.5 7.079 21.5 8.197 21.5H15.803C16.921 21.5 17.48 21.5 17.907 21.282C18.284 21.09 18.59 20.784 18.782 20.408C19 19.98 19 19.422 19 18.304V9.5M13 3.5C13.286 3.503 13.466 3.514 13.639 3.555C13.8443 3.605 14.037 3.685 14.217 3.795C14.419 3.919 14.592 4.092 14.937 4.438L18.063 7.563C18.409 7.909 18.581 8.081 18.705 8.283C18.815 8.46367 18.895 8.65633 18.945 8.861C18.985 9.034 18.997 9.215 19 9.5M13 3.5V6.3C13 7.42 13 7.98 13.218 8.408C13.4097 8.78431 13.7157 9.09026 14.092 9.282C14.519 9.5 15.079 9.5 16.197 9.5H19"
    stroke="#F1F3F5"
    stroke-width="2"
    stroke-linecap="round"
    stroke-linejoin="round"
  />
</svg>
