<svg width="16" height="16" viewBox="0 0 16 16" fill="none" xmlns="http://www.w3.org/2000/svg">
<path d="M4.5 2C4.01377 2 3.54745 2.19315 3.20364 2.53697C2.85982 2.88079 2.66667 3.3471 2.66667 3.83333V13.6667H2.5C2.36739 13.6667 2.24021 13.7193 2.14645 13.8131C2.05268 13.9069 2 14.0341 2 14.1667C2 14.2993 2.05268 14.4265 2.14645 14.5202C2.24021 14.614 2.36739 14.6667 2.5 14.6667H11.5C11.6326 14.6667 11.7598 14.614 11.8536 14.5202C11.9473 14.4265 12 14.2993 12 14.1667C12 14.0341 11.9473 13.9069 11.8536 13.8131C11.7598 13.7193 11.6326 13.6667 11.5 13.6667H11.3333V12.4647C11.6123 12.6081 11.9235 12.6774 12.237 12.6659C12.5505 12.6544 12.8558 12.5625 13.1236 12.3991C13.3913 12.2356 13.6126 12.006 13.766 11.7324C13.9195 11.4588 14.0001 11.1504 14 10.8367V6.94467C14 6.54799 13.8713 6.16201 13.6333 5.84467L12.9 4.86667C12.8204 4.76058 12.702 4.69045 12.5707 4.67169C12.4394 4.65294 12.3061 4.6871 12.2 4.76667C12.0939 4.84623 12.0238 4.96468 12.005 5.09596C11.9863 5.22723 12.0204 5.36058 12.1 5.46667L12.8333 6.44467C12.9413 6.58867 13 6.76467 13 6.94467V10.8367C13 10.9457 12.9785 11.0536 12.9368 11.1543C12.8951 11.255 12.834 11.3465 12.7569 11.4236C12.6798 11.5006 12.5883 11.5618 12.4876 11.6035C12.3869 11.6452 12.279 11.6667 12.17 11.6667C12.061 11.6667 11.9531 11.6452 11.8524 11.6035C11.7517 11.5618 11.6602 11.5006 11.5831 11.4236C11.506 11.3465 11.4449 11.255 11.4032 11.1543C11.3615 11.0536 11.34 10.9457 11.34 10.8367V9.66667C11.3394 9.63967 11.3372 9.61273 11.3333 9.586V3.83333C11.3333 3.59258 11.2859 3.35418 11.1938 3.13175C11.1016 2.90932 10.9666 2.70721 10.7964 2.53697C10.6261 2.36673 10.424 2.23169 10.2016 2.13955C9.97916 2.04742 9.74076 2 9.5 2H4.5ZM4.66667 4.5C4.66667 4.36739 4.71935 4.24021 4.81311 4.14645C4.90688 4.05268 5.03406 4 5.16667 4H8.83333C8.96594 4 9.09312 4.05268 9.18689 4.14645C9.28065 4.24021 9.33333 4.36739 9.33333 4.5V6.83333C9.33333 6.96594 9.28065 7.09312 9.18689 7.18689C9.09312 7.28065 8.96594 7.33333 8.83333 7.33333H5.16667C5.03406 7.33333 4.90688 7.28065 4.81311 7.18689C4.71935 7.09312 4.66667 6.96594 4.66667 6.83333V4.5Z" fill="#F1F3F5"/>
</svg>
