<svg
  width="21"
  height="20"
  viewBox="0 0 21 20"
  fill="none"
  xmlns="http://www.w3.org/2000/svg"
>
  <g clip-path="url(#clip0_124_3836)">
    <path d="M3.44434 2.5L18.4443 17.5L3.44434 2.5Z" fill="#F1F3F5" />
    <path
      d="M3.44434 2.5L18.4443 17.5"
      stroke="#F1F3F5"
      stroke-width="2"
      stroke-linecap="round"
      stroke-linejoin="round"
    />
    <path
      d="M8.2439 8.69629C8.00557 9.19026 7.90448 9.74186 7.95874 10.293C8.02681 10.9836 8.33227 11.6294 8.823 12.1201C9.31372 12.6108 9.95953 12.9163 10.6501 12.9844C11.2011 13.0386 11.752 12.9364 12.2458 12.6982L14.7957 15.248C13.7157 15.7973 12.4366 16.165 10.9441 16.165C8.37817 16.165 6.43316 15.079 5.05054 13.8369L4.78198 13.5869C3.80241 12.6347 2.99149 11.5232 2.38354 10.2998C2.33861 10.2057 2.31519 10.1024 2.31519 9.99805C2.31523 9.89248 2.33852 9.7874 2.38452 9.69238C2.99264 8.47066 3.8041 7.3611 4.78296 6.41016C4.97774 6.22228 5.18506 6.03681 5.40503 5.85645L8.2439 8.69629ZM10.9431 3.83203H10.9441C13.5106 3.83203 15.4551 4.91819 16.8376 6.16016L17.1072 6.41113C18.0867 7.36341 18.8978 8.47481 19.5056 9.69824C19.5503 9.79216 19.573 9.89497 19.573 9.99902C19.573 10.103 19.5503 10.2059 19.5056 10.2998C19.1259 11.0661 18.6643 11.7884 18.1316 12.4561L9.61011 3.93359C10.0506 3.86499 10.4964 3.83074 10.9431 3.83203Z"
      fill="#F1F3F5"
      stroke="#F1F3F5"
    />
  </g>
  <defs>
    <clipPath id="clip0_124_3836">
      <rect
        width="20"
        height="20"
        fill="white"
        transform="translate(0.944336)"
      />
    </clipPath>
  </defs>
</svg>
