<svg width="28" height="28" viewBox="0 0 28 28" fill="none" xmlns="http://www.w3.org/2000/svg">
<path d="M14 2.33301C14.1336 2.33301 14.2634 2.37887 14.3672 2.46289L23.7002 10.0469H23.7012C23.7685 10.1015 23.823 10.1708 23.8604 10.249C23.879 10.2881 23.8928 10.3291 23.9023 10.3711L23.917 10.5V23.333C23.9169 23.449 23.8818 23.5612 23.8184 23.6562L23.7461 23.7451C23.6367 23.8545 23.4877 23.916 23.333 23.916H17.5C17.3842 23.916 17.2718 23.8816 17.1768 23.8184L17.0879 23.7451C16.9786 23.6358 16.9171 23.4876 16.917 23.333V15.749H11.083V23.333C11.0829 23.4876 11.0214 23.6358 10.9121 23.7451C10.8027 23.8544 10.6546 23.916 10.5 23.916H4.66699C4.51228 23.916 4.3633 23.8545 4.25391 23.7451C4.14469 23.6358 4.08311 23.4875 4.08301 23.333V10.5C4.08306 10.4133 4.10239 10.3273 4.13965 10.249C4.17696 10.1708 4.23153 10.1015 4.29883 10.0469H4.2998L13.6318 2.46289L13.6328 2.46387C13.7367 2.3796 13.8662 2.33301 14 2.33301Z" fill="#F1F3F5" stroke="#F1F3F5" stroke-width="1.16667"/>
</svg>
