<svg
  width="24"
  height="24"
  viewBox="0 0 24 24"
  fill="none"
  xmlns="http://www.w3.org/2000/svg"
>
  <path
    d="M4.5 16.5C5.29565 16.5 6.05871 16.1839 6.62132 15.6213C7.18393 15.0587 7.5 14.2957 7.5 13.5C7.5 12.7044 7.18393 11.9413 6.62132 11.3787C6.05871 10.8161 5.29565 10.5 4.5 10.5C3.70435 10.5 2.94129 10.8161 2.37868 11.3787C1.81607 11.9413 1.5 12.7044 1.5 13.5C1.5 14.2957 1.81607 15.0587 2.37868 15.6213C2.94129 16.1839 3.70435 16.5 4.5 16.5ZM4.5 12C5.32725 12 6 12.6728 6 13.5C6 14.3273 5.32725 15 4.5 15C3.67275 15 3 14.3273 3 13.5C3 12.6728 3.67275 12 4.5 12ZM12.75 10.5L13.8105 9.4395L11.871 7.5L18.138 7.5C18.2921 7.93748 18.5778 8.31654 18.956 8.58512C19.3341 8.8537 19.7862 8.99862 20.25 9C21.4905 9 22.5 7.9905 22.5 6.75C22.5 5.5095 21.4905 4.5 20.25 4.5C19.7862 4.50138 19.3341 4.64631 18.956 4.91488C18.5778 5.18346 18.2921 5.56252 18.138 6L11.871 6L13.8105 4.0605L12.75 3L9 6.75L12.75 10.5ZM20.25 6C20.4431 6.00864 20.6254 6.09143 20.759 6.23114C20.8926 6.37084 20.9672 6.5567 20.9672 6.75C20.9672 6.9433 20.8926 7.12916 20.759 7.26886C20.6254 7.40857 20.4431 7.49136 20.25 7.5C20.0569 7.49136 19.8746 7.40857 19.741 7.26886C19.6074 7.12916 19.5328 6.9433 19.5328 6.75C19.5328 6.5567 19.6074 6.37084 19.741 6.23114C19.8746 6.09143 20.0569 6.00864 20.25 6ZM12.75 22.5L13.8105 21.4395L11.871 19.5L18.138 19.5C18.2921 19.9375 18.5778 20.3165 18.956 20.5851C19.3341 20.8537 19.7862 20.9986 20.25 21C21.4905 21 22.5 19.9905 22.5 18.75C22.5 17.5095 21.4905 16.5 20.25 16.5C19.7862 16.5014 19.3341 16.6463 18.956 16.9149C18.5778 17.1835 18.2921 17.5625 18.138 18L11.871 18L13.8105 16.0605L12.75 15L9 18.75L12.75 22.5ZM20.25 18C20.4431 18.0086 20.6254 18.0914 20.759 18.2311C20.8926 18.3708 20.9672 18.5567 20.9672 18.75C20.9672 18.9433 20.8926 19.1292 20.759 19.2689C20.6254 19.4086 20.4431 19.4914 20.25 19.5C20.0569 19.4914 19.8746 19.4086 19.741 19.2689C19.6074 19.1292 19.5328 18.9433 19.5328 18.75C19.5328 18.5567 19.6074 18.3708 19.741 18.2311C19.8746 18.0914 20.0569 18.0086 20.25 18Z"
    fill="#F1F3F5"
  />
</svg>
