<svg width="17" height="17" viewBox="0 0 17 17" fill="none" xmlns="http://www.w3.org/2000/svg">
<path d="M8.0564 2.50195C8.91231 2.50199 9.71109 2.66432 10.4578 2.98633C11.2142 3.31258 11.8663 3.75282 12.4187 4.30566C12.9714 4.85876 13.4118 5.51128 13.739 6.26758C14.0617 7.01348 14.2237 7.81187 14.2224 8.66797C14.2212 9.52506 14.059 10.3246 13.738 11.0713C13.4133 11.8267 12.9736 12.4785 12.4197 13.0312C11.8651 13.5846 11.2125 14.0248 10.4578 14.3516C9.71324 14.6738 8.91422 14.8358 8.0564 14.835C7.19929 14.835 6.39984 14.6726 5.65405 14.3506C4.89855 14.0243 4.24656 13.5843 3.69312 13.0312C3.13979 12.4783 2.69955 11.8262 2.37378 11.0703C2.05218 10.324 1.88982 9.52461 1.8894 8.66797C1.88904 7.81167 2.05141 7.01267 2.37378 6.2666C2.70049 5.51058 3.14061 4.85861 3.69312 4.30566C4.24556 3.7528 4.89761 3.31259 5.65405 2.98633C6.4009 2.66421 7.20025 2.50195 8.0564 2.50195ZM8.05737 7.50195C7.74151 7.50121 7.45343 7.61397 7.22729 7.84082C7.00214 8.06676 6.8894 8.35407 6.8894 8.66895V11.335C6.8894 11.65 7.00205 11.9378 7.22827 12.1641C7.45432 12.39 7.74143 12.5015 8.0564 12.501C8.37134 12.5009 8.65838 12.3892 8.88452 12.1631C9.1108 11.9368 9.22316 11.6494 9.22241 11.334V8.66895C9.22241 8.35386 9.11034 8.06585 8.88354 7.83984C8.65779 7.61489 8.37136 7.50272 8.05737 7.50195ZM8.0564 4.83496C7.74131 4.83496 7.4533 4.94801 7.22729 5.1748C7.00242 5.40057 6.89014 5.68702 6.8894 6.00098C6.88871 6.3168 7.00196 6.60474 7.22827 6.83105C7.45462 7.05724 7.74233 7.17042 8.05835 7.16895L8.05737 7.16797C8.37186 7.16766 8.65864 7.05587 8.88452 6.83008C9.11075 6.60385 9.22311 6.31627 9.22241 6.00098C9.22167 5.68694 9.10951 5.40059 8.88452 5.1748C8.65859 4.94809 8.37136 4.83504 8.0564 4.83496Z" fill="#F1F3F5" stroke="#F1F3F5"/>
</svg>
