<svg width="24" height="24" viewBox="0 0 24 24" fill="none" xmlns="http://www.w3.org/2000/svg">
<path d="M12.7502 3.0295V3.5975C12.7502 3.9315 12.8982 4.2475 13.1552 4.4615L14.2232 5.3515C14.6652 5.7205 14.7582 6.3615 14.4392 6.8415L13.9292 7.6075C13.6514 8.02371 13.2429 8.33548 12.7682 8.4935L12.6252 8.5415C12.4638 8.59545 12.317 8.68587 12.1963 8.80574C12.0755 8.9256 11.9841 9.07168 11.9289 9.23264C11.8738 9.39359 11.8565 9.56509 11.8784 9.73382C11.9003 9.90254 11.9608 10.0639 12.0552 10.2055C12.1422 10.3362 12.2004 10.484 12.226 10.6389C12.2516 10.7939 12.2439 10.9525 12.2035 11.1043C12.1632 11.256 12.091 11.3975 11.9918 11.5193C11.8926 11.641 11.7686 11.7403 11.6282 11.8105L9.00015 13.1245L9.42315 14.1835C9.50846 14.3986 9.51287 14.6373 9.43555 14.8554C9.35824 15.0735 9.20445 15.2561 9.00271 15.3695C8.80097 15.4828 8.56498 15.5191 8.33851 15.4717C8.11203 15.4242 7.91045 15.2963 7.77115 15.1115L7.09215 14.2055C6.97708 14.0522 6.82472 13.9308 6.64954 13.8528C6.47436 13.7749 6.28217 13.7431 6.09121 13.7603C5.90026 13.7775 5.71688 13.8433 5.55848 13.9513C5.40008 14.0593 5.27192 14.206 5.18615 14.3775L4.50015 15.7495L3.88815 15.9025M12.7502 3.0295C11.1692 2.89684 9.58129 3.18544 8.1473 3.86415C6.7133 4.54287 5.48421 5.58859 4.58455 6.89534C3.68489 8.20209 3.14664 9.72343 3.02434 11.3052C2.90204 12.887 3.20005 14.473 3.88815 15.9025M12.7502 3.0295C14.3178 3.16025 15.8239 3.70063 17.1181 4.59487C18.4124 5.48911 19.4496 6.70697 20.1265 8.12704C20.8033 9.54712 21.0962 11.1198 20.9757 12.6883C20.8553 14.2568 20.3259 15.7664 19.4402 17.0665L19.2632 16.5375C19.1137 16.0895 18.8271 15.6999 18.4439 15.4239C18.0607 15.1478 17.6004 14.9994 17.1282 14.9995H16.5002L16.1762 14.6755C16.0134 14.5125 15.8142 14.3905 15.5951 14.3196C15.3759 14.2487 15.143 14.2309 14.9156 14.2678C14.6882 14.3046 14.4728 14.3949 14.2872 14.5314C14.1016 14.6678 13.9511 14.8465 13.8482 15.0525L13.8122 15.1255C13.7133 15.3216 13.575 15.4953 13.4061 15.6357C13.2371 15.7761 13.0411 15.8802 12.8302 15.9415L11.8402 16.2235C11.2902 16.3805 10.9462 16.9255 11.0402 17.4905L11.1132 17.9285C11.1932 18.4025 11.6032 18.7495 12.0832 18.7495C12.9292 18.7495 13.6812 19.2915 13.9482 20.0945L14.1632 20.7375M3.88815 15.9025C4.78456 17.7663 6.29552 19.2645 8.16685 20.1451C10.0382 21.0256 12.1557 21.2349 14.1632 20.7375M14.1632 20.7375C16.3136 20.2052 18.1921 18.8985 19.4392 17.0675" stroke="#F1F3F5" stroke-width="2" stroke-linecap="round" stroke-linejoin="round"/>
</svg>
