<svg width="28" height="28" viewBox="0 0 28 28" fill="none" xmlns="http://www.w3.org/2000/svg">
<path d="M7 16.918C7.77355 16.918 8.51552 17.2255 9.0625 17.7725C9.60938 18.3194 9.91699 19.0615 9.91699 19.835C9.91691 20.6084 9.6094 21.3506 9.0625 21.8975C8.51553 22.4443 7.77347 22.751 7 22.751C6.22653 22.751 5.48447 22.4443 4.9375 21.8975C4.3906 21.3506 4.08309 20.6084 4.08301 19.835C4.08301 19.0615 4.39062 18.3194 4.9375 17.7725C5.48448 17.2255 6.22645 16.918 7 16.918ZM15.167 19.251H23.333C23.4877 19.251 23.6367 19.3125 23.7461 19.4219C23.8555 19.5313 23.917 19.6803 23.917 19.835C23.9169 19.9895 23.8553 20.1378 23.7461 20.2471C23.6367 20.3565 23.4877 20.418 23.333 20.418H15.167C15.0123 20.418 14.8633 20.3565 14.7539 20.2471C14.6447 20.1378 14.5831 19.9895 14.583 19.835C14.583 19.6803 14.6445 19.5313 14.7539 19.4219C14.8633 19.3125 15.0123 19.251 15.167 19.251ZM7 5.25098C7.77355 5.25098 8.51552 5.55849 9.0625 6.10547C9.60948 6.65245 9.91699 7.39442 9.91699 8.16797C9.91699 8.94152 9.60948 9.68349 9.0625 10.2305C8.51552 10.7774 7.77355 11.085 7 11.085C6.22645 11.085 5.48448 10.7774 4.9375 10.2305C4.39052 9.68349 4.08301 8.94152 4.08301 8.16797L4.09766 7.87988C4.16392 7.21212 4.45885 6.58412 4.9375 6.10547C5.41615 5.62682 6.04415 5.33188 6.71191 5.26562L7 5.25098ZM15.167 7.58496H23.333C23.4877 7.58496 23.6367 7.64646 23.7461 7.75586C23.8553 7.86522 23.917 8.01341 23.917 8.16797C23.917 8.32253 23.8553 8.47071 23.7461 8.58008C23.6367 8.68947 23.4877 8.75098 23.333 8.75098H15.167C15.0123 8.75098 14.8633 8.68948 14.7539 8.58008C14.6447 8.47071 14.583 8.32252 14.583 8.16797C14.583 8.01341 14.6447 7.86522 14.7539 7.75586C14.8633 7.64646 15.0123 7.58496 15.167 7.58496Z" fill="#F1F3F5" stroke="#F1F3F5" stroke-width="1.16667"/>
</svg>
