<svg width="25" height="25" viewBox="0 0 25 25" fill="none" xmlns="http://www.w3.org/2000/svg">
<path d="M17.7176 18.8335C17.1317 18.8335 16.6095 18.7319 16.1512 18.5286C15.6928 18.3214 15.3301 18.0165 15.063 17.6139C14.8 17.2074 14.6685 16.7012 14.6685 16.0953C14.6685 15.5852 14.7621 15.1567 14.9495 14.8099C15.1368 14.4632 15.3919 14.1842 15.7147 13.9729C16.0376 13.7617 16.4043 13.6022 16.8148 13.4946C17.2293 13.387 17.6638 13.3113 18.1181 13.2674C18.6522 13.2116 19.0827 13.1598 19.4095 13.112C19.7363 13.0602 19.9735 12.9845 20.121 12.8848C20.2684 12.7852 20.3422 12.6377 20.3422 12.4424V12.4065C20.3422 12.0279 20.2226 11.7349 19.9835 11.5277C19.7483 11.3204 19.4135 11.2168 18.979 11.2168C18.5207 11.2168 18.156 11.3184 17.885 11.5217C17.6139 11.721 17.4346 11.9721 17.3469 12.275L14.9913 12.0837C15.1109 11.5257 15.346 11.0434 15.6968 10.6368C16.0475 10.2263 16.4999 9.91144 17.0539 9.69222C17.6119 9.46902 18.2576 9.35742 18.991 9.35742C19.5012 9.35742 19.9894 9.41721 20.4558 9.53678C20.9261 9.65635 21.3426 9.84169 21.7053 10.0928C22.072 10.3439 22.361 10.6667 22.5722 11.0613C22.7834 11.4519 22.8891 11.9203 22.8891 12.4663V18.6602H20.4737V17.3867H20.402C20.2545 17.6737 20.0572 17.9268 19.8101 18.146C19.563 18.3612 19.266 18.5306 18.9193 18.6542C18.5725 18.7738 18.1719 18.8335 17.7176 18.8335ZM18.447 17.0758C18.8216 17.0758 19.1524 17.0021 19.4394 16.8546C19.7264 16.7032 19.9516 16.4999 20.115 16.2448C20.2784 15.9897 20.3601 15.7007 20.3601 15.3779V14.4034C20.2804 14.4552 20.1708 14.503 20.0313 14.5469C19.8958 14.5867 19.7423 14.6246 19.5709 14.6605C19.3995 14.6924 19.2282 14.7222 19.0568 14.7501C18.8854 14.7741 18.7299 14.796 18.5904 14.8159C18.2915 14.8598 18.0304 14.9295 17.8072 15.0252C17.584 15.1208 17.4107 15.2504 17.2871 15.4138C17.1635 15.5732 17.1018 15.7725 17.1018 16.0116C17.1018 16.3584 17.2273 16.6234 17.4784 16.8068C17.7335 16.9862 18.0563 17.0758 18.447 17.0758Z" fill="#F1F3F5"/>
<path d="M4.65861 18.6602H1.88452L6.11141 6.41602H9.44749L13.6684 18.6602H10.8943L7.82728 9.21401H7.73162L4.65861 18.6602ZM4.48522 13.8475H11.0378V15.8682H4.48522V13.8475Z" fill="#F1F3F5"/>
</svg>
