<svg width="24" height="24" viewBox="0 0 24 24" fill="none" xmlns="http://www.w3.org/2000/svg">
<path d="M11.9996 2.5C12.371 2.50014 12.7305 2.63084 13.0153 2.86914C13.3001 3.10765 13.4928 3.439 13.5582 3.80469L13.649 4.31738L14.1578 4.20508C14.3892 4.1539 14.6293 4.15513 14.86 4.20898C15.0905 4.26282 15.3062 4.36749 15.4908 4.51562C15.6755 4.66385 15.8249 4.85197 15.9274 5.06543C16.0298 5.27897 16.0835 5.51315 16.0836 5.75V9.31055L16.6754 9.2002C16.7862 9.17942 16.8962 9.16702 16.9996 9.16699C17.4196 9.16699 17.8228 9.33393 18.1198 9.63086C18.4165 9.92776 18.5836 10.3302 18.5836 10.75V14.917C18.5834 18.549 15.6317 21.5 11.9996 21.5C8.3677 21.4998 5.4168 18.5489 5.41663 14.917V7.83301C5.41661 7.59831 5.4684 7.36636 5.56897 7.1543C5.6696 6.94214 5.81679 6.75497 5.99866 6.60645C6.18042 6.45805 6.39292 6.35211 6.62073 6.2959C6.84871 6.23969 7.08695 6.23429 7.31702 6.28125L7.91663 6.4043V5.33301L7.92737 5.15039C7.94827 4.96949 8.0004 4.79289 8.08167 4.62891C8.1901 4.41021 8.3473 4.21902 8.54163 4.07129C8.73595 3.92358 8.96206 3.82332 9.20178 3.77734C9.44163 3.73138 9.68916 3.74119 9.92444 3.80664L10.3571 3.92676L10.5231 3.50977C10.7447 2.95296 11.261 2.55279 11.8756 2.50488L11.9996 2.5ZM11.9996 3.16699C11.4904 3.16717 11.0838 3.57379 11.0836 4.08301V10.667H10.4166V5.33301C10.4165 4.85556 10.0587 4.46753 9.59436 4.4209L9.49963 4.41699C8.99042 4.41717 8.58379 4.82379 8.58362 5.33301V11.5H7.91663V7.83301C7.91646 7.35556 7.55874 6.96753 7.09436 6.9209L6.99963 6.91699C6.49042 6.91717 6.08379 7.32379 6.08362 7.83301V14.917C6.0837 16.4861 6.70653 17.9911 7.81604 19.1006C8.92555 20.2101 10.4306 20.8329 11.9996 20.833C13.5687 20.833 15.0737 20.21 16.1832 19.1006C17.2927 17.9911 17.9165 16.4861 17.9166 14.917V10.75C17.9166 10.2405 17.5091 9.83301 16.9996 9.83301C16.4903 9.83318 16.0836 10.2406 16.0836 10.75V14.041C14.8254 14.2511 13.8359 15.2419 13.6256 16.5H12.9518C13.1266 15.2152 13.964 14.1427 15.1158 13.6416L15.4166 13.5107V5.75C15.4166 5.24053 15.0091 4.83301 14.4996 4.83301C13.9903 4.83318 13.5836 5.24063 13.5836 5.75V10.667H12.9166V4.08301C12.9165 3.60556 12.5587 3.21753 12.0944 3.1709L11.9996 3.16699Z" fill="#F1F3F5" stroke="#F1F3F5"/>
</svg>
