<svg
  width="28"
  height="28"
  viewBox="0 0 28 28"
  fill="none"
  xmlns="http://www.w3.org/2000/svg"
>
  <path
    d="M14.0002 2.91699C16.0788 2.91706 18.0867 3.67193 19.6506 5.04102C21.2146 6.41016 22.2282 8.30098 22.5032 10.3613L23.9114 20.9229C23.9223 21.0052 23.9159 21.0894 23.8918 21.1689C23.8678 21.2484 23.8264 21.3214 23.7717 21.3838C23.7171 21.4462 23.65 21.4969 23.5745 21.5312C23.4988 21.5656 23.4163 21.583 23.3333 21.583H19.0657L18.9026 21.8984C17.9294 23.7803 16.1228 25.0829 14.0002 25.083C11.8776 25.083 10.0712 23.7804 9.0979 21.8984L8.93481 21.583H4.66724C4.58422 21.583 4.50163 21.5655 4.42603 21.5312C4.35036 21.4969 4.28252 21.4463 4.22778 21.3838C4.17327 21.3214 4.13266 21.2482 4.10864 21.1689C4.09664 21.1292 4.08853 21.088 4.08521 21.0469L4.08911 20.9229L5.49731 10.3613C5.77226 8.30098 6.78586 6.41017 8.34985 5.04102C9.9138 3.67204 11.9218 2.91699 14.0002 2.91699ZM10.9866 22.5703C11.7953 23.4147 12.8634 23.916 14.0002 23.916C15.1369 23.9159 16.206 23.4144 17.0139 22.5693L17.9573 21.583H10.0413L10.9866 22.5703ZM14.0002 4.08301C12.204 4.08293 10.4689 4.73568 9.11743 5.91895C7.76613 7.10211 6.8899 8.7353 6.65259 10.5156L5.42114 19.7559L5.33228 20.416H22.6672L22.5793 19.7559L21.3469 10.5156C21.1096 8.73547 20.2342 7.10207 18.8831 5.91895C17.5317 4.73575 15.7964 4.083 14.0002 4.08301Z"
    fill="#F1F3F5"
    stroke="#F1F3F5"
    stroke-width="1.16667"
  />
</svg>
