<svg
  width="24"
  height="24"
  viewBox="0 0 24 24"
  fill="none"
  xmlns="http://www.w3.org/2000/svg"
>
  <path
    d="M19.5 9C18.7044 9 17.9413 9.31607 17.3787 9.87868C16.8161 10.4413 16.5 11.2044 16.5 12C16.5 12.7956 16.8161 13.5587 17.3787 14.1213C17.9413 14.6839 18.7044 15 19.5 15C20.2956 15 21.0587 14.6839 21.6213 14.1213C22.1839 13.5587 22.5 12.7956 22.5 12C22.5 11.2044 22.1839 10.4413 21.6213 9.87868C21.0587 9.31607 20.2956 9 19.5 9ZM19.5 13.5C18.6728 13.5 18 12.8273 18 12C18 11.1727 18.6728 10.5 19.5 10.5C20.3272 10.5 21 11.1727 21 12C21 12.8273 20.3272 13.5 19.5 13.5ZM11.25 15L10.1895 16.0605L12.129 18H5.862C5.70791 17.5625 5.42217 17.1835 5.04401 16.9149C4.66585 16.6463 4.21383 16.5014 3.75 16.5C2.5095 16.5 1.5 17.5095 1.5 18.75C1.5 19.9905 2.5095 21 3.75 21C4.21383 20.9986 4.66585 20.8537 5.04401 20.5851C5.42217 20.3165 5.70791 19.9375 5.862 19.5H12.129L10.1895 21.4395L11.25 22.5L15 18.75L11.25 15ZM3.75 19.5C3.55689 19.4914 3.37455 19.4086 3.24096 19.2689C3.10736 19.1292 3.0328 18.9433 3.0328 18.75C3.0328 18.5567 3.10736 18.3708 3.24096 18.2311C3.37455 18.0914 3.55689 18.0086 3.75 18C3.94311 18.0086 4.12545 18.0914 4.25904 18.2311C4.39264 18.3708 4.4672 18.5567 4.4672 18.75C4.4672 18.9433 4.39264 19.1292 4.25904 19.2689C4.12545 19.4086 3.94311 19.4914 3.75 19.5ZM11.25 3L10.1895 4.0605L12.129 6H5.862C5.70791 5.56252 5.42217 5.18346 5.04401 4.91488C4.66585 4.64631 4.21383 4.50138 3.75 4.5C2.5095 4.5 1.5 5.5095 1.5 6.75C1.5 7.9905 2.5095 9 3.75 9C4.21383 8.99862 4.66585 8.85369 5.04401 8.58512C5.42217 8.31654 5.70791 7.93748 5.862 7.5H12.129L10.1895 9.4395L11.25 10.5L15 6.75L11.25 3ZM3.75 7.5C3.55689 7.49136 3.37455 7.40857 3.24096 7.26886C3.10736 7.12916 3.0328 6.9433 3.0328 6.75C3.0328 6.5567 3.10736 6.37084 3.24096 6.23114C3.37455 6.09143 3.55689 6.00864 3.75 6C3.94311 6.00864 4.12545 6.09143 4.25904 6.23114C4.39264 6.37084 4.4672 6.5567 4.4672 6.75C4.4672 6.9433 4.39264 7.12916 4.25904 7.26886C4.12545 7.40857 3.94311 7.49136 3.75 7.5Z"
    fill="#F1F3F5"
  />
</svg>
