<svg width="16" height="16" viewBox="0 0 16 16" fill="none" xmlns="http://www.w3.org/2000/svg">
<path d="M12.988 7.25008L12.9866 7.25284H12.9839V7.25422L12.9832 8.74232H8.74884L8.74814 7.25008H12.988ZM12.988 7.25008L12.9901 7.25077M12.988 7.25008L12.9873 7.25215H12.9887L12.9901 7.25077M12.9922 7.25422H12.9908L12.9887 7.25491V7.25768H12.9915L12.9922 7.25422ZM12.9922 7.25422L12.9915 7.25215M12.9922 7.25422H12.9894L12.9915 7.25215M12.9915 7.25215L12.9901 7.25077M12.9915 7.25215L12.9894 7.25284L12.9901 7.25077M8.74193 8.74923L8.74262 8.74992L8.74124 12.9843H7.25659V8.74992L8.74193 8.74923ZM8.74124 3.01573L8.74262 5.75024L8.74193 8.74232H7.25728L7.25797 7.25008L7.25659 3.01573H8.74124ZM7.249 7.25768V8.74232H3.01602V7.25768H7.249Z" fill="#93A4B7" stroke="#93A4B7" stroke-width="0.015625"/>
</svg>
