<svg width="24" height="24" viewBox="0 0 24 24" fill="none" xmlns="http://www.w3.org/2000/svg">
<path fill-rule="evenodd" clip-rule="evenodd" d="M12 1.5C17.7984 1.5 22.5 6.20156 22.5 12C22.5 17.7984 17.7984 22.5 12 22.5C6.20156 22.5 1.5 17.7984 1.5 12C1.5 6.20156 6.20156 1.5 12 1.5Z" fill="#161E27"/>
<path d="M16.9883 11.2501L16.9869 11.2528H16.9841V11.2542L16.9834 12.7423H12.7491L12.7484 11.2501H16.9883ZM16.9883 11.2501L16.9903 11.2508M16.9883 11.2501L16.9876 11.2522H16.989L16.9903 11.2508M16.9924 11.2542H16.991L16.989 11.2549V11.2577H16.9917L16.9924 11.2542ZM16.9924 11.2542L16.9917 11.2522M16.9924 11.2542H16.9896L16.9917 11.2522M16.9917 11.2522L16.9903 11.2508M16.9917 11.2522L16.9896 11.2528L16.9903 11.2508M12.7422 12.7492L12.7429 12.7499L12.7415 16.9843H11.2568V12.7499L12.7422 12.7492ZM12.7415 7.01573L12.7429 9.75024L12.7422 12.7423H11.2575L11.2582 11.2501L11.2568 7.01573H12.7415ZM11.2492 11.2577V12.7423H7.01627V11.2577H11.2492Z" fill="#93A4B7" stroke="#93A4B7" stroke-width="0.015625"/>
</svg>
