<svg
  width="24"
  height="24"
  viewBox="0 0 24 24"
  fill="none"
  xmlns="http://www.w3.org/2000/svg"
>
  <path
    d="M12 15V17.4M7.20005 10.2V7.8C7.20005 6.52696 7.70576 5.30606 8.60594 4.40589C9.50611 3.50571 10.727 3 12 3C13.2731 3 14.494 3.50571 15.3942 4.40589C16.2943 5.30606 16.8 6.52696 16.8 7.8V10.2M6.00005 21H18C18.3183 21 18.6235 20.8736 18.8486 20.6485C19.0736 20.4235 19.2 20.1183 19.2 19.8V11.4C19.2 11.0817 19.0736 10.7765 18.8486 10.5515C18.6235 10.3264 18.3183 10.2 18 10.2H6.00005C5.68179 10.2 5.37656 10.3264 5.15152 10.5515C4.92648 10.7765 4.80005 11.0817 4.80005 11.4V19.8C4.80005 20.1183 4.92648 20.4235 5.15152 20.6485C5.37656 20.8736 5.68179 21 6.00005 21Z"
    stroke="#F1F3F5"
    stroke-width="2"
    stroke-linecap="round"
    stroke-linejoin="round"
  />
</svg>
