<svg width="20" height="20" viewBox="0 0 20 20" fill="none" xmlns="http://www.w3.org/2000/svg">
<path d="M10.0002 2.91016C10.2234 2.91021 10.4158 2.98683 10.5696 3.14062C10.7232 3.29442 10.7996 3.4862 10.7991 3.70898C10.7985 3.93163 10.7216 4.12318 10.5686 4.27734C10.4152 4.43178 10.2235 4.50772 10.0002 4.50684V4.50781C8.47731 4.50781 7.18312 5.0419 6.11255 6.1123C5.04191 7.18294 4.5076 8.47739 4.50806 10C4.50858 11.5225 5.0425 12.8167 6.11255 13.8877C7.1827 14.9588 8.47718 15.4931 10.0002 15.4922C11.5232 15.4912 12.8174 14.9569 13.8879 13.8877C14.9585 12.8185 15.4928 11.5244 15.4924 10C15.4924 9.77676 15.569 9.58505 15.7229 9.43164C15.8766 9.27852 16.0678 9.20181 16.2903 9.20117C16.5133 9.20065 16.7054 9.27745 16.8596 9.43164C17.0138 9.58586 17.0911 9.77734 17.0901 10L17.0813 10.3604C17.0406 11.1964 16.8567 11.9926 16.5305 12.748C16.1585 13.6096 15.6509 14.3635 15.0071 15.0078C14.3634 15.652 13.613 16.1597 12.7571 16.5312C11.8991 16.9037 10.9796 17.0898 10.0002 17.0898C9.03183 17.0898 8.1155 16.903 7.2522 16.5303C6.39064 16.1583 5.63727 15.6506 4.99341 15.0068C4.3495 14.3629 3.84104 13.6097 3.46899 12.748C3.09624 11.8848 2.91043 10.9684 2.9104 10C2.9104 9.02014 3.09613 8.10068 3.46899 7.24316C3.84107 6.38758 4.34963 5.63741 4.99341 4.99316C5.63732 4.34878 6.39051 3.84034 7.2522 3.46875C8.11543 3.09655 9.03191 2.91063 10.0002 2.91016Z" fill="#FED911" stroke="#FED911" stroke-width="0.2"/>
</svg>
