<svg width="16" height="16" viewBox="0 0 16 16" fill="none" xmlns="http://www.w3.org/2000/svg">
<path fill-rule="evenodd" clip-rule="evenodd" d="M7.33325 5.33532V8.00332C7.33325 8.18998 7.41059 8.35665 7.53392 8.47798L9.18059 10.1247C9.30586 10.2491 9.4753 10.319 9.65192 10.319C9.82853 10.319 9.99798 10.2491 10.1233 10.1247C10.2479 9.99935 10.318 9.82976 10.318 9.65298C10.318 9.47621 10.2479 9.30662 10.1233 9.18132L8.66659 7.72465V5.33665C8.66659 5.33576 8.66659 5.33487 8.66659 5.33398V4.00065C8.66659 3.82384 8.59635 3.65427 8.47132 3.52925C8.3463 3.40422 8.17673 3.33398 7.99992 3.33398C7.82311 3.33398 7.65354 3.40422 7.52851 3.52925C7.40349 3.65427 7.33325 3.82384 7.33325 4.00065V5.33532ZM7.99992 14.6673C4.31792 14.6673 1.33325 11.6827 1.33325 8.00065C1.33325 4.31865 4.31792 1.33398 7.99992 1.33398C11.6819 1.33398 14.6666 4.31865 14.6666 8.00065C14.6666 11.6827 11.6819 14.6673 7.99992 14.6673Z" fill="#F1F3F5"/>
</svg>
