<svg width="24" height="24" viewBox="0 0 24 24" fill="none" xmlns="http://www.w3.org/2000/svg">
<path d="M7.49988 8.40039L10.1477 9.96636C11.6912 10.8789 12.3077 10.8789 13.8521 9.96636L16.5 8.40039" stroke="#F1F3F5" stroke-width="2" stroke-linecap="round" stroke-linejoin="round"/>
<path d="M21 10.2234C20.9415 7.46403 20.9118 6.08345 19.893 5.06196C18.8742 4.04048 17.4558 4.00448 14.6198 3.93338C12.878 3.88939 11.1353 3.88939 9.39348 3.93338C6.55845 4.00448 5.14003 4.03958 4.12122 5.06196C3.10241 6.08435 3.07181 7.46403 3.01421 10.2234C2.99526 11.1089 2.99526 11.9947 3.01421 12.8801C3.07271 15.6395 3.10241 17.0201 4.12122 18.0415C5.14003 19.063 6.55755 19.0999 9.39348 19.171C9.96588 19.1848 10.5368 19.1944 11.1062 19.1998" stroke="#F1F3F5" stroke-width="2" stroke-linecap="round" stroke-linejoin="round"/>
<path d="M20.6968 15.5996C20.4552 15.0903 20.0814 14.6551 19.6143 14.3396C19.1473 14.024 18.6041 13.8395 18.0414 13.8054C17.4787 13.7713 16.9172 13.8887 16.4154 14.1456C15.9137 14.4024 15.49 14.7892 15.1886 15.2656C14.8873 15.7419 14.7193 16.2904 14.7021 16.8538C14.685 17.4173 14.8194 17.975 15.0913 18.4688C15.3631 18.9625 15.7625 19.3743 16.2478 19.6612C16.733 19.948 17.2864 20.0994 17.8501 20.0995C19.2766 20.0995 20.6131 19.15 21.0001 17.8495M20.6968 15.5996V13.3496M20.6968 15.5996L18.6853 15.7409" stroke="#F1F3F5" stroke-width="2" stroke-linecap="round" stroke-linejoin="round"/>
</svg>
