<svg width="24" height="25" viewBox="0 0 24 25" fill="none" xmlns="http://www.w3.org/2000/svg">
<path d="M20 20.4996V15.4996H15M4 4.49959V9.49959H9M19.938 11.4996C19.7287 9.837 19.0026 8.28209 17.8623 7.05423C16.7219 5.82638 15.2248 4.98756 13.5822 4.65612C11.9396 4.32468 10.2343 4.51734 8.70709 5.20694C7.17983 5.89654 5.90764 7.04825 5.07 8.49959M4.062 13.4996C4.27133 15.1622 4.99739 16.7171 6.13774 17.945C7.2781 19.1728 8.7752 20.0116 10.4178 20.3431C12.0604 20.6745 13.7657 20.4818 15.2929 19.7922C16.8202 19.1027 18.0924 17.9509 18.93 16.4996" stroke="#F1F3F5" stroke-width="2" stroke-linecap="round" stroke-linejoin="round"/>
</svg>
