<svg width="25" height="24" viewBox="0 0 25 24" fill="none" xmlns="http://www.w3.org/2000/svg">
<path fill-rule="evenodd" clip-rule="evenodd" d="M12.0562 1.5C17.8546 1.5 22.5562 6.20156 22.5562 12C22.5562 17.7984 17.8546 22.5 12.0562 22.5C6.25772 22.5 1.55615 17.7984 1.55615 12C1.55615 6.20156 6.25772 1.5 12.0562 1.5Z" fill="#161E27"/>
<path d="M16.1136 14.9971L16.1107 14.998L16.1088 14.9961L16.1078 14.9971L15.0551 16.0488L12.0609 13.0547L13.1156 11.999L16.1136 14.9971ZM16.1136 14.9971L16.1146 14.999M16.1136 14.9971L16.1117 14.998L16.1127 14.999H16.1146M16.1136 15.0029L16.1127 15.002L16.1107 15.001L16.1088 15.0029L16.1107 15.0049L16.1136 15.0029ZM16.1136 15.0029L16.1146 15.001M16.1136 15.0029L16.1117 15.001H16.1146M16.1146 15.001V14.999M16.1146 15.001L16.1127 15L16.1146 14.999M12.0511 13.0547V13.0557L9.05603 16.0488L8.00623 14.999L11.0004 12.0049L12.0511 13.0547ZM16.1049 9L14.1722 10.9346L12.056 13.0498L11.0062 12L12.0619 10.9453L15.0551 7.9502L16.1049 9ZM12.0502 10.9443L11.0004 11.9941L8.0072 9.00098L9.05701 7.95117L12.0502 10.9443Z" fill="#93A4B7" stroke="#93A4B7" stroke-width="0.015625"/>
</svg>
