<svg
  width="21"
  height="21"
  viewBox="0 0 21 21"
  fill="none"
  xmlns="http://www.w3.org/2000/svg"
>
  <path
    fill-rule="evenodd"
    clip-rule="evenodd"
    d="M9.22282 4.66571C8.56621 4.66571 7.91603 4.79504 7.3094 5.04632C6.70277 5.29759 6.15158 5.66589 5.68728 6.13018C5.22299 6.59447 4.85469 7.14567 4.60342 7.7523C4.35215 8.35892 4.22282 9.0091 4.22282 9.66571C4.22282 10.3223 4.35215 10.9725 4.60342 11.5791C4.85469 12.1858 5.22299 12.737 5.68728 13.2012C6.15158 13.6655 6.70277 14.0338 7.3094 14.2851C7.91603 14.5364 8.56621 14.6657 9.22282 14.6657C10.5489 14.6657 11.8207 14.1389 12.7584 13.2012C13.696 12.2636 14.2228 10.9918 14.2228 9.66571C14.2228 8.33963 13.696 7.06786 12.7584 6.13018C11.8207 5.1925 10.5489 4.66571 9.22282 4.66571ZM2.55615 9.66571C2.5563 8.60476 2.80967 7.55917 3.29519 6.61583C3.7807 5.67249 4.48435 4.85865 5.34766 4.24195C6.21096 3.62525 7.20898 3.22349 8.25878 3.07007C9.30858 2.91665 10.3798 3.016 11.3835 3.35986C12.3872 3.70372 13.2943 4.28216 14.0295 5.0471C14.7647 5.81205 15.3066 6.74141 15.6104 7.75794C15.9142 8.77448 15.9709 9.84883 15.776 10.8917C15.581 11.9346 15.14 12.9159 14.4895 13.754L17.312 16.5765C17.4638 16.7337 17.5478 16.9442 17.5459 17.1627C17.544 17.3812 17.4563 17.5902 17.3018 17.7447C17.1473 17.8992 16.9383 17.9869 16.7198 17.9888C16.5013 17.9907 16.2908 17.9067 16.1337 17.7549L13.3112 14.9324C12.3257 15.6975 11.1453 16.1707 9.90429 16.2982C8.66324 16.4257 7.41131 16.2025 6.29086 15.6538C5.17041 15.1051 4.22639 14.253 3.56617 13.1945C2.90595 12.1359 2.55601 10.9133 2.55615 9.66571Z"
    fill="#F1F3F5"
  />
</svg>
