<svg
  width="28"
  height="28"
  viewBox="0 0 28 28"
  fill="none"
  xmlns="http://www.w3.org/2000/svg"
>
  <path
    d="M11.5684 4.17578C12.946 3.97448 14.3518 4.10445 15.6689 4.55566C16.9863 5.00697 18.1767 5.76655 19.1416 6.77051C20.1065 7.77448 20.8181 8.99395 21.2168 10.3281C21.6155 11.6623 21.6905 13.0726 21.4346 14.4414C21.1787 15.8101 20.5998 17.0982 19.7461 18.1982L19.4307 18.6045L23.7383 22.9121C23.8444 23.022 23.9035 23.1695 23.9023 23.3223C23.901 23.4752 23.8396 23.6223 23.7314 23.7305C23.6233 23.8385 23.477 23.9 23.3242 23.9014C23.2095 23.9024 23.098 23.8689 23.0029 23.8076L22.9141 23.7373L18.6055 19.4287L18.1992 19.7441C16.9058 20.7483 15.3564 21.3697 13.7275 21.5371C12.0988 21.7044 10.4558 21.4115 8.98535 20.6914C7.51487 19.9713 6.27571 18.8531 5.40918 17.4639C4.54264 16.0745 4.08283 14.4695 4.08301 12.832C4.08322 11.4396 4.41648 10.0672 5.05371 8.8291C5.69089 7.59115 6.61417 6.52323 7.74707 5.71387C8.88016 4.90444 10.1905 4.37714 11.5684 4.17578ZM12.833 5.24902C11.8373 5.24907 10.8515 5.44517 9.93164 5.82617C9.01159 6.20727 8.17488 6.76555 7.4707 7.46973C6.76666 8.17381 6.20821 9.0098 5.82715 9.92969C5.44605 10.8497 5.25 11.8362 5.25 12.832C5.25 13.8279 5.44605 14.8143 5.82715 15.7344C6.20822 16.6543 6.76666 17.4903 7.4707 18.1943C8.17488 18.8985 9.01159 19.4568 9.93164 19.8379C10.8515 20.2189 11.8373 20.415 12.833 20.415C14.8441 20.415 16.7732 19.6164 18.1953 18.1943C19.6175 16.7722 20.417 14.8432 20.417 12.832C20.417 10.8208 19.6175 8.89188 18.1953 7.46973C16.7732 6.04767 14.8442 5.24902 12.833 5.24902Z"
    fill="#F1F3F5"
    stroke="#F1F3F5"
    stroke-width="1.16667"
  />
</svg>
