<svg
  width="25"
  height="24"
  viewBox="0 0 25 24"
  fill="none"
  xmlns="http://www.w3.org/2000/svg"
>
  <mask id="path-1-inside-1_504_34719" fill="white">
    <path
      fill-rule="evenodd"
      clip-rule="evenodd"
      d="M11.5767 3C11.4286 2.99998 11.2827 3.03652 11.1521 3.10638C11.0215 3.17625 10.9101 3.27728 10.8279 3.4005L9.55262 5.313L7.52672 4.845C7.37792 4.81075 7.22286 4.81492 7.07612 4.85712C6.92938 4.89931 6.79579 4.97815 6.68792 5.0862L5.47292 6.3012C5.36502 6.40917 5.28636 6.5428 5.24432 6.68953C5.20228 6.83627 5.19826 6.99128 5.23262 7.14L5.70062 9.1659L3.78722 10.4412C3.66399 10.5234 3.56297 10.6348 3.4931 10.7654C3.42324 10.896 3.3867 11.0419 3.38672 11.19V12.81C3.3867 12.9581 3.42324 13.104 3.4931 13.2346C3.56297 13.3652 3.66399 13.4766 3.78722 13.5588L5.69972 14.8341L5.23172 16.86C5.19747 17.0088 5.20164 17.1639 5.24384 17.3106C5.28603 17.4573 5.36486 17.5909 5.47292 17.6988L6.68792 18.9138C6.79588 19.0217 6.92952 19.1004 7.07625 19.1424C7.22298 19.1844 7.378 19.1885 7.52672 19.1541L9.55262 18.6861L10.8279 20.5995C10.9101 20.7227 11.0215 20.8237 11.1521 20.8936C11.2827 20.9635 11.4286 21 11.5767 21H13.1967C13.3449 21 13.4907 20.9635 13.6213 20.8936C13.7519 20.8237 13.8633 20.7227 13.9455 20.5995L15.2208 18.687L17.2467 19.155C17.3955 19.1892 17.5506 19.1851 17.6973 19.1429C17.8441 19.1007 17.9776 19.0219 18.0855 18.9138L19.3005 17.6988C19.4084 17.5908 19.4871 17.4572 19.5291 17.3105C19.5712 17.1637 19.5752 17.0087 19.5408 16.86L19.0728 14.8341L20.9862 13.5588C21.1094 13.4766 21.2105 13.3652 21.2803 13.2346C21.3502 13.104 21.3867 12.9581 21.3867 12.81V11.19C21.3867 11.0419 21.3502 10.896 21.2803 10.7654C21.2105 10.6348 21.1094 10.5234 20.9862 10.4412L19.0737 9.1659L19.5417 7.14C19.576 6.99121 19.5718 6.83614 19.5296 6.6894C19.4874 6.54267 19.4086 6.40908 19.3005 6.3012L18.0855 5.0862C17.9776 4.9783 17.8439 4.89964 17.6972 4.8576C17.5505 4.81557 17.3954 4.81154 17.2467 4.8459L15.2208 5.3139L13.9455 3.4005C13.8633 3.27728 13.7519 3.17625 13.6213 3.10638C13.4907 3.03652 13.3449 2.99998 13.1967 3H11.5767ZM10.7055 6.8295L12.0582 4.8H12.7152L14.0679 6.8295C14.1693 6.98169 14.3146 7.09939 14.4846 7.16692C14.6545 7.23445 14.841 7.2486 15.0192 7.2075L17.1657 6.7116L17.6751 7.221L17.1801 9.3675C17.139 9.54569 17.1532 9.73218 17.2207 9.90212C17.2882 10.0721 17.4059 10.2174 17.5581 10.3188L19.5867 11.6715V12.3285L17.5572 13.6812C17.405 13.7826 17.2873 13.9279 17.2198 14.0979C17.1523 14.2678 17.1381 14.4543 17.1792 14.6325L17.6751 16.779L17.1657 17.2884L15.0192 16.7934C14.841 16.7523 14.6545 16.7665 14.4846 16.834C14.3146 16.9015 14.1693 17.0192 14.0679 17.1714L12.7152 19.2H12.0582L10.7055 17.1705C10.6041 17.0183 10.4588 16.9006 10.2888 16.8331C10.1189 16.7656 9.93241 16.7514 9.75422 16.7925L7.60772 17.2884L7.09832 16.779L7.59332 14.6325C7.63442 14.4543 7.62027 14.2678 7.55274 14.0979C7.48521 13.9279 7.36751 13.7826 7.21532 13.6812L5.18672 12.3285V11.6715L7.21622 10.3188C7.36841 10.2174 7.48611 10.0721 7.55364 9.90212C7.62117 9.73218 7.63532 9.54569 7.59422 9.3675L7.09742 7.221L7.60682 6.7116L9.75332 7.2066C9.93151 7.2477 10.118 7.23355 10.2879 7.16602C10.4579 7.09849 10.6032 6.98079 10.7046 6.8286L10.7055 6.8295ZM8.78672 12C8.78672 11.0452 9.166 10.1295 9.84113 9.45442C10.5163 8.77928 11.4319 8.4 12.3867 8.4C13.3415 8.4 14.2572 8.77928 14.9323 9.45442C15.6074 10.1295 15.9867 11.0452 15.9867 12C15.9867 12.9548 15.6074 13.8705 14.9323 14.5456C14.2572 15.2207 13.3415 15.6 12.3867 15.6C11.4319 15.6 10.5163 15.2207 9.84113 14.5456C9.166 13.8705 8.78672 12.9548 8.78672 12ZM12.3867 10.2C11.9093 10.2 11.4515 10.3896 11.1139 10.7272C10.7764 11.0648 10.5867 11.5226 10.5867 12C10.5867 12.4774 10.7764 12.9352 11.1139 13.2728C11.4515 13.6104 11.9093 13.8 12.3867 13.8C12.8641 13.8 13.3219 13.6104 13.6595 13.2728C13.9971 12.9352 14.1867 12.4774 14.1867 12C14.1867 11.5226 13.9971 11.0648 13.6595 10.7272C13.3219 10.3896 12.8641 10.2 12.3867 10.2Z"
    />
  </mask>
  <path
    fill-rule="evenodd"
    clip-rule="evenodd"
    d="M11.5767 3C11.4286 2.99998 11.2827 3.03652 11.1521 3.10638C11.0215 3.17625 10.9101 3.27728 10.8279 3.4005L9.55262 5.313L7.52672 4.845C7.37792 4.81075 7.22286 4.81492 7.07612 4.85712C6.92938 4.89931 6.79579 4.97815 6.68792 5.0862L5.47292 6.3012C5.36502 6.40917 5.28636 6.5428 5.24432 6.68953C5.20228 6.83627 5.19826 6.99128 5.23262 7.14L5.70062 9.1659L3.78722 10.4412C3.66399 10.5234 3.56297 10.6348 3.4931 10.7654C3.42324 10.896 3.3867 11.0419 3.38672 11.19V12.81C3.3867 12.9581 3.42324 13.104 3.4931 13.2346C3.56297 13.3652 3.66399 13.4766 3.78722 13.5588L5.69972 14.8341L5.23172 16.86C5.19747 17.0088 5.20164 17.1639 5.24384 17.3106C5.28603 17.4573 5.36486 17.5909 5.47292 17.6988L6.68792 18.9138C6.79588 19.0217 6.92952 19.1004 7.07625 19.1424C7.22298 19.1844 7.378 19.1885 7.52672 19.1541L9.55262 18.6861L10.8279 20.5995C10.9101 20.7227 11.0215 20.8237 11.1521 20.8936C11.2827 20.9635 11.4286 21 11.5767 21H13.1967C13.3449 21 13.4907 20.9635 13.6213 20.8936C13.7519 20.8237 13.8633 20.7227 13.9455 20.5995L15.2208 18.687L17.2467 19.155C17.3955 19.1892 17.5506 19.1851 17.6973 19.1429C17.8441 19.1007 17.9776 19.0219 18.0855 18.9138L19.3005 17.6988C19.4084 17.5908 19.4871 17.4572 19.5291 17.3105C19.5712 17.1637 19.5752 17.0087 19.5408 16.86L19.0728 14.8341L20.9862 13.5588C21.1094 13.4766 21.2105 13.3652 21.2803 13.2346C21.3502 13.104 21.3867 12.9581 21.3867 12.81V11.19C21.3867 11.0419 21.3502 10.896 21.2803 10.7654C21.2105 10.6348 21.1094 10.5234 20.9862 10.4412L19.0737 9.1659L19.5417 7.14C19.576 6.99121 19.5718 6.83614 19.5296 6.6894C19.4874 6.54267 19.4086 6.40908 19.3005 6.3012L18.0855 5.0862C17.9776 4.9783 17.8439 4.89964 17.6972 4.8576C17.5505 4.81557 17.3954 4.81154 17.2467 4.8459L15.2208 5.3139L13.9455 3.4005C13.8633 3.27728 13.7519 3.17625 13.6213 3.10638C13.4907 3.03652 13.3449 2.99998 13.1967 3H11.5767ZM10.7055 6.8295L12.0582 4.8H12.7152L14.0679 6.8295C14.1693 6.98169 14.3146 7.09939 14.4846 7.16692C14.6545 7.23445 14.841 7.2486 15.0192 7.2075L17.1657 6.7116L17.6751 7.221L17.1801 9.3675C17.139 9.54569 17.1532 9.73218 17.2207 9.90212C17.2882 10.0721 17.4059 10.2174 17.5581 10.3188L19.5867 11.6715V12.3285L17.5572 13.6812C17.405 13.7826 17.2873 13.9279 17.2198 14.0979C17.1523 14.2678 17.1381 14.4543 17.1792 14.6325L17.6751 16.779L17.1657 17.2884L15.0192 16.7934C14.841 16.7523 14.6545 16.7665 14.4846 16.834C14.3146 16.9015 14.1693 17.0192 14.0679 17.1714L12.7152 19.2H12.0582L10.7055 17.1705C10.6041 17.0183 10.4588 16.9006 10.2888 16.8331C10.1189 16.7656 9.93241 16.7514 9.75422 16.7925L7.60772 17.2884L7.09832 16.779L7.59332 14.6325C7.63442 14.4543 7.62027 14.2678 7.55274 14.0979C7.48521 13.9279 7.36751 13.7826 7.21532 13.6812L5.18672 12.3285V11.6715L7.21622 10.3188C7.36841 10.2174 7.48611 10.0721 7.55364 9.90212C7.62117 9.73218 7.63532 9.54569 7.59422 9.3675L7.09742 7.221L7.60682 6.7116L9.75332 7.2066C9.93151 7.2477 10.118 7.23355 10.2879 7.16602C10.4579 7.09849 10.6032 6.98079 10.7046 6.8286L10.7055 6.8295ZM8.78672 12C8.78672 11.0452 9.166 10.1295 9.84113 9.45442C10.5163 8.77928 11.4319 8.4 12.3867 8.4C13.3415 8.4 14.2572 8.77928 14.9323 9.45442C15.6074 10.1295 15.9867 11.0452 15.9867 12C15.9867 12.9548 15.6074 13.8705 14.9323 14.5456C14.2572 15.2207 13.3415 15.6 12.3867 15.6C11.4319 15.6 10.5163 15.2207 9.84113 14.5456C9.166 13.8705 8.78672 12.9548 8.78672 12ZM12.3867 10.2C11.9093 10.2 11.4515 10.3896 11.1139 10.7272C10.7764 11.0648 10.5867 11.5226 10.5867 12C10.5867 12.4774 10.7764 12.9352 11.1139 13.2728C11.4515 13.6104 11.9093 13.8 12.3867 13.8C12.8641 13.8 13.3219 13.6104 13.6595 13.2728C13.9971 12.9352 14.1867 12.4774 14.1867 12C14.1867 11.5226 13.9971 11.0648 13.6595 10.7272C13.3219 10.3896 12.8641 10.2 12.3867 10.2Z"
    fill="#F1F3F5"
    stroke="#F1F3F5"
    stroke-width="2.33333"
    mask="url(#path-1-inside-1_504_34719)"
  />
</svg>
