<svg width="28" height="28" viewBox="0 0 28 28" fill="none" xmlns="http://www.w3.org/2000/svg">
<path d="M13.557 2.91504H14.4437C15.0104 2.91516 15.5388 3.19882 15.8529 3.66992V3.66895L17.184 5.66699L17.4076 6.00195L17.8002 5.91113L19.8412 5.44043C20.121 5.37586 20.4128 5.38367 20.6888 5.46289C20.9649 5.54214 21.2163 5.69041 21.4193 5.89355V5.89258L22.1049 6.58008L22.1058 6.58105C22.4667 6.94117 22.6425 7.44213 22.5931 7.94336L22.558 8.1582L22.0873 10.1982L21.9965 10.5908L22.3324 10.8145L24.3295 12.1465C24.8005 12.4606 25.0834 12.989 25.0834 13.5557V14.4424C25.0833 15.0091 24.8006 15.5375 24.3295 15.8516L22.3324 17.1826L21.9965 17.4062L22.0873 17.7988L22.559 19.8398C22.6235 20.1196 22.6157 20.4115 22.5365 20.6875C22.4771 20.8945 22.3785 21.0876 22.2474 21.2568L22.1058 21.418L21.4193 22.1045C21.2163 22.3076 20.9649 22.4559 20.6888 22.5352C20.4128 22.6144 20.121 22.6221 19.8412 22.5576L17.8002 22.0859L17.4076 21.9951L17.184 22.3311L15.8529 24.3281C15.6983 24.5601 15.4884 24.7503 15.2426 24.8818C14.9968 25.0133 14.7224 25.0821 14.4437 25.082H13.557C13.2782 25.0821 13.003 25.0134 12.7572 24.8818C12.573 24.7833 12.4094 24.6515 12.2738 24.4941L12.1478 24.3281L10.8158 22.332L10.5922 21.9961L10.1996 22.0869L8.15955 22.5586C7.87978 22.6231 7.58783 22.6154 7.31189 22.5361C7.03612 22.4569 6.78527 22.3084 6.5824 22.1055L6.58142 22.1045L5.89294 21.4189C5.69043 21.2159 5.54307 20.9642 5.46423 20.6885C5.40507 20.4814 5.38601 20.2657 5.40759 20.0527L5.44275 19.8408L5.91345 17.7998L6.0033 17.4072L5.66833 17.1836L3.67029 15.8525C3.43828 15.6979 3.24807 15.4881 3.11658 15.2422C2.98503 14.9962 2.91616 14.7213 2.91638 14.4424V13.5557C2.91638 12.9889 3.20006 12.4606 3.67126 12.1465L5.66736 10.8145L6.00232 10.5908L5.9115 10.1982L5.4408 8.1582C5.37662 7.87838 5.38472 7.58641 5.46423 7.31055C5.54379 7.03487 5.69174 6.78368 5.8949 6.58105L5.89587 6.58008L6.5824 5.89258C6.78549 5.68985 7.03698 5.54182 7.31287 5.46289C7.51983 5.40369 7.73572 5.38476 7.94861 5.40625L8.16052 5.44141L10.2015 5.91211L10.5941 6.00195L10.8177 5.66699L12.1478 3.66895C12.3024 3.43716 12.5116 3.24668 12.7572 3.11523C13.003 2.98369 13.2782 2.91496 13.557 2.91504ZM14.0004 9.33203C13.3875 9.33203 12.7804 9.45298 12.2142 9.6875C11.6481 9.92202 11.1339 10.2659 10.7006 10.6992C10.2672 11.1325 9.92336 11.6467 9.68884 12.2129C9.45432 12.7791 9.33337 13.3862 9.33337 13.999C9.33346 15.2366 9.82547 16.4237 10.7006 17.2988C11.5757 18.1738 12.7628 18.665 14.0004 18.665C15.2379 18.665 16.4251 18.1739 17.3002 17.2988C18.1753 16.4237 18.6663 15.2366 18.6664 13.999C18.6664 13.3863 18.5464 12.779 18.3119 12.2129C18.0774 11.6468 17.7334 11.1325 17.3002 10.6992C16.8668 10.2659 16.3517 9.92202 15.7855 9.6875C15.2195 9.45308 14.613 9.33207 14.0004 9.33203Z" fill="#F1F3F5" stroke="#F1F3F5" stroke-width="1.16667"/>
</svg>
