<svg
  width="28"
  height="28"
  viewBox="0 0 28 28"
  fill="none"
  xmlns="http://www.w3.org/2000/svg"
>
  <mask id="path-1-inside-1_23_126" fill="white">
    <path
      fill-rule="evenodd"
      clip-rule="evenodd"
      d="M12.95 2.33203C12.758 2.332 12.569 2.37937 12.3996 2.46994C12.2303 2.5605 12.0859 2.69146 11.9794 2.8512L10.3262 5.33036L7.70004 4.7237C7.50716 4.6793 7.30615 4.68471 7.11594 4.7394C6.92572 4.7941 6.75255 4.89629 6.61271 5.03636L5.03771 6.61136C4.89784 6.75132 4.79587 6.92455 4.74138 7.11476C4.68689 7.30497 4.68166 7.50591 4.72621 7.6987L5.33287 10.3249L2.85254 11.978C2.69281 12.0846 2.56184 12.229 2.47128 12.3983C2.38071 12.5676 2.33335 12.7567 2.33337 12.9487V15.0487C2.33335 15.2407 2.38071 15.4298 2.47128 15.5991C2.56184 15.7684 2.69281 15.9128 2.85254 16.0194L5.33171 17.6725L4.72504 20.2987C4.68064 20.4916 4.68605 20.6926 4.74075 20.8828C4.79545 21.073 4.89764 21.2462 5.03771 21.386L6.61271 22.961C6.75266 23.1009 6.92589 23.2029 7.1161 23.2574C7.30631 23.3119 7.50726 23.3171 7.70004 23.2725L10.3262 22.6659L11.9794 25.1462C12.0859 25.3059 12.2303 25.4369 12.3996 25.5275C12.569 25.618 12.758 25.6654 12.95 25.6654H15.05C15.2421 25.6654 15.4311 25.618 15.6005 25.5275C15.7698 25.4369 15.9141 25.3059 16.0207 25.1462L17.6739 22.667L20.3 23.2737C20.4929 23.3181 20.6939 23.3127 20.8841 23.258C21.0744 23.2033 21.2475 23.1011 21.3874 22.961L22.9624 21.386C23.1022 21.2461 23.2042 21.0728 23.2587 20.8826C23.3132 20.6924 23.3184 20.4915 23.2739 20.2987L22.6672 17.6725L25.1475 16.0194C25.3073 15.9128 25.4382 15.7684 25.5288 15.5991C25.6194 15.4298 25.6667 15.2407 25.6667 15.0487V12.9487C25.6667 12.7567 25.6194 12.5676 25.5288 12.3983C25.4382 12.229 25.3073 12.0846 25.1475 11.978L22.6684 10.3249L23.275 7.6987C23.3194 7.50582 23.314 7.30481 23.2593 7.11459C23.2046 6.92438 23.1024 6.7512 22.9624 6.61136L21.3874 5.03636C21.2474 4.8965 21.0742 4.79453 20.884 4.74003C20.6938 4.68554 20.4928 4.68032 20.3 4.72486L17.6739 5.33153L16.0207 2.8512C15.9141 2.69146 15.7698 2.5605 15.6005 2.46994C15.4311 2.37937 15.2421 2.332 15.05 2.33203H12.95ZM11.8207 7.2962L13.5742 4.66536H14.4259L16.1794 7.2962C16.3108 7.49348 16.4992 7.64605 16.7195 7.73359C16.9398 7.82113 17.1816 7.83948 17.4125 7.7862L20.195 7.14336L20.8554 7.8037L20.2137 10.5862C20.1604 10.8172 20.1788 11.0589 20.2663 11.2792C20.3539 11.4995 20.5064 11.6879 20.7037 11.8194L23.3334 13.5729V14.4245L20.7025 16.178C20.5053 16.3095 20.3527 16.4979 20.2651 16.7182C20.1776 16.9385 20.1593 17.1802 20.2125 17.4112L20.8554 20.1937L20.195 20.854L17.4125 20.2124C17.1816 20.1591 16.9398 20.1774 16.7195 20.265C16.4992 20.3525 16.3108 20.5051 16.1794 20.7024L14.4259 23.332H13.5742L11.8207 20.7012C11.6893 20.5039 11.5009 20.3513 11.2806 20.2638C11.0603 20.1763 10.8185 20.1579 10.5875 20.2112L7.80504 20.854L7.14471 20.1937L7.78637 17.4112C7.83965 17.1802 7.8213 16.9385 7.73377 16.7182C7.64623 16.4979 7.49366 16.3095 7.29637 16.178L4.66671 14.4245V13.5729L7.29754 11.8194C7.49483 11.6879 7.6474 11.4995 7.73493 11.2792C7.82247 11.0589 7.84082 10.8172 7.78754 10.5862L7.14354 7.8037L7.80387 7.14336L10.5864 7.78503C10.8174 7.83831 11.0591 7.81996 11.2794 7.73242C11.4997 7.64489 11.6881 7.49232 11.8195 7.29503L11.8207 7.2962ZM9.33337 13.9987C9.33337 12.761 9.82504 11.574 10.7002 10.6989C11.5754 9.8237 12.7624 9.33203 14 9.33203C15.2377 9.33203 16.4247 9.8237 17.2999 10.6989C18.175 11.574 18.6667 12.761 18.6667 13.9987C18.6667 15.2364 18.175 16.4234 17.2999 17.2985C16.4247 18.1737 15.2377 18.6654 14 18.6654C12.7624 18.6654 11.5754 18.1737 10.7002 17.2985C9.82504 16.4234 9.33337 15.2364 9.33337 13.9987ZM14 11.6654C13.3812 11.6654 12.7877 11.9112 12.3501 12.3488C11.9125 12.7864 11.6667 13.3799 11.6667 13.9987C11.6667 14.6175 11.9125 15.211 12.3501 15.6486C12.7877 16.0862 13.3812 16.332 14 16.332C14.6189 16.332 15.2124 16.0862 15.65 15.6486C16.0875 15.211 16.3334 14.6175 16.3334 13.9987C16.3334 13.3799 16.0875 12.7864 15.65 12.3488C15.2124 11.9112 14.6189 11.6654 14 11.6654Z"
    />
  </mask>
  <path
    fill-rule="evenodd"
    clip-rule="evenodd"
    d="M12.95 2.33203C12.758 2.332 12.569 2.37937 12.3996 2.46994C12.2303 2.5605 12.0859 2.69146 11.9794 2.8512L10.3262 5.33036L7.70004 4.7237C7.50716 4.6793 7.30615 4.68471 7.11594 4.7394C6.92572 4.7941 6.75255 4.89629 6.61271 5.03636L5.03771 6.61136C4.89784 6.75132 4.79587 6.92455 4.74138 7.11476C4.68689 7.30497 4.68166 7.50591 4.72621 7.6987L5.33287 10.3249L2.85254 11.978C2.69281 12.0846 2.56184 12.229 2.47128 12.3983C2.38071 12.5676 2.33335 12.7567 2.33337 12.9487V15.0487C2.33335 15.2407 2.38071 15.4298 2.47128 15.5991C2.56184 15.7684 2.69281 15.9128 2.85254 16.0194L5.33171 17.6725L4.72504 20.2987C4.68064 20.4916 4.68605 20.6926 4.74075 20.8828C4.79545 21.073 4.89764 21.2462 5.03771 21.386L6.61271 22.961C6.75266 23.1009 6.92589 23.2029 7.1161 23.2574C7.30631 23.3119 7.50726 23.3171 7.70004 23.2725L10.3262 22.6659L11.9794 25.1462C12.0859 25.3059 12.2303 25.4369 12.3996 25.5275C12.569 25.618 12.758 25.6654 12.95 25.6654H15.05C15.2421 25.6654 15.4311 25.618 15.6005 25.5275C15.7698 25.4369 15.9141 25.3059 16.0207 25.1462L17.6739 22.667L20.3 23.2737C20.4929 23.3181 20.6939 23.3127 20.8841 23.258C21.0744 23.2033 21.2475 23.1011 21.3874 22.961L22.9624 21.386C23.1022 21.2461 23.2042 21.0728 23.2587 20.8826C23.3132 20.6924 23.3184 20.4915 23.2739 20.2987L22.6672 17.6725L25.1475 16.0194C25.3073 15.9128 25.4382 15.7684 25.5288 15.5991C25.6194 15.4298 25.6667 15.2407 25.6667 15.0487V12.9487C25.6667 12.7567 25.6194 12.5676 25.5288 12.3983C25.4382 12.229 25.3073 12.0846 25.1475 11.978L22.6684 10.3249L23.275 7.6987C23.3194 7.50582 23.314 7.30481 23.2593 7.11459C23.2046 6.92438 23.1024 6.7512 22.9624 6.61136L21.3874 5.03636C21.2474 4.8965 21.0742 4.79453 20.884 4.74003C20.6938 4.68554 20.4928 4.68032 20.3 4.72486L17.6739 5.33153L16.0207 2.8512C15.9141 2.69146 15.7698 2.5605 15.6005 2.46994C15.4311 2.37937 15.2421 2.332 15.05 2.33203H12.95ZM11.8207 7.2962L13.5742 4.66536H14.4259L16.1794 7.2962C16.3108 7.49348 16.4992 7.64605 16.7195 7.73359C16.9398 7.82113 17.1816 7.83948 17.4125 7.7862L20.195 7.14336L20.8554 7.8037L20.2137 10.5862C20.1604 10.8172 20.1788 11.0589 20.2663 11.2792C20.3539 11.4995 20.5064 11.6879 20.7037 11.8194L23.3334 13.5729V14.4245L20.7025 16.178C20.5053 16.3095 20.3527 16.4979 20.2651 16.7182C20.1776 16.9385 20.1593 17.1802 20.2125 17.4112L20.8554 20.1937L20.195 20.854L17.4125 20.2124C17.1816 20.1591 16.9398 20.1774 16.7195 20.265C16.4992 20.3525 16.3108 20.5051 16.1794 20.7024L14.4259 23.332H13.5742L11.8207 20.7012C11.6893 20.5039 11.5009 20.3513 11.2806 20.2638C11.0603 20.1763 10.8185 20.1579 10.5875 20.2112L7.80504 20.854L7.14471 20.1937L7.78637 17.4112C7.83965 17.1802 7.8213 16.9385 7.73377 16.7182C7.64623 16.4979 7.49366 16.3095 7.29637 16.178L4.66671 14.4245V13.5729L7.29754 11.8194C7.49483 11.6879 7.6474 11.4995 7.73493 11.2792C7.82247 11.0589 7.84082 10.8172 7.78754 10.5862L7.14354 7.8037L7.80387 7.14336L10.5864 7.78503C10.8174 7.83831 11.0591 7.81996 11.2794 7.73242C11.4997 7.64489 11.6881 7.49232 11.8195 7.29503L11.8207 7.2962ZM9.33337 13.9987C9.33337 12.761 9.82504 11.574 10.7002 10.6989C11.5754 9.8237 12.7624 9.33203 14 9.33203C15.2377 9.33203 16.4247 9.8237 17.2999 10.6989C18.175 11.574 18.6667 12.761 18.6667 13.9987C18.6667 15.2364 18.175 16.4234 17.2999 17.2985C16.4247 18.1737 15.2377 18.6654 14 18.6654C12.7624 18.6654 11.5754 18.1737 10.7002 17.2985C9.82504 16.4234 9.33337 15.2364 9.33337 13.9987ZM14 11.6654C13.3812 11.6654 12.7877 11.9112 12.3501 12.3488C11.9125 12.7864 11.6667 13.3799 11.6667 13.9987C11.6667 14.6175 11.9125 15.211 12.3501 15.6486C12.7877 16.0862 13.3812 16.332 14 16.332C14.6189 16.332 15.2124 16.0862 15.65 15.6486C16.0875 15.211 16.3334 14.6175 16.3334 13.9987C16.3334 13.3799 16.0875 12.7864 15.65 12.3488C15.2124 11.9112 14.6189 11.6654 14 11.6654Z"
    fill="#F1F3F5"
    stroke="#F1F3F5"
    stroke-width="2.33333"
    mask="url(#path-1-inside-1_23_126)"
  />
</svg>
