<svg
  width="24"
  height="24"
  viewBox="0 0 24 24"
  fill="none"
  xmlns="http://www.w3.org/2000/svg"
>
  <path
    d="M16.667 5.5C17.1747 5.50008 17.5976 5.67571 17.9619 6.04004C18.326 6.40433 18.5006 6.82648 18.5 7.33301V16.667C18.4999 17.175 18.3246 17.5977 17.9609 17.9619C17.5977 18.3256 17.1755 18.5006 16.667 18.5H7.33301C6.82521 18.4999 6.40332 18.325 6.04004 17.9619C5.72213 17.644 5.54785 17.2804 5.50879 16.8535L5.5 16.666V7.33301C5.50007 6.82538 5.67514 6.40343 6.03906 6.04004C6.35806 5.72158 6.72172 5.54775 7.14746 5.50879L7.33398 5.5H16.667ZM6.83301 17.167H17.167V6.83301H6.83301V17.167Z"
    fill="#F1F3F5"
    stroke="#F1F3F5"
  />
</svg>
