<svg width="17" height="16" viewBox="0 0 17 16" fill="none" xmlns="http://www.w3.org/2000/svg">
<g clip-path="url(#clip0_331_4617)">
<path d="M13.3898 5.83008C13.7875 5.83016 14.1691 5.9883 14.4503 6.26953C14.7315 6.55082 14.8898 6.93233 14.8898 7.33008L14.8898 12.6631C14.8898 13.0608 14.7314 13.4424 14.4503 13.7236C14.1691 14.0049 13.7875 14.163 13.3898 14.1631L2.72278 14.1631C2.32495 14.1631 1.94354 14.0049 1.66223 13.7236C1.38103 13.4423 1.22278 13.0608 1.22278 12.6631L1.22278 7.33008C1.22278 6.93225 1.38093 6.55084 1.66223 6.26953C1.94354 5.98823 2.32495 5.83008 2.72278 5.83008C2.76698 5.83008 2.80969 5.84765 2.84094 5.87891C2.8721 5.91015 2.88977 5.95294 2.88977 5.99707C2.88969 6.041 2.87192 6.08311 2.84094 6.11426C2.80969 6.14551 2.76698 6.16309 2.72278 6.16309C2.41336 6.16309 2.11638 6.28609 1.89758 6.50488C1.67879 6.72368 1.55579 7.02066 1.55579 7.33008L1.55579 12.6631C1.55579 12.9724 1.67889 13.2695 1.89758 13.4883C2.11638 13.7071 2.41336 13.8301 2.72278 13.8301L13.3898 13.8301C13.699 13.83 13.9953 13.7069 14.214 13.4883C14.4328 13.2695 14.5558 12.9725 14.5558 12.6631L14.5558 7.33008C14.5558 7.02066 14.4328 6.72368 14.214 6.50488C13.9953 6.28637 13.6989 6.16317 13.3898 6.16309C13.3456 6.16309 13.3029 6.14551 13.2716 6.11426C13.2405 6.08309 13.2229 6.04108 13.2228 5.99707C13.2228 5.95287 13.2404 5.91016 13.2716 5.87891C13.3029 5.84765 13.3456 5.83008 13.3898 5.83008ZM8.05579 8.49707C8.45361 8.49707 8.83503 8.65522 9.11633 8.93652C9.39764 9.21783 9.55579 9.59925 9.55579 9.99707C9.55572 10.2936 9.46762 10.5835 9.30286 10.8301C9.13804 11.0767 8.90402 11.2693 8.63 11.3828C8.35606 11.4962 8.05461 11.5256 7.76379 11.4678C7.47282 11.4099 7.20502 11.2674 6.99524 11.0576C6.78546 10.8478 6.64296 10.58 6.58508 10.2891C6.52729 9.99825 6.55662 9.6968 6.67004 9.42285C6.78355 9.14884 6.9762 8.91481 7.22278 8.75C7.46936 8.58524 7.75923 8.49713 8.05579 8.49707ZM7.82825 8.85254C7.60211 8.89757 7.39464 9.00886 7.23157 9.17188C7.06841 9.33504 6.95725 9.54322 6.91223 9.76953C6.8673 9.99575 6.89038 10.2303 6.97864 10.4434C7.06695 10.6564 7.21655 10.8387 7.40833 10.9668C7.60003 11.0948 7.82526 11.163 8.05579 11.1631C8.36521 11.1631 8.66219 11.0401 8.88098 10.8213C9.0996 10.6026 9.22269 10.3063 9.22278 9.99707C9.22278 9.7664 9.1546 9.54045 9.02649 9.34863C8.89838 9.1569 8.71605 9.00727 8.50305 8.91895C8.28987 8.83064 8.05456 8.80752 7.82825 8.85254ZM12.1202 9.84277C12.1506 9.8554 12.1762 9.87698 12.1945 9.9043C12.2128 9.9317 12.2228 9.9641 12.2228 9.99707C12.2227 10.0411 12.205 10.0831 12.174 10.1143C12.1427 10.1455 12.1 10.1631 12.0558 10.1631C12.0231 10.163 11.9912 10.1538 11.964 10.1357C11.9366 10.1175 11.9151 10.0909 11.9025 10.0605C11.8899 10.0301 11.8863 9.9962 11.8927 9.96387C11.8992 9.93168 11.9154 9.90213 11.9386 9.87891C11.9619 9.85569 11.9913 9.83942 12.0236 9.83301C12.0559 9.82658 12.0898 9.83016 12.1202 9.84277ZM4.05579 9.83008C4.08875 9.83008 4.12115 9.84009 4.14856 9.8584C4.17588 9.87665 4.19745 9.90229 4.21008 9.93262C4.2227 9.96307 4.22628 9.99697 4.21985 10.0293C4.21343 10.0616 4.19717 10.091 4.17395 10.1143C4.15073 10.1375 4.12118 10.1537 4.08899 10.1602C4.05666 10.1666 4.02276 10.163 3.99231 10.1504C3.96191 10.1378 3.9354 10.1162 3.91711 10.0889C3.89908 10.0617 3.88983 10.0297 3.88977 9.99707C3.88977 9.95287 3.90734 9.91016 3.9386 9.87891C3.96976 9.84783 4.01178 9.83016 4.05579 9.83008Z" fill="#F1F3F5" stroke="#F1F3F5"/>
<path d="M9.99365 2.20508C10.0378 2.20508 10.0806 2.22268 10.1118 2.25391C10.1431 2.28516 10.1606 2.32787 10.1606 2.37207L10.1606 6.05176L11.0298 5.10254L11.3735 4.72461L11.3745 4.72559C11.4098 4.6903 11.4574 4.66994 11.5073 4.66992C11.5572 4.66992 11.6048 4.69031 11.6401 4.72559C11.6754 4.76089 11.6958 4.80848 11.6958 4.8584C11.6958 4.90833 11.6754 4.95591 11.6401 4.99121L10.1187 6.48535C10.1034 6.4994 10.0862 6.51101 10.0669 6.51855L10.0562 6.52344L10.0454 6.52734C10.0293 6.53447 10.0113 6.53809 9.99365 6.53809C9.97616 6.53803 9.95887 6.53442 9.94287 6.52734L9.93213 6.52344L9.92139 6.51855C9.90181 6.51093 9.88404 6.49963 9.86865 6.48535L8.34619 4.99023C8.31173 4.95507 8.29248 4.90769 8.29248 4.8584C8.29248 4.80865 8.3121 4.76085 8.34717 4.72559C8.38247 4.69028 8.43103 4.66992 8.48096 4.66992C8.50599 4.66995 8.53055 4.67512 8.55322 4.68457L8.61377 4.72559L8.9585 5.10254L9.82764 6.05176L9.82764 2.37207C9.82764 2.32787 9.84521 2.28516 9.87646 2.25391C9.90761 2.22282 9.94965 2.20519 9.99365 2.20508Z" fill="#F1F3F5" stroke="#F1F3F5"/>
<path d="M5.22998 6.53906C5.1858 6.53906 5.14307 6.52146 5.11182 6.49023C5.08056 6.45898 5.06299 6.41627 5.06299 6.37207L5.06299 2.69238L4.19385 3.6416L3.8501 4.01953L3.84912 4.01856C3.81383 4.05384 3.76621 4.0742 3.71631 4.07422C3.6664 4.07422 3.6188 4.05383 3.5835 4.01856C3.54819 3.98325 3.52784 3.93566 3.52783 3.88574C3.52783 3.83582 3.54819 3.78823 3.5835 3.75293L5.10498 2.25879C5.12023 2.24474 5.1374 2.23313 5.15674 2.22559L5.16748 2.2207L5.17822 2.2168C5.19435 2.20967 5.21234 2.20605 5.22998 2.20605C5.24748 2.20611 5.26476 2.20972 5.28076 2.2168L5.2915 2.2207L5.30225 2.22559C5.32183 2.23321 5.33959 2.24451 5.35498 2.25879L6.87744 3.75391C6.9119 3.78907 6.93115 3.83646 6.93115 3.88574C6.93115 3.93549 6.91153 3.98329 6.87646 4.01855C6.84116 4.05386 6.7926 4.07422 6.74268 4.07422C6.71764 4.07419 6.69308 4.06902 6.67041 4.05957L6.60986 4.01855L6.26514 3.6416L5.396 2.69238L5.396 6.37207C5.396 6.41627 5.37842 6.45898 5.34717 6.49023C5.31602 6.52132 5.27398 6.53895 5.22998 6.53906Z" fill="#F1F3F5" stroke="#F1F3F5"/>
</g>
<defs>
<clipPath id="clip0_331_4617">
<rect width="16" height="16" fill="white" transform="translate(0.0561523 -0.00195312)"/>
</clipPath>
</defs>
</svg>
