<svg width="24" height="24" viewBox="0 0 24 24" fill="none" xmlns="http://www.w3.org/2000/svg">
<path d="M14.049 5.53908C14.2514 5.49256 14.4633 5.51022 14.6553 5.5896C14.8472 5.66899 15.0096 5.80616 15.12 5.98208L16.114 7.56908C16.1942 7.69691 16.3022 7.80494 16.43 7.88508L18.017 8.87908C18.1933 8.98941 18.3308 9.15196 18.4104 9.3441C18.49 9.53624 18.5077 9.74841 18.461 9.95108L18.041 11.7751C18.0072 11.9225 18.0072 12.0757 18.041 12.2231L18.461 14.0481C18.5072 14.2505 18.4893 14.4622 18.4098 14.6539C18.3302 14.8457 18.1929 15.0079 18.017 15.1181L16.43 16.1131C16.3022 16.1932 16.1942 16.3013 16.114 16.4291L15.12 18.0161C15.0098 18.1922 14.8474 18.3296 14.6554 18.4091C14.4635 18.4887 14.2516 18.5065 14.049 18.4601L12.224 18.0401C12.0769 18.0064 11.9241 18.0064 11.777 18.0401L9.95203 18.4601C9.74951 18.5065 9.53756 18.4887 9.34562 18.4091C9.15369 18.3296 8.9913 18.1922 8.88103 18.0161L7.88703 16.4291C7.8066 16.3012 7.69822 16.1931 7.57003 16.1131L5.98403 15.1191C5.80793 15.0088 5.67055 14.8464 5.59098 14.6545C5.51141 14.4626 5.4936 14.2506 5.54003 14.0481L5.95903 12.2231C5.99291 12.0757 5.99291 11.9225 5.95903 11.7751L5.53903 9.95108C5.49248 9.74831 5.51032 9.53606 5.59009 9.34391C5.66985 9.15176 5.80756 8.98927 5.98403 8.87908L7.57003 7.88508C7.69822 7.80505 7.8066 7.69701 7.88703 7.56908L8.88103 5.98208C8.99138 5.80635 9.15366 5.66931 9.34538 5.58993C9.5371 5.51055 9.74876 5.49278 9.95103 5.53908L11.777 5.95808C11.9241 5.99181 12.0769 5.99181 12.224 5.95808L14.049 5.53908Z" stroke="#6A00FF" stroke-width="1.5"/>
<path d="M9.51514 12.5347L11.5501 14.4837L14.4851 9.51367" stroke="#6A00FF" stroke-width="1.5" stroke-linecap="round" stroke-linejoin="round"/>
</svg>
