<svg
  width="29"
  height="28"
  viewBox="0 0 29 28"
  fill="none"
  xmlns="http://www.w3.org/2000/svg"
>
  <path
    d="M5.75 7.45215H23.25C24.1738 7.45316 25.0597 7.8204 25.7129 8.47363C26.3661 9.12686 26.7334 10.0127 26.7344 10.9365V21.4365C26.7334 22.3603 26.3661 23.2462 25.7129 23.8994C25.0597 24.5526 24.1738 24.9199 23.25 24.9209H5.75C4.8262 24.9199 3.94034 24.5526 3.28711 23.8994C2.63389 23.2462 2.26664 22.3603 2.26562 21.4365V10.9365L2.27051 10.7637C2.31413 9.90284 2.67475 9.086 3.28711 8.47363C3.94034 7.8204 4.8262 7.45316 5.75 7.45215ZM21.3281 14.5557C21.0055 14.422 20.6501 14.387 20.3076 14.4551C19.9652 14.5232 19.6511 14.6916 19.4043 14.9385C19.1574 15.1853 18.9891 15.4994 18.9209 15.8418C18.8528 16.1843 18.8878 16.5397 19.0215 16.8623C19.1551 17.1848 19.3816 17.4603 19.6719 17.6543C19.9622 17.8482 20.3032 17.9521 20.6523 17.9521C21.1206 17.9521 21.5693 17.7657 21.9004 17.4346C22.2315 17.1035 22.418 16.6548 22.418 16.1865C22.418 15.8374 22.314 15.4964 22.1201 15.2061C21.9262 14.9158 21.6507 14.6893 21.3281 14.5557ZM19.625 3.13965C20.1019 3.05018 20.5927 3.05803 21.0664 3.16309C21.5401 3.26815 21.9875 3.46832 22.3818 3.75098C22.7762 4.03367 23.1097 4.39371 23.3613 4.80859C23.6092 5.2174 23.7716 5.67177 23.8418 6.14453C23.6455 6.12034 23.4478 6.10834 23.25 6.1084H5.75C4.77953 6.10715 3.83319 6.4013 3.0332 6.94824C3.56902 6.24503 4.34643 5.76316 5.2168 5.59668H5.23047V5.59766L5.2334 5.59668L19.625 3.13965Z"
    fill="#F1F3F5"
    stroke="#F1F3F5"
    stroke-width="0.03125"
  />
</svg>
