<svg width="17" height="16" viewBox="0 0 17 16" fill="none" xmlns="http://www.w3.org/2000/svg">
<path fill-rule="evenodd" clip-rule="evenodd" d="M7.63253 3.31027C7.97653 2.66093 8.53786 2.65827 8.88319 3.31027L13.6325 12.2823C13.9765 12.9316 13.6625 13.4629 12.9279 13.4629H3.58786C2.85319 13.4629 2.53786 12.9343 2.88319 12.2823L7.63253 3.31027ZM7.78646 9.80367C7.91148 9.92869 8.08105 9.99893 8.25786 9.99893C8.43467 9.99893 8.60424 9.92869 8.72927 9.80367C8.85429 9.67865 8.92453 9.50908 8.92453 9.33226V5.99893C8.92453 5.82212 8.85429 5.65255 8.72927 5.52753C8.60424 5.4025 8.43467 5.33227 8.25786 5.33227C8.08105 5.33227 7.91148 5.4025 7.78646 5.52753C7.66143 5.65255 7.59119 5.82212 7.59119 5.99893V9.33226C7.59119 9.50908 7.66143 9.67865 7.78646 9.80367ZM7.78646 11.8037C7.91148 11.9287 8.08105 11.9989 8.25786 11.9989C8.43467 11.9989 8.60424 11.9287 8.72927 11.8037C8.85429 11.6786 8.92453 11.5091 8.92453 11.3323C8.92453 11.1555 8.85429 10.9859 8.72927 10.8609C8.60424 10.7358 8.43467 10.6656 8.25786 10.6656C8.08105 10.6656 7.91148 10.7358 7.78646 10.8609C7.66143 10.9859 7.59119 11.1555 7.59119 11.3323C7.59119 11.5091 7.66143 11.6786 7.78646 11.8037Z" fill="#F5CD47"/>
</svg>
