<svg width="17" height="16" viewBox="0 0 17 16" fill="none" xmlns="http://www.w3.org/2000/svg">
<g clip-path="url(#clip0_122_3731)">
<path d="M2.72278 5.83203L4.72278 5.83203C4.76698 5.83203 4.80969 5.8496 4.84094 5.88086C4.8721 5.9121 4.88977 5.9549 4.88977 5.99902C4.88968 6.04296 4.87192 6.08506 4.84094 6.11621C4.80969 6.14747 4.76698 6.16504 4.72278 6.16504L2.72278 6.16504C2.41336 6.16504 2.11638 6.28804 1.89758 6.50684C1.67879 6.72563 1.55579 7.02261 1.55579 7.33203L1.55579 12.665C1.55579 12.9744 1.67889 13.2715 1.89758 13.4902C2.11638 13.709 2.41336 13.832 2.72278 13.832L13.3898 13.832C13.699 13.8319 13.9953 13.7088 14.214 13.4902C14.4328 13.2714 14.5558 12.9745 14.5558 12.665L14.5558 7.33203C14.5558 7.02261 14.4328 6.72563 14.214 6.50684C13.9953 6.28832 13.6989 6.16513 13.3898 6.16504H11.3898C11.3456 6.16504 11.3029 6.14747 11.2716 6.11621C11.2405 6.08505 11.2229 6.04303 11.2228 5.99902C11.2228 5.95482 11.2404 5.91212 11.2716 5.88086C11.3029 5.8496 11.3456 5.83203 11.3898 5.83203H13.3898C13.7875 5.83212 14.1691 5.99026 14.4503 6.27148C14.7315 6.55277 14.8898 6.93428 14.8898 7.33203L14.8898 12.665C14.8898 13.0627 14.7314 13.4443 14.4503 13.7256C14.1691 14.0068 13.7875 14.165 13.3898 14.165L2.72278 14.165C2.32495 14.165 1.94354 14.0069 1.66223 13.7256C1.38103 13.4443 1.22278 13.0628 1.22278 12.665L1.22278 7.33203C1.22278 6.93421 1.38093 6.55279 1.66223 6.27148C1.94354 5.99018 2.32495 5.83203 2.72278 5.83203ZM8.05579 8.49902C8.45361 8.49902 8.83503 8.65717 9.11633 8.93848C9.39764 9.21978 9.55579 9.6012 9.55579 9.99902C9.55572 10.2956 9.46762 10.5854 9.30286 10.832C9.13804 11.0786 8.90402 11.2713 8.63 11.3848C8.35606 11.4982 8.05461 11.5275 7.76379 11.4697C7.47282 11.4118 7.20502 11.2693 6.99524 11.0596C6.78546 10.8498 6.64296 10.582 6.58508 10.291C6.52729 10.0002 6.55662 9.69875 6.67004 9.4248C6.78355 9.15079 6.9762 8.91677 7.22278 8.75195C7.46936 8.58719 7.75923 8.49909 8.05579 8.49902ZM7.82825 8.85449C7.60211 8.89953 7.39464 9.01082 7.23157 9.17383C7.06841 9.33699 6.95725 9.54517 6.91223 9.77148C6.8673 9.9977 6.89038 10.2322 6.97864 10.4453C7.06695 10.6584 7.21655 10.8406 7.40833 10.9688C7.60003 11.0968 7.82526 11.165 8.05579 11.165C8.36521 11.165 8.66219 11.042 8.88098 10.8232C9.0996 10.6045 9.22269 10.3082 9.22278 9.99902C9.22278 9.76835 9.1546 9.5424 9.02649 9.35059C8.89838 9.15886 8.71605 9.00922 8.50305 8.9209C8.28987 8.8326 8.05456 8.80948 7.82825 8.85449ZM12.1202 9.84473C12.1506 9.85736 12.1762 9.87894 12.1945 9.90625C12.2128 9.93366 12.2228 9.96606 12.2228 9.99902C12.2227 10.043 12.205 10.085 12.174 10.1162C12.1427 10.1475 12.1 10.165 12.0558 10.165C12.0231 10.165 11.9912 10.1557 11.964 10.1377C11.9366 10.1194 11.9151 10.0929 11.9025 10.0625C11.8899 10.032 11.8863 9.99815 11.8927 9.96582C11.8992 9.93363 11.9154 9.90408 11.9386 9.88086C11.9619 9.85764 11.9913 9.84138 12.0236 9.83496C12.0559 9.82853 12.0898 9.83211 12.1202 9.84473ZM4.05579 9.83203C4.08875 9.83203 4.12115 9.84204 4.14856 9.86035C4.17588 9.87861 4.19745 9.90425 4.21008 9.93457C4.2227 9.96502 4.22628 9.99892 4.21985 10.0312C4.21343 10.0635 4.19717 10.0929 4.17395 10.1162C4.15073 10.1394 4.12118 10.1556 4.08899 10.1621C4.05666 10.1685 4.02276 10.165 3.99231 10.1523C3.96191 10.1397 3.9354 10.1182 3.91711 10.0908C3.89908 10.0636 3.88983 10.0317 3.88977 9.99902C3.88977 9.95482 3.90734 9.91212 3.9386 9.88086C3.96976 9.84978 4.01178 9.83212 4.05579 9.83203Z" fill="#F1F3F5" stroke="#F1F3F5"/>
<path d="M8.05652 6.16602C8.01234 6.16602 7.96961 6.14842 7.93835 6.11719C7.9071 6.08593 7.88953 6.04323 7.88953 5.99902L7.88953 2.31934L7.02039 3.26855L6.67664 3.64648L6.67566 3.64551C6.64037 3.68079 6.59275 3.70115 6.54285 3.70117C6.49294 3.70117 6.44533 3.68079 6.41003 3.64551C6.37473 3.61021 6.35437 3.56262 6.35437 3.5127C6.35437 3.46277 6.37473 3.41519 6.41003 3.37988L7.93152 1.88574C7.94677 1.87169 7.96394 1.86009 7.98328 1.85254L7.99402 1.84766L8.00476 1.84375C8.02089 1.83662 8.03888 1.83301 8.05652 1.83301C8.07401 1.83306 8.0913 1.83668 8.1073 1.84375L8.11804 1.84766L8.12878 1.85254C8.14836 1.86016 8.16613 1.87146 8.18152 1.88574L9.70398 3.38086C9.73844 3.41603 9.75769 3.46341 9.75769 3.5127C9.75769 3.56244 9.73807 3.61024 9.703 3.64551C9.6677 3.68081 9.61914 3.70117 9.56921 3.70117C9.54418 3.70114 9.51962 3.69598 9.49695 3.68652L9.4364 3.64551L9.09167 3.26855L8.22253 2.31934L8.22253 5.99902C8.22253 6.04323 8.20496 6.08593 8.17371 6.11719C8.14256 6.14827 8.10052 6.16591 8.05652 6.16602Z" fill="#F1F3F5" stroke="#F1F3F5"/>
</g>
<defs>
<clipPath id="clip0_122_3731">
<rect width="16" height="16" fill="white" transform="translate(0.0561523)"/>
</clipPath>
</defs>
</svg>
