<svg
  width="24"
  height="24"
  viewBox="0 0 24 24"
  fill="none"
  xmlns="http://www.w3.org/2000/svg"
>
  <path
    d="M19 2C19.4162 2 19.7605 2.14234 20.0596 2.44141C20.3585 2.74037 20.5004 3.08404 20.5 3.49902V17.5C20.5 17.9163 20.3579 18.2606 20.0596 18.5596C19.7616 18.858 19.4176 19.0004 19.001 19H14.793L12 21.793L9.20703 19H5C4.58354 19 4.23963 18.8578 3.94141 18.5596C3.68039 18.2986 3.53854 18.0021 3.50684 17.6523L3.5 17.499V3.5C3.5 3.08381 3.64261 2.7397 3.94141 2.44141C4.20313 2.18025 4.49936 2.03859 4.84766 2.00684L5.00098 2H19ZM4.5 18H9.59277L12 20.4072L14.4072 18H19.5V3H4.5V18Z"
    fill="#F1F3F5"
    stroke="#F1F3F5"
  />
  <path
    d="M11.999 11C12.156 11.0004 12.2652 11.0487 12.3594 11.1426C12.4523 11.2354 12.5 11.3431 12.5 11.5V14.501C12.5004 14.6567 12.4531 14.7647 12.3594 14.8584C12.2891 14.9287 12.2105 14.9734 12.1094 14.9912L12 15H11.999C11.8433 15.0004 11.7353 14.9531 11.6416 14.8594C11.5478 14.7656 11.5 14.6571 11.5 14.5V11.5C11.5 11.3449 11.5477 11.2358 11.6426 11.1406C11.7363 11.0467 11.844 10.9996 11.999 11ZM12 7C12.1569 7 12.2646 7.04766 12.3574 7.14062C12.4513 7.23479 12.4996 7.34403 12.5 7.50098C12.5004 7.65672 12.4531 7.76468 12.3594 7.8584C12.2891 7.92871 12.2105 7.97337 12.1094 7.99121L12 8H11.998C11.8443 8.00073 11.7363 7.95406 11.6416 7.85938C11.5469 7.76463 11.4996 7.65618 11.5 7.50098C11.5004 7.34403 11.5487 7.23479 11.6426 7.14062C11.7354 7.04766 11.8431 7 12 7Z"
    fill="#F1F3F5"
    stroke="#F1F3F5"
  />
</svg>
