<svg
  width="21"
  height="20"
  viewBox="0 0 21 20"
  fill="none"
  xmlns="http://www.w3.org/2000/svg"
>
  <path
    d="M13.6105 2H15.3883H18.9438V18H2.94385V2H6.4994H8.27718H13.6105ZM8.27718 3.77778H4.72163V5.55556H17.1661V3.77778H8.27718ZM4.72163 7.33333V16.2222H17.1661V7.33333H4.72163ZM6.4994 10C6.4994 9.50908 6.89737 9.11111 7.38829 9.11111C7.87921 9.11111 8.27718 9.50908 8.27718 10C8.27718 10.4909 7.87921 10.8889 7.38829 10.8889C6.89737 10.8889 6.4994 10.4909 6.4994 10ZM11.8327 10C11.8327 9.50908 11.4348 9.11111 10.9438 9.11111C10.4529 9.11111 10.055 9.50908 10.055 10C10.055 10.4909 10.4529 10.8889 10.9438 10.8889C11.4348 10.8889 11.8327 10.4909 11.8327 10ZM13.6105 10C13.6105 9.50908 14.0085 9.11111 14.4994 9.11111C14.9903 9.11111 15.3883 9.50908 15.3883 10C15.3883 10.4909 14.9903 10.8889 14.4994 10.8889C14.0085 10.8889 13.6105 10.4909 13.6105 10ZM8.27718 13.5556C8.27718 13.0646 7.87921 12.6667 7.38829 12.6667C6.89737 12.6667 6.4994 13.0646 6.4994 13.5556C6.4994 14.0465 6.89737 14.4444 7.38829 14.4444C7.87921 14.4444 8.27718 14.0465 8.27718 13.5556ZM10.055 13.5556C10.055 13.0646 10.4529 12.6667 10.9438 12.6667C11.4348 12.6667 11.8327 13.0646 11.8327 13.5556C11.8327 14.0465 11.4348 14.4444 10.9438 14.4444C10.4529 14.4444 10.055 14.0465 10.055 13.5556Z"
    fill="#F1F3F5"
  />
</svg>
