<svg width="24" height="25" viewBox="0 0 24 25" fill="none" xmlns="http://www.w3.org/2000/svg">
<path d="M8 4.91602V16.916C8 17.4464 8.21071 17.9552 8.58579 18.3302C8.96086 18.7053 9.46957 18.916 10 18.916H18C18.5304 18.916 19.0391 18.7053 19.4142 18.3302C19.7893 17.9552 20 17.4464 20 16.916V8.15802C20 7.89158 19.9467 7.62783 19.8433 7.38226C19.7399 7.13669 19.5885 6.91426 19.398 6.72802L16.083 3.48602C15.7094 3.12067 15.2076 2.91608 14.685 2.91602H10C9.46957 2.91602 8.96086 3.12673 8.58579 3.5018C8.21071 3.87687 8 4.38558 8 4.91602Z" fill="#9A52FF" stroke="#9A52FF" stroke-width="1.5" stroke-linecap="round" stroke-linejoin="round"/>
<path d="M16 18.9141V20.9141C16 21.4445 15.7893 21.9532 15.4142 22.3283C15.0391 22.7033 14.5304 22.9141 14 22.9141H6C5.46957 22.9141 4.96086 22.7033 4.58579 22.3283C4.21071 21.9532 4 21.4445 4 20.9141V9.91406C4 9.38363 4.21071 8.87492 4.58579 8.49985C4.96086 8.12478 5.46957 7.91406 6 7.91406H8" stroke="#9A52FF" stroke-width="1.5" stroke-linecap="round" stroke-linejoin="round"/>
</svg>
