<svg width="16" height="16" viewBox="0 0 16 16" fill="none" xmlns="http://www.w3.org/2000/svg">
<path d="M8.17674 3C7.23943 3.00017 6.31974 3.24604 5.51578 3.71138C4.71183 4.17673 4.05376 4.84409 3.61178 5.64229C3.1698 6.44049 2.96048 7.33958 3.00615 8.24365C3.05183 9.14772 3.35078 10.0229 3.87113 10.7757C4.39147 11.5286 5.11368 12.1309 5.96073 12.5185C6.80778 12.906 7.74788 13.0643 8.68076 12.9763C9.61364 12.8884 10.5043 12.5576 11.2577 12.0191C12.0112 11.4807 12.5991 10.7548 12.9589 9.919C13.1354 9.509 12.7124 9.097 12.2868 9.264C11.5573 9.54934 10.7474 9.57878 9.99782 9.34721C9.24822 9.11565 8.60637 8.63771 8.18386 7.99651C7.76134 7.35531 7.5849 6.59139 7.68519 5.83758C7.78549 5.08376 8.15618 4.38773 8.73282 3.8705L8.77269 3.8305C9.05798 3.5155 8.8312 3.004 8.38022 3.004H8.2425L8.20729 3.001L8.17674 3Z" fill="white"/>
</svg>
