<svg
  width="17"
  height="16"
  viewBox="0 0 17 16"
  fill="none"
  xmlns="http://www.w3.org/2000/svg"
>
  <path
    d="M9.50004 4.00065V6.66732H11.1667M10.29 1.33398H7.16671C6.81309 1.33398 6.47395 1.47446 6.2239 1.72451C5.97385 1.97456 5.83337 2.3137 5.83337 2.66732V10.6673C5.83337 11.0209 5.97385 11.3601 6.2239 11.6101C6.47395 11.8602 6.81309 12.0007 7.16671 12.0007H12.5C12.8537 12.0007 13.1928 11.8602 13.4428 11.6101C13.6929 11.3601 13.8334 11.0209 13.8334 10.6673V4.82865C13.8334 4.65102 13.7978 4.47519 13.7289 4.31148C13.66 4.14777 13.5591 3.99948 13.432 3.87532L11.222 1.71398C10.9729 1.47042 10.6384 1.33403 10.29 1.33398Z"
    stroke="#F1F3F5"
    stroke-width="1.5"
    stroke-linecap="round"
    stroke-linejoin="round"
  />
  <path
    d="M11.1667 12.0013V13.3346C11.1667 13.6883 11.0263 14.0274 10.7762 14.2774C10.5262 14.5275 10.187 14.668 9.83341 14.668H4.50008C4.14646 14.668 3.80732 14.5275 3.55727 14.2774C3.30722 14.0274 3.16675 13.6883 3.16675 13.3346V6.0013C3.16675 5.64768 3.30722 5.30854 3.55727 5.05849C3.80732 4.80844 4.14646 4.66797 4.50008 4.66797H5.83341"
    stroke="#F1F3F5"
    stroke-width="1.5"
    stroke-linecap="round"
    stroke-linejoin="round"
  />
</svg>
