<svg
  width="21"
  height="21"
  viewBox="0 0 21 21"
  fill="none"
  xmlns="http://www.w3.org/2000/svg"
>
  <path
    d="M8.25 7.51953C8.80228 7.51953 9.25 7.07182 9.25 6.51953C9.25 5.96725 8.80228 5.51953 8.25 5.51953C7.69772 5.51953 7.25 5.96725 7.25 6.51953C7.25 7.07182 7.69772 7.51953 8.25 7.51953Z"
    fill="#94A5B7"
  />
  <path
    d="M12.25 7.51953C12.8023 7.51953 13.25 7.07182 13.25 6.51953C13.25 5.96725 12.8023 5.51953 12.25 5.51953C11.6977 5.51953 11.25 5.96725 11.25 6.51953C11.25 7.07182 11.6977 7.51953 12.25 7.51953Z"
    fill="#94A5B7"
  />
  <path
    d="M8.25 15.5195C8.80228 15.5195 9.25 15.0718 9.25 14.5195C9.25 13.9672 8.80228 13.5195 8.25 13.5195C7.69772 13.5195 7.25 13.9672 7.25 14.5195C7.25 15.0718 7.69772 15.5195 8.25 15.5195Z"
    fill="#94A5B7"
  />
  <path
    d="M12.25 15.5195C12.8023 15.5195 13.25 15.0718 13.25 14.5195C13.25 13.9672 12.8023 13.5195 12.25 13.5195C11.6977 13.5195 11.25 13.9672 11.25 14.5195C11.25 15.0718 11.6977 15.5195 12.25 15.5195Z"
    fill="#94A5B7"
  />
  <path
    d="M8.25 11.5195C8.80228 11.5195 9.25 11.0718 9.25 10.5195C9.25 9.96725 8.80228 9.51953 8.25 9.51953C7.69772 9.51953 7.25 9.96725 7.25 10.5195C7.25 11.0718 7.69772 11.5195 8.25 11.5195Z"
    fill="#94A5B7"
  />
  <path
    d="M12.25 11.5195C12.8023 11.5195 13.25 11.0718 13.25 10.5195C13.25 9.96725 12.8023 9.51953 12.25 9.51953C11.6977 9.51953 11.25 9.96725 11.25 10.5195C11.25 11.0718 11.6977 11.5195 12.25 11.5195Z"
    fill="#94A5B7"
  />
</svg>
