<svg
  width="26"
  height="28"
  viewBox="0 0 26 28"
  fill="none"
  xmlns="http://www.w3.org/2000/svg"
>
  <path
    d="M20.7148 13.1513C20.1252 12.5618 19.4252 12.0944 18.6546 11.7759C17.8841 11.4574 17.0583 11.2942 16.2246 11.2955C15.3908 11.2968 14.5656 11.4627 13.796 11.7835C13.0265 12.1044 12.3279 12.574 11.7403 13.1655C11.1498 13.754 10.6813 14.4534 10.3616 15.2234C10.0419 15.9934 9.87735 16.819 9.87735 17.6527C9.87735 18.4865 10.0419 19.312 10.3616 20.082C10.6813 20.852 11.1498 21.5514 11.7403 22.14C12.7579 23.1532 14.0883 23.7925 15.5152 23.9539C16.9422 24.1153 18.3818 23.7893 19.6 23.029L23.9885 27.361L25.9499 25.3996L21.5896 21.0111C23.1842 18.5135 22.8173 15.2398 20.7148 13.1513ZM18.7251 20.1362C17.3423 21.5191 15.1128 21.505 13.7299 20.1362C12.3611 18.7534 12.3611 16.5238 13.744 15.141C15.1128 13.7722 17.3423 13.7722 18.7251 15.141C20.0939 16.5238 20.0939 18.7534 18.7251 20.1362ZM9.73651 24.1296C8.8147 23.1999 8.10261 22.0837 7.6481 20.8559C3.20317 20.108 0 18.0055 0 15.522V19.7552C0 22.8737 5.0517 25.3996 11.2887 25.3996C10.7243 25.0327 10.2022 24.6094 9.73651 24.1296ZM0 8.46653V12.6998C0 15.0704 2.92095 17.1024 7.05544 17.9208V17.6386C7.05544 16.3263 7.33766 15.0281 7.87387 13.8428C3.30195 13.1231 0 10.9924 0 8.46653ZM11.2887 0C5.0517 0 0 2.52585 0 5.64435C0 8.46653 4.23326 10.8372 9.66595 11.2887H9.73651C11.4298 9.51073 13.7722 8.46653 16.2275 8.46653C17.5116 8.46653 18.7816 8.73464 19.9528 9.25674C20.6642 8.93148 21.2796 8.42805 21.7395 7.79519C22.1993 7.16233 22.4879 6.42148 22.5774 5.64435C22.5774 2.52585 17.5257 0 11.2887 0Z"
    fill="#F1F3F5"
  />
</svg>
