<svg
  width="28"
  height="28"
  viewBox="0 0 28 28"
  fill="none"
  xmlns="http://www.w3.org/2000/svg"
>
  <path
    d="M14 2.33301C14.1336 2.33301 14.2634 2.37887 14.3672 2.46289L23.7002 10.0469H23.7012C23.7685 10.1015 23.823 10.1708 23.8604 10.249C23.879 10.2881 23.8928 10.3291 23.9023 10.3711L23.917 10.5V23.333C23.9169 23.449 23.8818 23.5612 23.8184 23.6562L23.7461 23.7451C23.6367 23.8545 23.4877 23.916 23.333 23.916H16.333C16.1784 23.9159 16.0302 23.8544 15.9209 23.7451C15.8116 23.6358 15.7501 23.4876 15.75 23.333V16.916H12.25V23.333C12.2499 23.4488 12.2156 23.5613 12.1523 23.6562L12.0791 23.7451C11.9698 23.8544 11.8216 23.9159 11.667 23.916H4.66699C4.51228 23.916 4.3633 23.8545 4.25391 23.7451C4.14469 23.6358 4.08311 23.4875 4.08301 23.333V10.5C4.08306 10.4133 4.10239 10.3273 4.13965 10.249C4.17696 10.1708 4.23153 10.1015 4.29883 10.0469H4.2998L13.6318 2.46289L13.6328 2.46387C13.7367 2.3796 13.8662 2.33301 14 2.33301ZM22.75 10.7773L22.5342 10.6016L14.3682 3.96582L14 3.66699L13.6318 3.96582L5.46582 10.6016L5.25 10.7773V22.749H11.083V16.333C11.083 16.1783 11.1445 16.0293 11.2539 15.9199C11.3633 15.8105 11.5123 15.749 11.667 15.749H16.333C16.4877 15.749 16.6367 15.8105 16.7461 15.9199C16.8555 16.0293 16.917 16.1783 16.917 16.333V22.749H22.75V10.7773Z"
    fill="#F1F3F5"
    stroke="#F1F3F5"
    stroke-width="1.16667"
  />
</svg>
