<svg
  width="17"
  height="17"
  viewBox="0 0 17 17"
  fill="none"
  xmlns="http://www.w3.org/2000/svg"
>
  <g clip-path="url(#clip0_108_494)">
    <path
      d="M12.9839 1.41406C14.1754 1.41432 15.1411 2.38072 15.1411 3.57227V13.4268C15.1409 14.6181 14.1752 15.5837 12.9839 15.584H3.84326C3.83674 15.5841 3.83025 15.5841 3.82373 15.584H3.12939C1.93784 15.584 0.971447 14.6182 0.971191 13.4268V3.57227C0.971191 2.38056 1.93769 1.41406 3.12939 1.41406H12.9839ZM11.2241 8.77734C11.0499 8.7774 10.8825 8.84668 10.7593 8.96973L5.64502 14.084H12.9839C13.3468 14.0837 13.6409 13.7897 13.6411 13.4268V10.9209L11.689 8.96973C11.5658 8.84672 11.3982 8.77747 11.2241 8.77734ZM3.12939 2.91406C2.76611 2.91406 2.47119 3.20898 2.47119 3.57227V13.4268C2.47145 13.7898 2.76627 14.084 3.12939 14.084H3.52393L9.69873 7.90918L9.85693 7.76562C10.2408 7.45134 10.7237 7.27739 11.2241 7.27734C11.796 7.27747 12.345 7.50487 12.7495 7.90918L13.6411 8.7998V3.57227C13.6411 3.20914 13.3469 2.91432 12.9839 2.91406H3.12939ZM5.94482 4.23047C7.13634 4.2307 8.10205 5.19711 8.10205 6.38867C8.10182 7.58004 7.13619 8.54567 5.94482 8.5459C4.75337 8.54577 3.78685 7.5801 3.78662 6.38867C3.78662 5.19705 4.75323 4.2306 5.94482 4.23047ZM5.94482 5.73047C5.58166 5.7306 5.28662 6.02547 5.28662 6.38867C5.28685 6.75168 5.5818 7.04577 5.94482 7.0459C6.30777 7.04567 6.60182 6.75162 6.60205 6.38867C6.60205 6.02553 6.30791 5.7307 5.94482 5.73047Z"
      fill="#F1F3F5"
    />
  </g>
  <defs>
    <clipPath id="clip0_108_494">
      <rect
        width="16"
        height="16"
        fill="white"
        transform="translate(0.0561523 0.5)"
      />
    </clipPath>
  </defs>
</svg>
