<svg
  width="24"
  height="24"
  viewBox="0 0 24 24"
  fill="none"
  xmlns="http://www.w3.org/2000/svg"
>
  <path
    d="M15.1504 2.90039C18.4394 2.90055 21.1453 5.47947 21.1455 8.80469C21.148 10.0724 20.7449 11.3081 19.9961 12.3311L19.9336 12.416L19.8525 12.3496C19.508 12.0684 19.1293 11.8312 18.7256 11.6445L18.6123 11.5918L18.6875 11.4932C19.2763 10.7209 19.5946 9.77583 19.5938 8.80469C19.5936 6.3702 17.6189 4.45032 15.1494 4.4502C13.9708 4.45113 12.8402 4.91952 12.0068 5.75293C11.1735 6.58633 10.705 7.71695 10.7041 8.89551C10.7041 9.12277 10.7342 9.36528 10.7822 9.6377L10.8057 9.83984C10.8177 10.043 10.7931 10.247 10.7324 10.4424C10.6515 10.7028 10.5096 10.9403 10.3174 11.1338H10.3164L4.7041 16.7451C4.60893 16.8403 4.53392 16.9538 4.48242 17.0781C4.43101 17.2023 4.40433 17.3353 4.4043 17.4697V19.4248C4.4043 19.4938 4.46033 19.5498 4.5293 19.5498H6.7793C6.81225 19.5498 6.84381 19.5369 6.86719 19.5137C6.89063 19.4902 6.9043 19.458 6.9043 19.4248V18.0752C6.9043 17.3991 7.4528 16.8498 8.12891 16.8496H9.60449V15.375C9.60449 14.7379 10.0915 14.2141 10.7139 14.1553L10.7607 14.1504L10.7939 14.1836L11.7627 15.1543L11.8418 15.2324L11.7549 15.3027C11.6308 15.4026 11.5228 15.521 11.4355 15.6543L11.4062 15.7002H11.1553V17.1748C11.1553 17.851 10.6059 18.4004 9.92969 18.4004H8.45508V19.4248C8.45508 19.869 8.27885 20.2953 7.96484 20.6094C7.65077 20.9235 7.22444 21.0996 6.78027 21.0996H4.53027C4.08604 21.0996 3.65983 20.9235 3.3457 20.6094C3.03158 20.2953 2.85547 19.869 2.85547 19.4248V17.4697C2.85559 16.7865 3.12528 16.1316 3.6084 15.6494L9.21973 10.0381C9.2351 10.021 9.24657 10.0006 9.25293 9.97852C9.25621 9.96706 9.25825 9.95518 9.25879 9.94336L9.25586 9.90723C9.1931 9.5739 9.15953 9.23564 9.15527 8.89648V8.89453C9.15635 7.30507 9.78821 5.78118 10.9121 4.65723C12.0362 3.53317 13.5607 2.90136 15.1504 2.90039ZM13.1279 10.0381C13.232 10.0362 13.3361 10.0557 13.4326 10.0947C13.5289 10.1337 13.616 10.1921 13.6895 10.2656C13.7629 10.3391 13.8214 10.4261 13.8604 10.5225C13.8993 10.619 13.9188 10.7231 13.917 10.8271C13.9151 10.9311 13.8919 11.0339 13.8496 11.1289C13.8077 11.2228 13.7468 11.3065 13.6719 11.377L13.1943 11.8555H16.5C17.4097 11.8555 18.2992 12.1245 19.0557 12.6299C19.8121 13.1353 20.4018 13.8539 20.75 14.6943C21.0982 15.5349 21.1892 16.4602 21.0117 17.3525C20.8342 18.2448 20.3962 19.0647 19.7529 19.708C19.1096 20.3513 18.2897 20.7893 17.3975 20.9668C16.5052 21.1443 15.5798 21.0532 14.7393 20.7051C13.899 20.3569 13.1812 19.767 12.6758 19.0107C12.1703 18.2543 11.9004 17.3648 11.9004 16.4551C11.9004 16.2496 11.9817 16.0526 12.127 15.9072C12.2722 15.762 12.4694 15.6798 12.6748 15.6797C12.8803 15.6797 13.0773 15.7619 13.2227 15.9072C13.368 16.0526 13.4502 16.2495 13.4502 16.4551C13.4502 17.0582 13.6288 17.6479 13.9639 18.1494C14.299 18.651 14.7757 19.0416 15.333 19.2725C15.8902 19.5033 16.5032 19.5639 17.0947 19.4463C17.6864 19.3286 18.2307 19.0379 18.6572 18.6113C19.0836 18.1848 19.3736 17.6413 19.4912 17.0498C19.6088 16.4584 19.5491 15.8452 19.3184 15.2881C19.0875 14.7308 18.6959 14.2541 18.1943 13.9189C17.6928 13.5839 17.1032 13.4053 16.5 13.4053H13.1953L13.6729 13.8818H13.6719C13.7472 13.9524 13.8076 14.0375 13.8496 14.1318C13.8919 14.2268 13.9152 14.3296 13.917 14.4336C13.9188 14.5375 13.8993 14.6409 13.8604 14.7373C13.8214 14.8337 13.763 14.9216 13.6895 14.9951C13.6161 15.0684 13.5288 15.1261 13.4326 15.165C13.3361 15.204 13.232 15.2235 13.1279 15.2217C13.024 15.2198 12.9211 15.1966 12.8262 15.1543C12.7323 15.1124 12.6476 15.0525 12.5771 14.9775L10.7773 13.1777C10.6322 13.0324 10.5508 12.8353 10.5508 12.6299C10.5508 12.4245 10.6322 12.2273 10.7773 12.082L12.5771 10.2822C12.6476 10.2073 12.7323 10.1474 12.8262 10.1055C12.9211 10.0632 13.024 10.04 13.1279 10.0381ZM16.5 6.23047C16.8249 6.23047 17.1365 6.35914 17.3662 6.58887C17.5959 6.8186 17.7246 7.13019 17.7246 7.45508C17.7246 7.77994 17.5959 8.09158 17.3662 8.32129C17.1365 8.55097 16.8249 8.67969 16.5 8.67969C16.1751 8.67967 15.8635 8.551 15.6338 8.32129C15.4041 8.09158 15.2754 7.77994 15.2754 7.45508C15.2754 7.13022 15.4041 6.81859 15.6338 6.58887C15.8635 6.35915 16.1751 6.23049 16.5 6.23047Z"
    fill="#F1F3F5"
    stroke="#F1F3F5"
    stroke-width="0.2"
  />
</svg>
