<svg
  width="24"
  height="25"
  viewBox="0 0 24 25"
  fill="none"
  xmlns="http://www.w3.org/2000/svg"
>
  <path
    d="M12.6842 16.6301V6.27539H14.8381V10.1685H14.9038C14.9982 9.95954 15.1347 9.74719 15.3133 9.53146C15.4953 9.31237 15.7313 9.13035 16.0212 8.98541C16.3144 8.8371 16.6785 8.76295 17.1133 8.76295C17.6795 8.76295 18.202 8.91126 18.6806 9.20788C19.1593 9.50113 19.5418 9.94437 19.8283 10.5376C20.1149 11.1275 20.2581 11.8673 20.2581 12.7572C20.2581 13.6235 20.1182 14.3549 19.8385 14.9515C19.5621 15.5447 19.1845 15.9947 18.7059 16.3015C18.2306 16.6048 17.6981 16.7565 17.1082 16.7565C16.6903 16.7565 16.3346 16.6874 16.0414 16.5492C15.7515 16.411 15.5139 16.2374 15.3285 16.0284C15.1431 15.8161 15.0015 15.602 14.9038 15.3863H14.8077V16.6301H12.6842ZM14.7926 12.7471C14.7926 13.2089 14.8566 13.6117 14.9847 13.9555C15.1128 14.2993 15.2982 14.5673 15.5409 14.7594C15.7835 14.9481 16.0785 15.0425 16.4257 15.0425C16.7762 15.0425 17.0728 14.9465 17.3155 14.7543C17.5582 14.5588 17.7419 14.2892 17.8666 13.9454C17.9947 13.5982 18.0587 13.1988 18.0587 12.7471C18.0587 12.2988 17.9964 11.9044 17.8717 11.564C17.747 11.2235 17.5633 10.9573 17.3206 10.7651C17.0779 10.573 16.7796 10.4769 16.4257 10.4769C16.0751 10.4769 15.7785 10.5696 15.5358 10.755C15.2965 10.9404 15.1128 11.2033 14.9847 11.5438C14.8566 11.8842 14.7926 12.2853 14.7926 12.7471Z"
    fill="#F1F3F5"
  />
  <path
    d="M6.28658 16.7555C5.79764 16.7555 5.36191 16.6707 4.9794 16.501C4.59689 16.3279 4.29421 16.0733 4.07136 15.7372C3.85183 15.3978 3.74207 14.9752 3.74207 14.4694C3.74207 14.0434 3.82023 13.6857 3.97656 13.3961C4.13289 13.1066 4.34576 12.8737 4.61518 12.6973C4.8846 12.5209 5.19061 12.3878 5.53321 12.298C5.87913 12.2081 6.24168 12.1449 6.62086 12.1083C7.06657 12.0617 7.4258 12.0184 7.69854 11.9785C7.97129 11.9353 8.1692 11.872 8.29226 11.7888C8.41533 11.7056 8.47687 11.5825 8.47687 11.4194V11.3895C8.47687 11.0734 8.37708 10.8288 8.17751 10.6557C7.98127 10.4827 7.70187 10.3962 7.33932 10.3962C6.95681 10.3962 6.65246 10.481 6.42628 10.6507C6.2001 10.8171 6.05043 11.0268 5.97725 11.2797L4.01149 11.1199C4.11127 10.6541 4.30751 10.2514 4.60022 9.91197C4.89292 9.5692 5.27044 9.30631 5.73278 9.12328C6.19844 8.93693 6.73728 8.84375 7.3493 8.84375C7.77504 8.84375 8.1825 8.89367 8.57166 8.9935C8.96415 9.09333 9.31173 9.24807 9.61442 9.45772C9.92042 9.66737 10.1616 9.93692 10.3379 10.2664C10.5141 10.5925 10.6023 10.9835 10.6023 11.4394V16.6108H8.58663V15.5476H8.52676C8.40369 15.7872 8.23905 15.9985 8.03282 16.1815C7.8266 16.3612 7.5788 16.5026 7.28942 16.6058C7.00005 16.7056 6.66577 16.7555 6.28658 16.7555ZM6.89527 15.288C7.20793 15.288 7.48401 15.2264 7.72349 15.1033C7.96297 14.9768 8.1509 14.8071 8.28727 14.5941C8.42365 14.3812 8.49183 14.1399 8.49183 13.8704V13.0567C8.42531 13.1 8.33384 13.1399 8.21743 13.1765C8.10434 13.2098 7.97628 13.2414 7.83325 13.2714C7.69023 13.298 7.5472 13.3229 7.40418 13.3462C7.26115 13.3662 7.13143 13.3845 7.01502 13.4011C6.76555 13.4377 6.54769 13.496 6.36142 13.5758C6.17516 13.6557 6.03047 13.7639 5.92736 13.9003C5.82425 14.0334 5.77269 14.1998 5.77269 14.3995C5.77269 14.689 5.87747 14.9103 6.08701 15.0634C6.29989 15.2131 6.56931 15.288 6.89527 15.288Z"
    fill="#F1F3F5"
  />
  <path
    d="M1.12061 17.6289H2.22444V19.5779H21.7755V17.6289H22.8794V20.8024H1.12061V17.6289Z"
    fill="#F1F3F5"
  />
</svg>
