<svg width="17" height="16" viewBox="0 0 17 16" fill="none" xmlns="http://www.w3.org/2000/svg">
<path d="M8.4997 12.2C8.65883 12.2 8.81144 12.2632 8.92397 12.3757C9.03649 12.4883 9.0997 12.6409 9.0997 12.8V13.4C9.0997 13.5591 9.03649 13.7117 8.92397 13.8243C8.81144 13.9368 8.65883 14 8.4997 14C8.34057 14 8.18796 13.9368 8.07544 13.8243C7.96292 13.7117 7.8997 13.5591 7.8997 13.4V12.8C7.8997 12.6409 7.96292 12.4883 8.07544 12.3757C8.18796 12.2632 8.34057 12.2 8.4997 12.2ZM12.3181 10.97L12.7423 11.3942C12.8516 11.5074 12.9121 11.6589 12.9107 11.8162C12.9093 11.9736 12.8462 12.124 12.735 12.2353C12.6237 12.3465 12.4733 12.4096 12.3159 12.411C12.1586 12.4124 12.0071 12.3519 11.8939 12.2426L11.4697 11.8184C11.3604 11.7052 11.2999 11.5537 11.3013 11.3964C11.3027 11.239 11.3658 11.0886 11.477 10.9773C11.5883 10.8661 11.7387 10.803 11.8961 10.8016C12.0534 10.8002 12.2049 10.8607 12.3181 10.97ZM4.6813 10.97C4.78928 10.8624 4.93416 10.7999 5.08653 10.7953C5.2389 10.7906 5.38733 10.8441 5.50167 10.945C5.61601 11.0458 5.68769 11.1863 5.70214 11.3381C5.7166 11.4898 5.67275 11.6414 5.5795 11.762L5.5297 11.8184L5.1055 12.2426C4.99753 12.3502 4.85264 12.4127 4.70027 12.4173C4.5479 12.422 4.39947 12.3685 4.28513 12.2677C4.1708 12.1668 4.09912 12.0263 4.08466 11.8745C4.07021 11.7228 4.11405 11.5712 4.2073 11.4506L4.2571 11.3942L4.6813 10.97ZM8.4997 4.4C9.45448 4.4 10.3702 4.77928 11.0453 5.45442C11.7204 6.12955 12.0997 7.04522 12.0997 8C12.0997 8.95478 11.7204 9.87045 11.0453 10.5456C10.3702 11.2207 9.45448 11.6 8.4997 11.6C7.54492 11.6 6.62925 11.2207 5.95412 10.5456C5.27899 9.87045 4.8997 8.95478 4.8997 8C4.8997 7.04522 5.27899 6.12955 5.95412 5.45442C6.62925 4.77928 7.54492 4.4 8.4997 4.4ZM3.6997 7.4C3.85263 7.40017 3.99972 7.45873 4.11092 7.56371C4.22212 7.66869 4.28904 7.81217 4.298 7.96484C4.30697 8.1175 4.2573 8.26783 4.15914 8.3851C4.06099 8.50237 3.92176 8.57774 3.7699 8.5958L3.6997 8.6H3.0997C2.94677 8.59983 2.79968 8.54127 2.68848 8.43629C2.57728 8.33131 2.51036 8.18783 2.5014 8.03516C2.49244 7.8825 2.54211 7.73217 2.64026 7.6149C2.73841 7.49763 2.87764 7.42226 3.0295 7.4042L3.0997 7.4H3.6997ZM13.8997 7.4C14.0588 7.4 14.2114 7.46321 14.324 7.57574C14.4365 7.68826 14.4997 7.84087 14.4997 8C14.4997 8.15913 14.4365 8.31174 14.324 8.42426C14.2114 8.53679 14.0588 8.6 13.8997 8.6H13.2997C13.1406 8.6 12.988 8.53679 12.8754 8.42426C12.7629 8.31174 12.6997 8.15913 12.6997 8C12.6997 7.84087 12.7629 7.68826 12.8754 7.57574C12.988 7.46321 13.1406 7.4 13.2997 7.4H13.8997ZM4.2571 3.7574C4.36042 3.65409 4.49788 3.59204 4.64369 3.58287C4.78951 3.5737 4.93366 3.61805 5.0491 3.7076L5.1055 3.7574L5.5297 4.1816C5.63731 4.28957 5.69979 4.43446 5.70444 4.58683C5.70909 4.7392 5.65557 4.88763 5.55475 5.00197C5.45393 5.11631 5.31337 5.18798 5.16162 5.20244C5.00986 5.2169 4.8583 5.17305 4.7377 5.0798L4.6813 5.03L4.2571 4.6058C4.14462 4.49328 4.08143 4.3407 4.08143 4.1816C4.08143 4.0225 4.14462 3.86992 4.2571 3.7574ZM12.7423 3.7574C12.8548 3.86992 12.918 4.0225 12.918 4.1816C12.918 4.3407 12.8548 4.49328 12.7423 4.6058L12.3181 5.03C12.2628 5.08731 12.1965 5.13302 12.1233 5.16446C12.0501 5.19591 11.9714 5.21246 11.8917 5.21315C11.8121 5.21384 11.7331 5.19866 11.6593 5.16849C11.5856 5.13832 11.5186 5.09377 11.4623 5.03744C11.4059 4.9811 11.3614 4.91411 11.3312 4.84037C11.301 4.76663 11.2859 4.68763 11.2866 4.60796C11.2872 4.52829 11.3038 4.44956 11.3352 4.37636C11.3667 4.30315 11.4124 4.23695 11.4697 4.1816L11.8939 3.7574C12.0064 3.64492 12.159 3.58173 12.3181 3.58173C12.4772 3.58173 12.6298 3.64492 12.7423 3.7574ZM8.4997 2C8.65883 2 8.81144 2.06321 8.92397 2.17574C9.03649 2.28826 9.0997 2.44087 9.0997 2.6V3.2C9.0997 3.35913 9.03649 3.51174 8.92397 3.62426C8.81144 3.73679 8.65883 3.8 8.4997 3.8C8.34057 3.8 8.18796 3.73679 8.07544 3.62426C7.96292 3.51174 7.8997 3.35913 7.8997 3.2V2.6C7.8997 2.44087 7.96292 2.28826 8.07544 2.17574C8.18796 2.06321 8.34057 2 8.4997 2Z" fill="white"/>
</svg>
