<svg width="24" height="25" viewBox="0 0 24 25" fill="none" xmlns="http://www.w3.org/2000/svg">
<path d="M18.5 9.41895L18.5 6.41895L5.5 6.41895L5.5 9.41895L4.5 9.41895L4.5 6.91895C4.5 6.5026 4.64214 6.15831 4.94043 5.85938C5.23835 5.56094 5.58237 5.41853 5.99902 5.41895L18 5.41895C18.4165 5.41895 18.7604 5.56115 19.0586 5.85938C19.3196 6.12039 19.4615 6.41682 19.4932 6.7666L19.5 6.91992L19.5 9.41895L18.5 9.41895ZM11.5 20.4189L11.5 11.5615L10.6465 12.415L8.40723 14.6563L7.70117 13.9258L12 9.62598L16.2998 13.9258L15.5937 14.6563L13.3535 12.415L12.5 11.5615L12.5 20.4189L11.5 20.4189Z" fill="#9A52FF" stroke="#9A52FF"/>
</svg>
