<svg
  width="24"
  height="24"
  viewBox="0 0 24 24"
  fill="none"
  xmlns="http://www.w3.org/2000/svg"
>
  <path
    d="M14.186 2.75195V6.34795C14.186 6.83495 14.38 7.30295 14.726 7.64795C15.0729 7.99332 15.5425 8.18714 16.032 8.18695H20.157"
    fill="#F1F3F5"
  />
  <path
    d="M14.186 2.75195V6.34795C14.186 6.83495 14.38 7.30295 14.726 7.64795C15.0729 7.99332 15.5425 8.18714 16.032 8.18695H20.157"
    stroke="#F1F3F5"
    stroke-width="2"
    stroke-linecap="round"
    stroke-linejoin="round"
  />
  <path
    d="M20.25 8.56705V17.1351C20.2301 17.6955 20.0996 18.2464 19.8658 18.7562C19.6321 19.2659 19.2997 19.7243 18.888 20.1051C18.4759 20.4875 17.9925 20.7851 17.4654 20.9807C16.9383 21.1763 16.3778 21.2661 15.816 21.2451H8.226C7.66074 21.2709 7.09594 21.1849 6.56398 20.992C6.03201 20.7991 5.54335 20.5032 5.126 20.1211C4.71027 19.7393 4.37454 19.2788 4.13833 18.7661C3.90211 18.2535 3.77011 17.6991 3.75 17.1351V6.86105C3.76985 6.30063 3.90042 5.74967 4.13418 5.23993C4.36794 4.7302 4.70026 4.27177 5.112 3.89105C5.52408 3.50857 6.00748 3.21103 6.53458 3.01543C7.06169 2.81982 7.62217 2.72999 8.184 2.75105H13.898C14.7703 2.74797 15.6123 3.07072 16.259 3.65605L19.219 6.37805C19.5349 6.65013 19.7899 6.98565 19.9675 7.3628C20.1452 7.73994 20.2414 8.15026 20.25 8.56705Z"
    stroke="#F1F3F5"
    stroke-width="2"
    stroke-linecap="round"
    stroke-linejoin="round"
  />
  <path d="M12 10.498V17.272V10.498Z" fill="#F1F3F5" />
  <path
    d="M12 10.498V17.272"
    stroke="#F1F3F5"
    stroke-width="1.5"
    stroke-miterlimit="10"
    stroke-linecap="round"
  />
  <path
    d="M15.106 13.3492L12.441 10.6842C12.3834 10.6258 12.3147 10.5795 12.239 10.5479C12.1633 10.5163 12.0821 10.5 12 10.5C11.918 10.5 11.8368 10.5163 11.7611 10.5479C11.6854 10.5795 11.6167 10.6258 11.559 10.6842L8.89404 13.3502"
    fill="#F1F3F5"
  />
  <path
    d="M15.106 13.3492L12.441 10.6842C12.3834 10.6258 12.3147 10.5795 12.239 10.5479C12.1633 10.5163 12.0821 10.5 12 10.5C11.918 10.5 11.8368 10.5163 11.7611 10.5479C11.6854 10.5795 11.6167 10.6258 11.559 10.6842L8.89404 13.3502"
    stroke="#F1F3F5"
    stroke-width="2"
    stroke-linecap="round"
    stroke-linejoin="round"
  />
</svg>
