<svg
  width="28"
  height="28"
  viewBox="0 0 28 28"
  fill="none"
  xmlns="http://www.w3.org/2000/svg"
>
  <path
    d="M22.5833 8.3125H5.08325C3.6335 8.3125 2.45825 9.48775 2.45825 10.9375V21.4375C2.45825 22.8872 3.6335 24.0625 5.08325 24.0625H22.5833C24.033 24.0625 25.2083 22.8872 25.2083 21.4375V10.9375C25.2083 9.48775 24.033 8.3125 22.5833 8.3125Z"
    stroke="#F1F3F5"
    stroke-width="2.5"
    stroke-linejoin="round"
  />
  <path
    d="M22.3295 8.31162V6.671C22.3294 6.26861 22.2404 5.87121 22.069 5.50715C21.8976 5.14309 21.648 4.82135 21.3379 4.56488C21.0279 4.30841 20.665 4.12354 20.2753 4.02344C19.8856 3.92335 19.4785 3.91051 19.0833 3.98584L4.68075 6.44404C4.0553 6.56323 3.49105 6.89695 3.08532 7.38764C2.67959 7.87833 2.45782 8.49523 2.45825 9.13193V11.8116"
    stroke="#F1F3F5"
    stroke-width="2.5"
    stroke-linejoin="round"
  />
  <path
    d="M19.6204 14.4863C19.9567 14.4195 20.3055 14.4538 20.6223 14.585C20.9391 14.7162 21.2101 14.9385 21.4006 15.2236C21.5912 15.5088 21.6926 15.8445 21.6926 16.1875C21.6926 16.6475 21.5101 17.0888 21.1848 17.4141C20.8596 17.7393 20.4182 17.9219 19.9583 17.9219C19.6152 17.9219 19.2796 17.8205 18.9944 17.6299C18.7093 17.4394 18.487 17.1684 18.3557 16.8516C18.2245 16.5348 18.1903 16.1859 18.2571 15.8496C18.324 15.5132 18.4891 15.2035 18.7317 14.9609C18.9742 14.7184 19.2839 14.5532 19.6204 14.4863Z"
    fill="#F1F3F5"
    stroke="#F1F3F5"
    stroke-width="0.03125"
  />
</svg>
