<svg
  width="56"
  height="48"
  viewBox="0 0 56 48"
  fill="none"
  xmlns="http://www.w3.org/2000/svg"
>
  <path
    d="M2.60571 47.1593C1.05868 47.1593 0.097394 45.4781 0.882075 44.1448L26.2764 0.997016C27.0498 -0.317074 28.9502 -0.317072 29.7236 0.997018L55.1179 44.1448C55.9026 45.4781 54.9413 47.1593 53.3943 47.1593H2.60571ZM28 41.513C29.1222 41.513 30.081 41.1152 30.8764 40.3198C31.6861 39.5101 32.0909 38.5442 32.0909 37.4221C32.0909 36.2999 31.6861 35.3411 30.8764 34.5456C30.081 33.7502 29.1222 33.3525 28 33.3525C26.8778 33.3525 25.9119 33.7502 25.1023 34.5456C24.3068 35.3411 23.9091 36.2999 23.9091 37.4221C23.9091 38.5442 24.3068 39.5101 25.1023 40.3198C25.9119 41.1152 26.8778 41.513 28 41.513ZM24.9707 26.8403C24.9965 27.926 25.8841 28.7928 26.9701 28.7928H29.0299C30.116 28.7928 31.0035 27.926 31.0293 26.8403L31.2753 16.4795C31.3019 15.3566 30.399 14.432 29.2758 14.432H26.7242C25.601 14.432 24.6981 15.3566 24.7247 16.4795L24.9707 26.8403Z"
    fill="#FED911"
  />
</svg>
