<svg
  width="21"
  height="20"
  viewBox="0 0 21 20"
  fill="none"
  xmlns="http://www.w3.org/2000/svg"
>
  <g clip-path="url(#clip0_124_3837)">
    <path
      d="M10.0557 8.5C10.4535 8.5 10.8349 8.65815 11.1162 8.93945C11.3975 9.22076 11.5557 9.60218 11.5557 10C11.5557 10.3978 11.3975 10.7792 11.1162 11.0605C10.8349 11.3419 10.4535 11.5 10.0557 11.5C9.65784 11.5 9.27642 11.3419 8.99512 11.0605C8.71381 10.7792 8.55566 10.3978 8.55566 10L8.56348 9.85156C8.59762 9.50826 8.74903 9.18554 8.99512 8.93945C9.2412 8.69337 9.56393 8.54195 9.90723 8.50781L10.0557 8.5Z"
      fill="#F1F3F5"
      stroke="#F1F3F5"
    />
    <path
      d="M10.0557 3.5C14.2535 3.5 17.8144 6.2233 19.0703 10C17.8144 13.7767 14.2535 16.5 10.0557 16.5C5.85771 16.5 2.29588 13.7768 1.04004 10C2.29588 6.22315 5.85771 3.5 10.0557 3.5ZM10.0557 5.5C8.86219 5.5 7.71794 5.97445 6.87402 6.81836C6.03011 7.66227 5.55566 8.80653 5.55566 10C5.55566 11.1935 6.03011 12.3377 6.87402 13.1816C7.71794 14.0256 8.86219 14.5 10.0557 14.5C11.2491 14.5 12.3934 14.0256 13.2373 13.1816C14.0812 12.3377 14.5557 11.1935 14.5557 10C14.5557 8.80653 14.0812 7.66227 13.2373 6.81836C12.3934 5.97445 11.2491 5.5 10.0557 5.5Z"
      fill="#F1F3F5"
      stroke="#F1F3F5"
    />
  </g>
  <defs>
    <clipPath id="clip0_124_3837">
      <rect
        width="20"
        height="20"
        fill="white"
        transform="translate(0.0556641)"
      />
    </clipPath>
  </defs>
</svg>
