<svg
  width="25"
  height="24"
  viewBox="0 0 25 24"
  fill="none"
  xmlns="http://www.w3.org/2000/svg"
>
  <path
    d="M9.05066 10.5C9.11527 10.5 9.17948 10.5133 9.23914 10.5381C9.29881 10.563 9.35376 10.5986 9.39929 10.6445L11.7059 12.9717L12.0614 13.3301L12.4159 12.9717L14.7137 10.6553L14.7157 10.6543C14.7609 10.6084 14.8145 10.5718 14.8739 10.5469C14.9335 10.522 14.9978 10.5088 15.0624 10.5088C15.1268 10.5088 15.1904 10.522 15.2499 10.5469C15.2797 10.5594 15.3082 10.5747 15.3348 10.5928L15.4091 10.6543C15.5033 10.7497 15.5565 10.8786 15.5565 11.0127C15.5565 11.1464 15.5038 11.2748 15.41 11.3701L12.4803 14.3252C12.3642 14.4424 12.216 14.499 12.0663 14.499C11.9529 14.499 11.8373 14.4664 11.7352 14.3994L11.6385 14.3213L8.703 11.3604H8.70398C8.60974 11.2651 8.55652 11.136 8.55652 11.002C8.55665 10.8681 8.60888 10.7387 8.703 10.6436C8.74829 10.5981 8.80295 10.5628 8.86218 10.5381C8.92177 10.5133 8.98611 10.5001 9.05066 10.5Z"
    fill="#F1F3F5"
    stroke="#F1F3F5"
  />
</svg>
