<svg
  width="16"
  height="16"
  viewBox="0 0 16 16"
  fill="none"
  xmlns="http://www.w3.org/2000/svg"
>
  <path
    d="M3.33333 4.66732V11.334H12.6667V4.66732H3.33333ZM12.6667 3.33398C13.4 3.33398 14 3.93398 14 4.66732V11.334C14 12.0673 13.4 12.6673 12.6667 12.6673H3.33333C2.6 12.6673 2 12.0673 2 11.334V4.66732C2 3.93398 2.6 3.33398 3.33333 3.33398H12.6667Z"
    fill="#F1F3F5"
  />
  <path
    fill-rule="evenodd"
    clip-rule="evenodd"
    d="M3.66533 4.33398H2.08267C2.182 4.62732 2.34867 4.90332 2.58267 5.13732L6.504 9.05798C6.69698 9.25113 6.92614 9.40436 7.17837 9.5089C7.4306 9.61344 7.70096 9.66725 7.974 9.66725C8.24704 9.66725 8.5174 9.61344 8.76963 9.5089C9.02186 9.40436 9.25102 9.25113 9.444 9.05798L13.3653 5.13732C13.5987 4.90332 13.7653 4.62732 13.8647 4.33398H12.2827L8.50133 8.11532C8.43206 8.18464 8.3498 8.23963 8.25926 8.27715C8.16872 8.31467 8.07167 8.33398 7.97367 8.33398C7.87566 8.33398 7.77862 8.31467 7.68808 8.27715C7.59754 8.23963 7.51528 8.18464 7.446 8.11532L3.66533 4.33398Z"
    fill="#F1F3F5"
  />
</svg>
