<svg
  width="21"
  height="21"
  viewBox="0 0 21 21"
  fill="none"
  xmlns="http://www.w3.org/2000/svg"
>
  <path
    d="M14.2739 3.41992C14.3281 3.42669 14.3807 3.44376 14.4282 3.4707C14.4757 3.49769 14.5177 3.53409 14.5513 3.57715C14.5848 3.62029 14.61 3.66997 14.6245 3.72266C14.639 3.77529 14.6429 3.83059 14.6362 3.88477L14.3364 6.28223L14.2778 6.75H16.7231C16.8334 6.75009 16.9391 6.79417 17.0171 6.87207C17.0952 6.95021 17.1392 7.05648 17.1392 7.16699C17.1391 7.27745 17.0952 7.38381 17.0171 7.46191C16.9391 7.53973 16.8333 7.5839 16.7231 7.58398H14.1743L14.1284 7.94824L13.4448 13.417H16.7231C16.8335 13.4171 16.939 13.4611 17.0171 13.5391C17.0952 13.6172 17.1392 13.7235 17.1392 13.834C17.139 13.9443 17.0951 14.0499 17.0171 14.1279C16.939 14.2059 16.8335 14.2499 16.7231 14.25H13.3403L13.2954 14.6152L12.9702 17.2188C12.9634 17.273 12.9455 17.3255 12.9185 17.373C12.8915 17.4204 12.856 17.4626 12.813 17.4961C12.7699 17.5296 12.7201 17.5538 12.6675 17.5684C12.6148 17.5828 12.5596 17.5868 12.5054 17.5801C12.4511 17.5733 12.3977 17.5564 12.3501 17.5293C12.3027 17.5023 12.2615 17.4658 12.228 17.4229C12.1944 17.3796 12.1693 17.3301 12.1548 17.2773C12.1476 17.2511 12.1431 17.2243 12.1411 17.1973L12.1431 17.1152L12.4429 14.7188L12.5015 14.25H6.67334L6.62744 14.6152L6.30225 17.2188C6.28848 17.3283 6.23221 17.4283 6.14502 17.4961C6.05777 17.5639 5.94706 17.5938 5.8374 17.5801C5.72774 17.5664 5.62793 17.5101 5.56006 17.4229C5.50915 17.3574 5.47911 17.2788 5.47314 17.1973L5.4751 17.1152L5.77588 14.7188L5.83545 14.25H3.38916C3.2788 14.2499 3.17327 14.2059 3.09521 14.1279C3.01719 14.0499 2.97327 13.9443 2.97314 13.834C2.97314 13.7235 3.01707 13.6172 3.09521 13.5391C3.17327 13.4611 3.27881 13.4171 3.38916 13.417H5.93799L5.98389 13.0518L6.60889 8.05176L6.66748 7.58398H3.38916C3.27896 7.5839 3.17324 7.53973 3.09521 7.46191C3.01711 7.38381 2.97318 7.27745 2.97314 7.16699C2.97314 7.05649 3.01707 6.95021 3.09521 6.87207C3.17325 6.79416 3.27889 6.75009 3.38916 6.75H6.77197L6.81689 6.38477L7.14209 3.78223C7.14888 3.72793 7.16679 3.67549 7.19385 3.62793C7.22092 3.58036 7.25707 3.53847 7.30029 3.50488C7.34337 3.47144 7.39224 3.44612 7.44482 3.43164C7.49761 3.41716 7.5536 3.41309 7.60791 3.41992C7.71745 3.43369 7.81747 3.49097 7.88525 3.57812C7.95278 3.66513 7.98274 3.77546 7.96924 3.88477L7.66943 6.28223L7.61084 6.75H13.438L13.4839 6.38477L13.8091 3.78223C13.8228 3.67265 13.8792 3.57276 13.9663 3.50488C14.0095 3.47128 14.0591 3.44616 14.1118 3.43164C14.1645 3.41714 14.2197 3.41316 14.2739 3.41992ZM7.46143 7.94824L6.83643 12.9482L6.77881 13.417H12.605L12.6509 13.0518L13.2759 8.05176L13.3335 7.58398H7.50732L7.46143 7.94824Z"
    fill="#F1F3F5"
    stroke="#F1F3F5"
    stroke-width="0.833333"
  />
</svg>
