<svg
  width="24"
  height="24"
  viewBox="0 0 24 24"
  fill="none"
  xmlns="http://www.w3.org/2000/svg"
>
  <path
    d="M7.34996 20.98C6.69396 20.98 6.13496 20.7523 5.67296 20.297C5.21162 19.8403 4.98096 19.2863 4.98096 18.635C4.98096 18.075 5.15896 17.5783 5.51496 17.145C5.87029 16.7117 6.31396 16.4397 6.84596 16.329V7.67C6.31396 7.56 5.87029 7.28833 5.51496 6.855C5.15896 6.42167 4.98096 5.925 4.98096 5.365C4.98096 4.70767 5.21062 4.149 5.66996 3.689C6.12929 3.229 6.68696 2.99933 7.34296 3C7.99896 3.00067 8.55762 3.23067 9.01896 3.69C9.48029 4.14933 9.71129 4.708 9.71196 5.366C9.71196 5.926 9.53729 6.42267 9.18796 6.856C8.83862 7.28933 8.39129 7.561 7.84596 7.671V8.211C7.84596 9.12434 8.15996 9.901 8.78796 10.541C9.41662 11.1803 10.1796 11.5 11.077 11.5H12.923C14.0883 11.5 15.0816 11.9163 15.903 12.749C16.7243 13.5817 17.135 14.5883 17.135 15.769V16.329C17.6796 16.439 18.1296 16.7077 18.485 17.135C18.841 17.5617 19.019 18.055 19.019 18.615C19.019 19.2723 18.785 19.831 18.317 20.291C17.8496 20.751 17.2896 20.981 16.637 20.981C15.9843 20.981 15.4296 20.751 14.973 20.291C14.5163 19.831 14.288 19.2727 14.288 18.616C14.288 18.0553 14.4626 17.5617 14.812 17.135C15.162 16.7083 15.603 16.4397 16.135 16.329V15.769C16.135 14.8717 15.8226 14.1027 15.198 13.462C14.5733 12.8207 13.815 12.5 12.923 12.5H11.077C10.4076 12.5 9.79629 12.355 9.24296 12.065C8.68962 11.7743 8.22396 11.3873 7.84596 10.904V16.329C8.39062 16.439 8.83762 16.7077 9.18696 17.135C9.53629 17.5617 9.71096 18.055 9.71096 18.615C9.71096 19.2723 9.48129 19.831 9.02196 20.291C8.56329 20.751 8.00562 20.981 7.34896 20.981M7.35596 20C7.73529 20 8.05596 19.8693 8.31796 19.608C8.57996 19.3467 8.71096 19.0227 8.71096 18.636C8.71096 18.2493 8.58029 17.925 8.31896 17.663C8.05762 17.401 7.73329 17.2697 7.34596 17.269C6.97262 17.269 6.65196 17.4033 6.38396 17.672C6.11529 17.9407 5.98096 18.2617 5.98096 18.635C5.98096 19.0083 6.11529 19.329 6.38396 19.597C6.65196 19.8657 6.97596 20 7.35596 20ZM16.644 20C17.024 20 17.345 19.8693 17.607 19.608C17.869 19.3467 18 19.0227 18 18.636C18 18.2493 17.8693 17.9247 17.608 17.662C17.3466 17.3993 17.0223 17.2683 16.635 17.269C16.2616 17.269 15.9406 17.4033 15.672 17.672C15.4033 17.9407 15.269 18.2617 15.269 18.635C15.269 19.0083 15.4033 19.329 15.672 19.597C15.9406 19.865 16.2646 19.9993 16.644 20ZM7.35596 6.73C7.73529 6.73 8.05596 6.59967 8.31796 6.339C8.57996 6.07834 8.71129 5.75433 8.71196 5.367C8.71262 4.97967 8.58162 4.655 8.31896 4.393C8.05629 4.131 7.73196 4 7.34596 4C6.97262 4 6.65196 4.13433 6.38396 4.403C6.11529 4.67167 5.98096 4.99267 5.98096 5.366C5.98096 5.73934 6.11529 6.06 6.38396 6.328C6.65262 6.596 6.97662 6.72933 7.35596 6.73Z"
    fill="#F1F3F5"
  />
  <path
    d="M7.34996 20.98C6.69396 20.98 6.13496 20.7523 5.67296 20.297C5.21162 19.8403 4.98096 19.2863 4.98096 18.635C4.98096 18.075 5.15896 17.5783 5.51496 17.145C5.87029 16.7117 6.31396 16.4397 6.84596 16.329V7.67C6.31396 7.56 5.87029 7.28833 5.51496 6.855C5.15896 6.42167 4.98096 5.925 4.98096 5.365C4.98096 4.70767 5.21062 4.149 5.66996 3.689C6.12929 3.229 6.68696 2.99933 7.34296 3C7.99896 3.00067 8.55762 3.23067 9.01896 3.69C9.48029 4.14933 9.71129 4.708 9.71196 5.366C9.71196 5.926 9.53729 6.42267 9.18796 6.856C8.83862 7.28933 8.39129 7.561 7.84596 7.671V8.211C7.84596 9.12434 8.15996 9.901 8.78796 10.541C9.41662 11.1803 10.1796 11.5 11.077 11.5H12.923C14.0883 11.5 15.0816 11.9163 15.903 12.749C16.7243 13.5817 17.135 14.5883 17.135 15.769V16.329C17.6796 16.439 18.1296 16.7077 18.485 17.135C18.841 17.5617 19.019 18.055 19.019 18.615C19.019 19.2723 18.785 19.831 18.317 20.291C17.8496 20.751 17.2896 20.981 16.637 20.981C15.9843 20.981 15.4296 20.751 14.973 20.291C14.5163 19.831 14.288 19.2727 14.288 18.616C14.288 18.0553 14.4626 17.5617 14.812 17.135C15.162 16.7083 15.603 16.4397 16.135 16.329V15.769C16.135 14.8717 15.8226 14.1027 15.198 13.462C14.5733 12.8207 13.815 12.5 12.923 12.5H11.077C10.4076 12.5 9.79629 12.355 9.24296 12.065C8.68962 11.7743 8.22396 11.3873 7.84596 10.904V16.329C8.39062 16.439 8.83762 16.7077 9.18696 17.135C9.53629 17.5617 9.71096 18.055 9.71096 18.615C9.71096 19.2723 9.48129 19.831 9.02196 20.291C8.56329 20.751 8.00562 20.981 7.34896 20.981M7.35596 20C7.73529 20 8.05596 19.8693 8.31796 19.608C8.57996 19.3467 8.71096 19.0227 8.71096 18.636C8.71096 18.2493 8.58029 17.925 8.31896 17.663C8.05762 17.401 7.73329 17.2697 7.34596 17.269C6.97262 17.269 6.65196 17.4033 6.38396 17.672C6.11529 17.9407 5.98096 18.2617 5.98096 18.635C5.98096 19.0083 6.11529 19.329 6.38396 19.597C6.65196 19.8657 6.97596 20 7.35596 20ZM16.644 20C17.024 20 17.345 19.8693 17.607 19.608C17.869 19.3467 18 19.0227 18 18.636C18 18.2493 17.8693 17.9247 17.608 17.662C17.3466 17.3993 17.0223 17.2683 16.635 17.269C16.2616 17.269 15.9406 17.4033 15.672 17.672C15.4033 17.9407 15.269 18.2617 15.269 18.635C15.269 19.0083 15.4033 19.329 15.672 19.597C15.9406 19.865 16.2646 19.9993 16.644 20ZM7.35596 6.73C7.73529 6.73 8.05596 6.59967 8.31796 6.339C8.57996 6.07833 8.71129 5.75433 8.71196 5.367C8.71262 4.97967 8.58162 4.655 8.31896 4.393C8.05629 4.131 7.73196 4 7.34596 4C6.97262 4 6.65196 4.13433 6.38396 4.403C6.11529 4.67167 5.98096 4.99267 5.98096 5.366C5.98096 5.73933 6.11529 6.06 6.38396 6.328C6.65262 6.596 6.97662 6.72933 7.35596 6.73Z"
    stroke="#F1F3F5"
    stroke-width="0.5"
  />
</svg>
