<svg
  width="24"
  height="24"
  viewBox="0 0 24 24"
  fill="none"
  xmlns="http://www.w3.org/2000/svg"
>
  <path
    d="M12 2.5C17.2469 2.5 21.5 6.75314 21.5 12C21.5 17.2469 17.2469 21.5 12 21.5C6.75314 21.5 2.5 17.2469 2.5 12C2.5 6.75314 6.75314 2.5 12 2.5ZM12 3.5C9.74566 3.5 7.58332 4.3952 5.98926 5.98926C4.3952 7.58332 3.5 9.74566 3.5 12C3.5 14.2543 4.3952 16.4167 5.98926 18.0107C7.58332 19.6048 9.74566 20.5 12 20.5C14.2543 20.5 16.4167 19.6048 18.0107 18.0107C19.6048 16.4167 20.5 14.2543 20.5 12C20.5 9.74566 19.6048 7.58332 18.0107 5.98926C16.4167 4.3952 14.2543 3.5 12 3.5Z"
    fill="#F1F3F5"
    stroke="#F1F3F5"
  />
  <path
    d="M12 16.5C12.1326 16.5 12.2597 16.5527 12.3535 16.6465C12.4473 16.7403 12.5 16.8674 12.5 17C12.5 17.1326 12.4473 17.2597 12.3535 17.3535C12.2597 17.4473 12.1326 17.5 12 17.5C11.8674 17.5 11.7403 17.4473 11.6465 17.3535C11.5527 17.2597 11.5 17.1326 11.5 17C11.5 16.8674 11.5527 16.7403 11.6465 16.6465C11.7403 16.5527 11.8674 16.5 12 16.5Z"
    fill="#F1F3F5"
    stroke="#F1F3F5"
  />
  <path
    d="M11.8462 6.14551C12.3487 6.12588 13.0254 6.20388 13.6636 6.47754L13.9341 6.60742C14.6651 6.99625 15.3041 7.6808 15.4634 8.77246C15.5966 9.68905 15.0038 10.4292 14.4087 10.8623C13.8967 11.2341 13.3956 11.6502 13.0317 12.1221C12.6734 12.5859 12.4678 13.076 12.4849 13.6133V13.6143C12.4869 13.7449 12.438 13.8719 12.3481 13.9668C12.2583 14.0615 12.1348 14.117 12.0044 14.1221C11.8739 14.1271 11.7468 14.0808 11.6499 13.9932C11.5543 13.9066 11.495 13.7867 11.4858 13.6582C11.4546 12.8165 11.7863 12.0999 12.2407 11.5117C12.6924 10.9278 13.2832 10.444 13.8208 10.0537V10.0527C14.0438 9.89043 14.2264 9.69921 14.3423 9.50195L14.3442 9.49805C14.4599 9.29688 14.4996 9.10703 14.4751 8.92285L14.4731 8.91602L14.4507 8.78418C14.3173 8.13998 13.937 7.74046 13.4653 7.48926H13.4644C12.9445 7.21337 12.328 7.12813 11.8853 7.14453H11.8843C10.3579 7.20399 9.5605 8.11675 9.49072 8.8291L9.48682 8.96875C9.49186 9.10102 9.44379 9.2299 9.354 9.32715C9.26401 9.42445 9.13878 9.48203 9.00635 9.4873C8.87391 9.49247 8.74434 9.44538 8.64697 9.35547C8.57384 9.28783 8.52341 9.19995 8.50049 9.10449L8.48682 9.00684C8.43347 7.62029 9.71243 6.38468 11.4849 6.17383L11.8462 6.14551Z"
    fill="#F1F3F5"
    stroke="#F1F3F5"
  />
</svg>
