<svg
  width="28"
  height="28"
  viewBox="0 0 28 28"
  fill="none"
  xmlns="http://www.w3.org/2000/svg"
>
  <path
    d="M14.0002 2.91504C16.0788 2.91514 18.0867 3.66997 19.6506 5.03906C21.2146 6.40837 22.2284 8.29986 22.5032 10.3604L23.9114 20.9219C23.9223 21.004 23.9157 21.0876 23.8918 21.167C23.8678 21.2465 23.8265 21.3203 23.7717 21.3828C23.7171 21.4453 23.65 21.4959 23.5745 21.5303C23.4988 21.5646 23.4163 21.582 23.3333 21.582H19.0657L18.9026 21.8975C17.9294 23.7793 16.1228 25.0819 14.0002 25.082C11.8776 25.082 10.0712 23.7793 9.0979 21.8975L8.93481 21.582H4.66724C4.58424 21.582 4.50162 21.5645 4.42603 21.5303C4.35036 21.4959 4.28252 21.4453 4.22778 21.3828C4.17313 21.3203 4.13265 21.2465 4.10864 21.167C4.0847 21.0876 4.07818 21.0041 4.08911 20.9219L5.49731 10.3604C5.77208 8.29986 6.78487 6.40837 8.34888 5.03906C9.91288 3.66978 11.9215 2.91506 14.0002 2.91504ZM10.9866 22.5684C11.7953 23.4129 12.8632 23.915 14.0002 23.915C15.1369 23.915 16.206 23.4134 17.0139 22.5684L17.9573 21.582H10.0413L10.9866 22.5684Z"
    fill="#F1F3F5"
    stroke="#F1F3F5"
    stroke-width="1.16667"
  />
</svg>
