<svg
  width="16"
  height="17"
  viewBox="0 0 16 17"
  fill="none"
  xmlns="http://www.w3.org/2000/svg"
>
  <g clip-path="url(#clip0_371_4241)">
    <path
      d="M4.5 8.0293H10.325C10.4341 8.72881 10.7721 9.3724 11.286 9.8593V13.0763C10.456 13.6563 9.346 14.0293 8 14.0293C4.86 14.0293 3 12.0003 3 10.0293V9.5293C3 9.13147 3.15804 8.74994 3.43934 8.46864C3.72064 8.18733 4.10218 8.0293 4.5 8.0293ZM8 1.5293C8.72935 1.5293 9.42882 1.81903 9.94454 2.33475C10.4603 2.85048 10.75 3.54995 10.75 4.2793C10.75 5.00864 10.4603 5.70812 9.94454 6.22384C9.42882 6.73957 8.72935 7.0293 8 7.0293C7.27065 7.0293 6.57118 6.73957 6.05546 6.22384C5.53973 5.70812 5.25 5.00864 5.25 4.2793C5.25 3.54995 5.53973 2.85048 6.05546 2.33475C6.57118 1.81903 7.27065 1.5293 8 1.5293ZM14.241 9.9173C14.7774 9.75102 15.2423 9.40903 15.5607 8.94642C15.8791 8.4838 16.0325 7.92748 15.9963 7.36705C15.9601 6.80661 15.7362 6.27469 15.3609 5.85693C14.9856 5.43917 14.4806 5.1599 13.9272 5.06409C13.3738 4.96829 12.8043 5.06151 12.3104 5.32877C11.8164 5.59602 11.4268 6.02174 11.2043 6.53737C10.9817 7.053 10.9392 7.62852 11.0835 8.17126C11.2279 8.714 11.5507 9.19235 12 9.5293V13.3873C12 13.4783 12.035 13.5663 12.097 13.6323L13.263 14.8723C13.4 15.0163 13.629 15.0223 13.772 14.8823L14.938 13.7523C15.0013 13.691 15.0396 13.6085 15.0457 13.5206C15.0518 13.4328 15.0252 13.3457 14.971 13.2763L14 12.0293L14.9 11.2593C14.9714 11.1982 15.0158 11.1115 15.0237 11.0179C15.0315 10.9243 15.0022 10.8314 14.942 10.7593L14.241 9.9173ZM14.25 6.7793C14.25 6.97821 14.171 7.16897 14.0303 7.30963C13.8897 7.45028 13.6989 7.5293 13.5 7.5293C13.3011 7.5293 13.1103 7.45028 12.9697 7.30963C12.829 7.16897 12.75 6.97821 12.75 6.7793C12.75 6.58038 12.829 6.38962 12.9697 6.24897C13.1103 6.10831 13.3011 6.0293 13.5 6.0293C13.6989 6.0293 13.8897 6.10831 14.0303 6.24897C14.171 6.38962 14.25 6.58038 14.25 6.7793Z"
      fill="#F1F3F5"
    />
  </g>
  <defs>
    <clipPath id="clip0_371_4241">
      <rect
        width="16"
        height="16"
        fill="white"
        transform="translate(0 0.0292969)"
      />
    </clipPath>
  </defs>
</svg>
