<svg
  width="28"
  height="28"
  viewBox="0 0 28 28"
  fill="none"
  xmlns="http://www.w3.org/2000/svg"
>
  <path
    d="M12.8334 4.08301C14.4708 4.08283 16.0758 4.54264 17.4652 5.40918C18.8544 6.27571 19.9727 7.51487 20.6927 8.98535C21.4128 10.4558 21.7058 12.0988 21.5385 13.7275C21.3711 15.3564 20.7497 16.9058 19.7455 18.1992L19.4301 18.6055L23.7386 22.9141L23.809 23.0029C23.8703 23.098 23.9037 23.2095 23.9027 23.3242C23.9013 23.477 23.8398 23.6233 23.7318 23.7314C23.6237 23.8396 23.4766 23.901 23.3236 23.9023C23.1708 23.9036 23.0234 23.8444 22.9135 23.7383L18.6058 19.4307L18.1996 19.7461C17.0996 20.5998 15.8115 21.1787 14.4427 21.4346C13.074 21.6905 11.6637 21.6155 10.3295 21.2168C8.99529 20.8181 7.77582 20.1065 6.77185 19.1416C5.76789 18.1767 5.00831 16.9863 4.55701 15.6689C4.10579 14.3518 3.97583 12.946 4.17712 11.5684C4.37849 10.1905 4.90579 8.88016 5.71521 7.74707C6.52457 6.61417 7.59249 5.69089 8.83044 5.05371C10.0686 4.41648 11.4409 4.08322 12.8334 4.08301ZM12.8334 5.25C11.8375 5.25 10.8511 5.44605 9.93103 5.82715C9.01114 6.20821 8.17515 6.76667 7.47107 7.4707C6.76689 8.17488 6.20861 9.01159 5.82751 9.93164C5.44651 10.8515 5.25041 11.8373 5.25037 12.833C5.25037 14.8442 6.04901 16.7732 7.47107 18.1953C8.89322 19.6175 10.8221 20.417 12.8334 20.417C14.8446 20.417 16.7735 19.6175 18.1957 18.1953C19.6177 16.7732 20.4164 14.8441 20.4164 12.833C20.4163 11.8373 20.2202 10.8515 19.8392 9.93164C19.4581 9.01159 18.8999 8.17488 18.1957 7.4707C17.4916 6.76666 16.6556 6.20822 15.7357 5.82715C14.8157 5.44605 13.8292 5.25 12.8334 5.25ZM12.8334 8.75C13.9163 8.75001 14.9553 9.18052 15.7211 9.94629C16.4866 10.712 16.9163 11.7503 16.9164 12.833C16.9164 13.9159 16.4867 14.9549 15.7211 15.7207C14.9553 16.4865 13.9163 16.917 12.8334 16.917C11.7504 16.917 10.7115 16.4865 9.94568 15.7207C9.18 14.9549 8.75037 13.9159 8.75037 12.833C8.75045 11.7503 9.18018 10.712 9.94568 9.94629C10.7115 9.18052 11.7504 8.75 12.8334 8.75Z"
    fill="#F1F3F5"
    stroke="#F1F3F5"
    stroke-width="1.16667"
  />
</svg>
