<svg
  width="24"
  height="24"
  viewBox="0 0 24 24"
  fill="none"
  xmlns="http://www.w3.org/2000/svg"
>
  <path
    d="M20.9561 14.0686C20.9796 14.1642 20.984 14.2634 20.9692 14.3607C20.9543 14.4579 20.9204 14.5513 20.8695 14.6355C20.8185 14.7196 20.7515 14.7929 20.6722 14.8512C20.5929 14.9094 20.503 14.9515 20.4074 14.975L18.1004 15.5367L18.7053 17.7941C18.7307 17.8891 18.7372 17.9883 18.7244 18.0858C18.7116 18.1834 18.6796 18.2775 18.6304 18.3627C18.5812 18.4479 18.5157 18.5226 18.4376 18.5824C18.3595 18.6423 18.2704 18.6862 18.1753 18.7116C18.1122 18.7298 18.0471 18.7398 17.9815 18.7416C17.8167 18.7415 17.6566 18.687 17.5259 18.5866C17.3953 18.4862 17.3013 18.3456 17.2587 18.1864L16.5359 15.4899L12.7384 13.2981V17.6827L14.7663 19.7097C14.8359 19.7793 14.8911 19.8619 14.9288 19.9529C14.9665 20.0438 14.9858 20.1412 14.9858 20.2397C14.9858 20.3381 14.9665 20.4355 14.9288 20.5265C14.8911 20.6174 14.8359 20.7 14.7663 20.7696C14.6967 20.8392 14.6141 20.8944 14.5232 20.932C14.4323 20.9697 14.3348 20.9891 14.2364 20.9891C14.138 20.9891 14.0405 20.9697 13.9496 20.932C13.8587 20.8944 13.7761 20.8392 13.7065 20.7696L11.9893 19.0515L10.2722 20.7696C10.2026 20.8392 10.12 20.8944 10.0291 20.932C9.93814 20.9697 9.84068 20.9891 9.74226 20.9891C9.64385 20.9891 9.54639 20.9697 9.45547 20.932C9.36454 20.8944 9.28192 20.8392 9.21233 20.7696C9.14274 20.7 9.08754 20.6174 9.04987 20.5265C9.01221 20.4355 8.99283 20.3381 8.99283 20.2397C8.99283 20.1412 9.01221 20.0438 9.04987 19.9529C9.08754 19.8619 9.14274 19.7793 9.21233 19.7097L11.2403 17.6827V13.2981L7.4437 15.4899L6.7209 18.1864C6.67822 18.3457 6.58415 18.4865 6.45329 18.5869C6.32242 18.6873 6.16209 18.7417 5.99715 18.7416C5.93143 18.7415 5.86599 18.733 5.80241 18.7163C5.70735 18.6909 5.61823 18.647 5.54015 18.5871C5.46206 18.5272 5.39654 18.4526 5.34733 18.3674C5.29812 18.2821 5.26617 18.1881 5.25333 18.0905C5.24049 17.993 5.24699 17.8938 5.27247 17.7988L5.87731 15.5414L3.57032 14.9796C3.37738 14.9322 3.21118 14.8101 3.10828 14.6401C3.00539 14.4701 2.97423 14.2663 3.02166 14.0733C3.06909 13.8804 3.19122 13.7142 3.36119 13.6113C3.53115 13.5084 3.73504 13.4772 3.92798 13.5247L6.68532 14.2016L10.4913 12.0004L6.68625 9.8039L3.92891 10.4808C3.87039 10.4952 3.81034 10.5024 3.75008 10.5024C3.56694 10.5025 3.39009 10.4355 3.25298 10.3141C3.11587 10.1927 3.028 10.0252 3.00598 9.8434C2.98396 9.66158 3.02931 9.478 3.13347 9.32735C3.23763 9.17671 3.39337 9.06945 3.57125 9.02585L5.87824 8.46408L5.27341 6.20204C5.22201 6.01009 5.24896 5.80558 5.34834 5.63351C5.44773 5.46143 5.61139 5.33588 5.80334 5.28448C5.99529 5.23308 6.1998 5.26004 6.37187 5.35942C6.54395 5.4588 6.66949 5.62247 6.7209 5.81442L7.4437 8.5109L11.2403 10.7027V6.31813L9.21233 4.29109C9.07178 4.15054 8.99283 3.95992 8.99283 3.76116C8.99283 3.66274 9.01221 3.56529 9.04987 3.47436C9.08754 3.38343 9.14274 3.30082 9.21233 3.23122C9.28192 3.16163 9.36454 3.10643 9.45547 3.06877C9.54639 3.0311 9.64385 3.01172 9.74226 3.01172C9.94103 3.01172 10.1317 3.09068 10.2722 3.23122L11.9893 4.94929L13.7065 3.23122C13.847 3.09068 14.0376 3.01172 14.2364 3.01172C14.4352 3.01172 14.6258 3.09068 14.7663 3.23122C14.9069 3.37177 14.9858 3.56239 14.9858 3.76116C14.9858 3.95992 14.9069 4.15054 14.7663 4.29109L12.7384 6.31813V10.7027L16.535 8.5109L17.2578 5.81442C17.3092 5.62247 17.4347 5.4588 17.6068 5.35942C17.7789 5.26004 17.9834 5.23308 18.1753 5.28448C18.3673 5.33588 18.5309 5.46143 18.6303 5.63351C18.7297 5.80558 18.7567 6.01009 18.7053 6.20204L18.1004 8.4594L20.4074 9.02117C20.5903 9.06022 20.7519 9.16624 20.8605 9.31839C20.9692 9.47055 21.017 9.65784 20.9946 9.84345C20.9722 10.0291 20.8812 10.1996 20.7394 10.3215C20.5977 10.4434 20.4155 10.508 20.2286 10.5024C20.1683 10.5024 20.1083 10.4952 20.0498 10.4808L17.2924 9.8039L13.4874 12.0004L17.2924 14.1969L20.0498 13.52C20.1453 13.4965 20.2445 13.492 20.3418 13.5069C20.439 13.5217 20.5324 13.5556 20.6166 13.6066C20.7007 13.6575 20.774 13.7245 20.8323 13.8038C20.8905 13.8831 20.9326 13.9731 20.9561 14.0686Z"
    fill="#F1F3F5"
    stroke="#F1F3F5"
    stroke-width="0.5"
  />
</svg>
