<svg
  width="24"
  height="24"
  viewBox="0 0 24 24"
  fill="none"
  xmlns="http://www.w3.org/2000/svg"
>
  <path
    d="M17.9279 19.6348H20.0659C20.254 19.6378 20.44 19.5951 20.608 19.5106C20.776 19.426 20.921 19.302 21.0307 19.1492C21.1403 18.9964 21.2114 18.8194 21.2377 18.6331C21.2641 18.4469 21.2449 18.2571 21.1819 18.0798C20.6368 16.913 19.7737 15.9234 18.6918 15.2247C17.6098 14.5261 16.3528 14.1466 15.0649 14.1298M15.0649 11.3708C15.5462 11.371 16.0227 11.2763 16.4674 11.0922C16.9121 10.9081 17.3161 10.6383 17.6564 10.298C17.9968 9.95777 18.2667 9.55381 18.4509 9.10921C18.6351 8.66461 18.7299 8.18808 18.7299 7.70683C18.7313 7.22474 18.6374 6.74713 18.4538 6.30137C18.2702 5.85562 18.0004 5.45047 17.66 5.10917C17.3195 4.76786 16.915 4.4971 16.4697 4.3124C16.0244 4.1277 15.547 4.03269 15.0649 4.03283M14.0249 20.8278C14.3772 20.8274 14.7224 20.7294 15.0224 20.5448C15.3224 20.3601 15.5654 20.0961 15.7245 19.7819C15.8837 19.4676 15.9527 19.1155 15.924 18.7644C15.8953 18.4133 15.77 18.0771 15.5619 17.7928C14.8331 16.8253 13.8947 16.0352 12.8172 15.4817C11.7397 14.9283 10.5509 14.6257 9.33994 14.5968C8.12885 14.6259 6.94003 14.9285 5.86252 15.4822C4.785 16.0358 3.84672 16.8261 3.11794 17.7938C2.9106 18.0781 2.78584 18.4141 2.75745 18.7648C2.72906 19.1155 2.79813 19.4672 2.95705 19.7811C3.11596 20.095 3.35854 20.3589 3.65799 20.5436C3.95743 20.7283 4.30211 20.8267 4.65394 20.8278H14.0249ZM9.33994 11.4858C10.4417 11.4832 11.4974 11.0436 12.2754 10.2635C13.0534 9.48343 13.4902 8.42657 13.4899 7.32483C13.4899 6.22391 13.0526 5.16809 12.2741 4.38963C11.4957 3.61116 10.4399 3.17383 9.33894 3.17383C8.23803 3.17383 7.1822 3.61116 6.40374 4.38963C5.62528 5.16809 5.18794 6.22391 5.18794 7.32483C5.18794 8.42657 5.62499 9.48332 6.40319 10.2632C7.1814 11.0431 8.2372 11.4824 9.33894 11.4848"
    fill="#F1F3F5"
  />
</svg>
