<svg
  width="24"
  height="25"
  viewBox="0 0 24 25"
  fill="none"
  xmlns="http://www.w3.org/2000/svg"
>
  <path
    d="M19.3571 7.625H4.35706C3.11441 7.625 2.10706 8.63236 2.10706 9.875V18.875C2.10706 20.1176 3.11441 21.125 4.35706 21.125H19.3571C20.5997 21.125 21.6071 20.1176 21.6071 18.875V9.875C21.6071 8.63236 20.5997 7.625 19.3571 7.625Z"
    stroke="#F1F3F5"
    stroke-width="2"
    stroke-linejoin="round"
  />
  <path
    d="M19.1396 7.62425V6.218C19.1394 5.87309 19.0632 5.53246 18.9163 5.22042C18.7694 4.90837 18.5554 4.63259 18.2896 4.41276C18.0239 4.19293 17.7129 4.03446 17.3788 3.94867C17.0447 3.86287 16.6959 3.85187 16.3571 3.91643L4.01206 6.02346C3.47596 6.12563 2.99232 6.41167 2.64455 6.83226C2.29678 7.25286 2.10669 7.78162 2.10706 8.32737V10.6242"
    stroke="#F1F3F5"
    stroke-width="2"
    stroke-linejoin="round"
  />
  <path
    d="M16.817 12.9189C17.105 12.8617 17.4042 12.8916 17.6754 13.0039C17.9465 13.1163 18.1784 13.3068 18.3414 13.5508C18.5044 13.7948 18.5914 14.0816 18.5914 14.375C18.5914 14.7687 18.4352 15.1464 18.1569 15.4248C17.8785 15.7032 17.5007 15.8594 17.1071 15.8594C16.8136 15.8594 16.5269 15.7723 16.2828 15.6094C16.0388 15.4463 15.8483 15.2144 15.736 14.9434C15.6236 14.6721 15.5937 14.3729 15.651 14.085C15.7083 13.7972 15.8498 13.5327 16.0573 13.3252C16.2647 13.1177 16.5292 12.9763 16.817 12.9189Z"
    fill="#F1F3F5"
    stroke="#F1F3F5"
    stroke-width="0.03125"
  />
</svg>
